SplineFontDB: 3.0
FontName: FatemiMaqala-Slanted
FullName: FatemiMaqala Slanted
FamilyName: FatemiMaqala
Weight: Regular
Copyright: All the rights are reserved to Dawat Hadiyah
Version: 1.3
ItalicAngle: 0
UnderlinePosition: -1250
UnderlineWidth: 100
Ascent: 1638
Descent: 410
InvalidEm: 0
LayerCount: 4
Layer: 0 1 "Back" 1
Layer: 1 1 "Fore" 0
Layer: 2 0 "Back 2" 1
Layer: 3 1 "Back 3" 1
NeedsXUIDChange: 1
XUID: [1021 574 -2067448607 8700048]
UseXUID: 1
UseUniqueID: 1
StyleMap: 0x0001
FSType: 0
OS2Version: 0
OS2_WeightWidthSlopeOnly: 0
OS2_UseTypoMetrics: 1
CreationTime: 1033018408
ModificationTime: 1453209793
PfmFamily: 17
TTFWeight: 400
TTFWidth: 5
LineGap: -100
VLineGap: 0
Panose: 0 0 0 0 0 0 0 0 0 0
OS2TypoAscent: 2200
OS2TypoAOffset: 0
OS2TypoDescent: -1400
OS2TypoDOffset: 0
OS2TypoLinegap: -100
OS2WinAscent: 2200
OS2WinAOffset: 0
OS2WinDescent: 1400
OS2WinDOffset: 0
HheadAscent: 2200
HheadAOffset: 0
HheadDescent: -1400
HheadDOffset: 0
OS2Vendor: 'GLYF'
Lookup: 1 0 0 "dotlessi" { "'ccmp' Glyph Composition/Decomposition in Latin lookup 10 subtable"  } ['ccmp' ('latn' <'TRK ' > ) ]
Lookup: 1 8 0 "'locl' Localized Forms in Arabic lookup 18" { "'locl' Localized Forms in Arabic lookup 18-1"  } ['locl' ('arab' <'URD ' > ) ]
Lookup: 1 8 0 "'locl' Localized Forms in Arabic lookup 25" { "'locl' Localized Forms in Arabic lookup 25-1"  } ['locl' ('arab' <'FAR ' > ) ]
Lookup: 2 0 0 "longlaamkaafs" { "longlaamkaafs-1"  } []
Lookup: 3 0 0 "shortalefs" { "'aalt' Access All Alternates lookup 8 subtable"  } []
Lookup: 1 0 0 "straightrehs" { "straightrehs-1"  } []
Lookup: 1 8 0 "hehgoal" { "hehgoal-1"  } []
Lookup: 1 8 0 "'fina' Terminal Forms in Arabic lookup 4" { "'fina' Terminal Forms in Arabic lookup 4 subtable"  } ['fina' ('DFLT' <'dflt' > 'arab' <'ARA ' 'FAR ' 'URD ' 'dflt' > 'cyrl' <'dflt' > 'latn' <'TRK ' 'dflt' > ) ]

StartChar: .notdef
Encoding: 1142 -1 0
Width: 748
Flags: W
LayerCount: 4
Fore
SplineSet
68 0 m 1,0,-1
 -173 1365 l 1,1,-1
 371 1365 l 1,2,-1
 612 0 l 1,3,-1
 68 0 l 1,0,-1
124 68 m 1,4,-1
 532 68 l 1,5,-1
 315 1297 l 1,6,-1
 -93 1297 l 1,7,-1
 124 68 l 1,4,-1
EndSplineSet
EndChar

StartChar: exclam
Encoding: 1 33 4
Width: 482
GlyphClass: 2
Flags: W
LayerCount: 4
Fore
SplineSet
24 1284 m 0
 67 1284 67 1284 95.5 1248.5 c 0
 124 1213 124 1213 132 1168 c 0
 136 1143 136 1143 144.5 1054.5 c 0
 153 966 153 966 171.5 753.5 c 0
 190 541 190 541 207 344 c 1
 199 320 199 320 180 318 c 1
 160 326 160 326 150 340 c 1
 -32 1030 -32 1030 -56 1168 c 0
 -64 1213 -64 1213 -42.5 1248.5 c 0
 -21 1284 -21 1284 24 1284 c 0
EndSplineSet
Refer: 16 46 S 1 0 0 1 34 0 2
Substitution2: "'smcp' Lowercase to Small Capitals lookup 12 subtable" exclam.sc
EndChar

StartChar: numbersign
Encoding: 3 35 6
Width: 960
GlyphClass: 2
Flags: W
LayerCount: 4
Fore
SplineSet
571 454 m 1,0,-1
 705 454 l 2,1,2
 718 454 718 454 723.5 432 c 128,-1,3
 729 410 729 410 724 386 c 128,-1,4
 719 362 719 362 708 356 c 1,5,-1
 572 356 l 1,6,-1
 576 154 l 2,7,8
 575 146 575 146 563.5 137 c 128,-1,9
 552 128 552 128 532 128 c 0,10,11
 523 128 523 128 517.5 130 c 128,-1,12
 512 132 512 132 510 134 c 2,13,-1
 509 136 l 1,14,-1
 505 356 l 1,15,-1
 249 356 l 1,16,-1
 252 154 l 2,17,18
 251 146 251 146 240.5 137 c 128,-1,19
 230 128 230 128 210 128 c 0,20,21
 201 128 201 128 195.5 130 c 128,-1,22
 190 132 190 132 188 134 c 2,23,-1
 187 136 l 1,24,-1
 183 356 l 1,25,-1
 50 356 l 2,26,27
 38 359 38 359 34 379.5 c 128,-1,28
 30 400 30 400 36 425 c 128,-1,29
 42 450 42 450 53 454 c 1,30,-1
 182 454 l 1,31,-1
 177 738 l 1,32,-1
 39 738 l 2,33,34
 28 738 28 738 23.5 761 c 128,-1,35
 19 784 19 784 23.5 808 c 128,-1,36
 28 832 28 832 40 836 c 1,37,-1
 176 836 l 1,38,-1
 172 1036 l 2,39,40
 173 1046 173 1046 174 1048 c 128,-1,41
 175 1050 175 1050 178.5 1055 c 128,-1,42
 182 1060 182 1060 190 1061 c 128,-1,43
 198 1062 198 1062 212 1062 c 0,44,45
 229 1062 229 1062 239 1056 c 1,46,-1
 242 836 l 1,47,-1
 498 836 l 1,48,-1
 494 1036 l 2,49,50
 495 1046 495 1046 496 1048 c 128,-1,51
 497 1050 497 1050 500.5 1055 c 128,-1,52
 504 1060 504 1060 512 1061 c 128,-1,53
 520 1062 520 1062 534 1062 c 0,54,55
 551 1062 551 1062 561 1056 c 1,56,-1
 565 836 l 1,57,-1
 692 836 l 2,58,59
 705 836 705 836 710.5 814 c 128,-1,60
 716 792 716 792 712 768 c 128,-1,61
 708 744 708 744 697 738 c 1,62,-1
 566 738 l 1,63,-1
 571 454 l 1,0,-1
504 454 m 1,64,-1
 499 738 l 1,65,-1
 244 738 l 1,66,-1
 248 454 l 1,67,-1
 504 454 l 1,64,-1
EndSplineSet
EndChar

StartChar: dollar
Encoding: 4 36 7
Width: 996
GlyphClass: 2
Flags: W
LayerCount: 4
Fore
SplineSet
343 1366 m 1,0,1
 413 1366 413 1366 416 1352 c 2,2,-1
 417 1265 l 1,3,4
 441 1260 441 1260 495.5 1246 c 128,-1,5
 550 1232 550 1232 588 1224 c 1,6,7
 602 1189 602 1189 615.5 1143.5 c 128,-1,8
 629 1098 629 1098 635.5 1071.5 c 128,-1,9
 642 1045 642 1045 651 1000 c 128,-1,10
 660 955 660 955 660 952 c 0,11,12
 648 944 648 944 626 944 c 0,13,14
 608 944 608 944 596 954 c 1,15,16
 579 1009 579 1009 530.5 1072.5 c 128,-1,17
 482 1136 482 1136 418 1174 c 1,18,-1
 423 711 l 2,19,20
 425 710 425 710 430.5 707 c 128,-1,21
 436 704 436 704 438 702 c 0,22,23
 455 692 455 692 493.5 671 c 128,-1,24
 532 650 532 650 555.5 637 c 128,-1,25
 579 624 579 624 616.5 600.5 c 128,-1,26
 654 577 654 577 678.5 558 c 128,-1,27
 703 539 703 539 733 511.5 c 128,-1,28
 763 484 763 484 781.5 458 c 128,-1,29
 800 432 800 432 815.5 399.5 c 128,-1,30
 831 367 831 367 837 332 c 0,31,32
 855 230 855 230 811.5 148 c 128,-1,33
 768 66 768 66 685 23 c 128,-1,34
 602 -20 602 -20 498 -20 c 0,35,36
 465 -20 465 -20 431 -17 c 1,37,-1
 432 -104 l 1,38,39
 411 -104 411 -104 386 -99.5 c 128,-1,40
 361 -95 361 -95 359 -86 c 2,41,-1
 358 -8 l 1,42,43
 337 -5 337 -5 142 36 c 1,44,45
 112 114 112 114 79.5 212.5 c 128,-1,46
 47 311 47 311 44 330 c 1,47,48
 49 336 49 336 64.5 341 c 128,-1,49
 80 346 80 346 91 346 c 0,50,51
 108 346 108 346 115 336 c 0,52,53
 126 309 126 309 140 281.5 c 128,-1,54
 154 254 154 254 183 210.5 c 128,-1,55
 212 167 212 167 257.5 130 c 128,-1,56
 303 93 303 93 357 72 c 1,57,-1
 352 568 l 1,58,59
 301 595 301 595 270 612.5 c 128,-1,60
 239 630 239 630 191.5 660 c 128,-1,61
 144 690 144 690 113.5 717 c 128,-1,62
 83 744 83 744 50.5 779 c 128,-1,63
 18 814 18 814 -1 854.5 c 128,-1,64
 -20 895 -20 895 -28 940 c 0,65,66
 -45 1038 -45 1038 -5 1117 c 128,-1,67
 35 1196 35 1196 113.5 1237 c 128,-1,68
 192 1278 192 1278 289 1278 c 0,69,70
 310 1278 310 1278 344 1276 c 1,71,-1
 343 1366 l 1,0,1
426 530 m 1,72,-1
 431 52 l 1,73,74
 456 48 456 48 490 48 c 0,75,76
 585 48 585 48 641.5 110 c 128,-1,77
 698 172 698 172 679 280 c 0,78,79
 675 303 675 303 667 324 c 128,-1,80
 659 345 659 345 652 361 c 128,-1,81
 645 377 645 377 628.5 394.5 c 128,-1,82
 612 412 612 412 604 422 c 128,-1,83
 596 432 596 432 573 447.5 c 128,-1,84
 550 463 550 463 541 469 c 128,-1,85
 532 475 532 475 503.5 490.5 c 128,-1,86
 475 506 475 506 466 510 c 2,87,-1
 426 530 l 1,72,-1
350 751 m 1,88,-1
 345 1205 l 1,89,90
 319 1212 319 1212 288 1212 c 0,91,92
 228 1212 228 1212 188.5 1192.5 c 128,-1,93
 149 1173 149 1173 132.5 1140 c 128,-1,94
 116 1107 116 1107 112.5 1072.5 c 128,-1,95
 109 1038 109 1038 116 1000 c 0,96,97
 124 956 124 956 144.5 919.5 c 128,-1,98
 165 883 165 883 200.5 852 c 128,-1,99
 236 821 236 821 268 800 c 128,-1,100
 300 779 300 779 350 751 c 1,88,-1
EndSplineSet
EndChar

StartChar: percent
Encoding: 5 37 8
Width: 1334
GlyphClass: 2
Flags: W
LayerCount: 4
Fore
SplineSet
153 1242 m 0,0,1
 97 1242 97 1242 65.5 1203 c 128,-1,2
 34 1164 34 1164 28 1109.5 c 128,-1,3
 22 1055 22 1055 33 992 c 0,4,5
 52 885 52 885 124 792.5 c 128,-1,6
 196 700 196 700 269 700 c 0,7,8
 310 700 310 700 337 722.5 c 128,-1,9
 364 745 364 745 373 783 c 128,-1,10
 382 821 382 821 382 863 c 128,-1,11
 382 905 382 905 374 952 c 0,12,13
 362 1021 362 1021 330.5 1086.5 c 128,-1,14
 299 1152 299 1152 251 1197 c 128,-1,15
 203 1242 203 1242 153 1242 c 0,0,1
153 1290 m 0,16,17
 281 1290 281 1290 380.5 1195.5 c 128,-1,18
 480 1101 480 1101 503 968 c 0,19,20
 517 887 517 887 495.5 815 c 128,-1,21
 474 743 474 743 413 696.5 c 128,-1,22
 352 650 352 650 265 650 c 0,23,24
 140 650 140 650 36.5 743 c 128,-1,25
 -67 836 -67 836 -91 968 c 0,26,27
 -115 1104 -115 1104 -46.5 1197 c 128,-1,28
 22 1290 22 1290 153 1290 c 0,16,17
848 578 m 0,29,30
 792 578 792 578 760 539 c 128,-1,31
 728 500 728 500 721.5 445.5 c 128,-1,32
 715 391 715 391 726 328 c 0,33,34
 745 221 745 221 818 128.5 c 128,-1,35
 891 36 891 36 964 36 c 0,36,37
 1005 36 1005 36 1031.5 58.5 c 128,-1,38
 1058 81 1058 81 1067 119 c 128,-1,39
 1076 157 1076 157 1076 199 c 128,-1,40
 1076 241 1076 241 1067 288 c 0,41,42
 1055 357 1055 357 1024 422.5 c 128,-1,43
 993 488 993 488 945.5 533 c 128,-1,44
 898 578 898 578 848 578 c 0,29,30
848 626 m 0,45,46
 976 626 976 626 1074.5 532 c 128,-1,47
 1173 438 1173 438 1196 304 c 0,48,49
 1218 177 1218 177 1154 81.5 c 128,-1,50
 1090 -14 1090 -14 958 -14 c 0,51,52
 833 -14 833 -14 729.5 79 c 128,-1,53
 626 172 626 172 602 304 c 0,54,55
 578 440 578 440 647 533 c 128,-1,56
 716 626 716 626 848 626 c 0,45,46
976 1248 m 1,57,-1
 230 0 l 2,58,59
 225 -8 225 -8 205 -16 c 128,-1,60
 185 -24 185 -24 168 -24 c 0,61,62
 143 -24 143 -24 128 -2 c 1,63,-1
 872 1248 l 2,64,65
 888 1272 888 1272 908 1272 c 0,66,67
 929 1272 929 1272 940 1270.5 c 128,-1,68
 951 1269 951 1269 955 1267.5 c 128,-1,69
 959 1266 959 1266 965 1259 c 128,-1,70
 971 1252 971 1252 976 1248 c 1,57,-1
EndSplineSet
EndChar

StartChar: ampersand
Encoding: 6 38 9
Width: 1366
GlyphClass: 2
Flags: W
LayerCount: 4
Fore
SplineSet
778 190 m 1,0,1
 710 249 710 249 608.5 358.5 c 128,-1,2
 507 468 507 468 440 548 c 2,3,-1
 373 628 l 1,4,5
 334 598 334 598 316.5 583 c 128,-1,6
 299 568 299 568 271 538.5 c 128,-1,7
 243 509 243 509 232.5 484 c 128,-1,8
 222 459 222 459 216 422.5 c 128,-1,9
 210 386 210 386 217 344 c 0,10,11
 240 212 240 212 334 146 c 128,-1,12
 428 80 428 80 548 80 c 0,13,14
 610 80 610 80 675 110 c 128,-1,15
 740 140 740 140 778 190 c 1,0,1
407 1240 m 0,16,17
 341 1240 341 1240 303 1197 c 128,-1,18
 265 1154 265 1154 277 1086 c 0,19,20
 300 958 300 958 436 770 c 1,21,22
 498 810 498 810 531 843.5 c 128,-1,23
 564 877 564 877 580 931.5 c 128,-1,24
 596 986 596 986 583 1060 c 0,25,26
 570 1132 570 1132 520.5 1186 c 128,-1,27
 471 1240 471 1240 407 1240 c 0,16,17
385 1312 m 0,28,29
 519 1312 519 1312 607 1253.5 c 128,-1,30
 695 1195 695 1195 714 1088 c 0,31,32
 725 1023 725 1023 711.5 967 c 128,-1,33
 698 911 698 911 660 863.5 c 128,-1,34
 622 816 622 816 582.5 781.5 c 128,-1,35
 543 747 543 747 484 706 c 1,36,37
 636 509 636 509 850 308 c 1,38,39
 887 384 887 384 906.5 453.5 c 128,-1,40
 926 523 926 523 922 542 c 0,41,42
 919 560 919 560 900 567.5 c 128,-1,43
 881 575 881 575 854 576.5 c 128,-1,44
 827 578 827 578 826 578 c 0,45,46
 819 587 819 587 817 602.5 c 128,-1,47
 815 618 815 618 820 624 c 1,48,-1
 978 624 l 2,49,50
 1009 624 1009 624 1041.5 625.5 c 128,-1,51
 1074 627 1074 627 1118 630 c 128,-1,52
 1162 633 1162 633 1196 634 c 0,53,54
 1201 631 1201 631 1205 604.5 c 128,-1,55
 1209 578 1209 578 1204 578 c 0,56,57
 1178 578 1178 578 1132 566 c 128,-1,58
 1086 554 1086 554 1072 544 c 0,59,60
 1069 542 1069 542 1051 498.5 c 128,-1,61
 1033 455 1033 455 996 381.5 c 128,-1,62
 959 308 959 308 917 246 c 1,63,64
 971 198 971 198 992.5 179.5 c 128,-1,65
 1014 161 1014 161 1048 134.5 c 128,-1,66
 1082 108 1082 108 1102.5 99 c 128,-1,67
 1123 90 1123 90 1140 90 c 0,68,69
 1168 90 1168 90 1195 123.5 c 128,-1,70
 1222 157 1222 157 1228 182 c 1,71,72
 1244 182 1244 182 1261 169.5 c 128,-1,73
 1278 157 1278 157 1280 146 c 1,74,75
 1277 134 1277 134 1273 123 c 128,-1,76
 1269 112 1269 112 1254.5 87.5 c 128,-1,77
 1240 63 1240 63 1221 45.5 c 128,-1,78
 1202 28 1202 28 1166.5 14 c 128,-1,79
 1131 0 1131 0 1088 0 c 0,80,81
 1055 0 1055 0 1016.5 15 c 128,-1,82
 978 30 978 30 946.5 51 c 128,-1,83
 915 72 915 72 888.5 93 c 128,-1,84
 862 114 862 114 847 129 c 2,85,-1
 833 144 l 1,86,87
 769 77 769 77 679.5 35.5 c 128,-1,88
 590 -6 590 -6 495 -6 c 0,89,90
 318 -6 318 -6 197.5 80 c 128,-1,91
 77 166 77 166 50 316 c 0,92,93
 38 385 38 385 54 443.5 c 128,-1,94
 70 502 70 502 113.5 549 c 128,-1,95
 157 596 157 596 202.5 629.5 c 128,-1,96
 248 663 248 663 315 700 c 1,97,98
 267 764 267 764 240 802.5 c 128,-1,99
 213 841 213 841 181.5 907.5 c 128,-1,100
 150 974 150 974 139 1038 c 0,101,102
 119 1153 119 1153 189.5 1232.5 c 128,-1,103
 260 1312 260 1312 385 1312 c 0,28,29
EndSplineSet
Substitution2: "'smcp' Lowercase to Small Capitals lookup 12 subtable" ampersand.sc
EndChar

StartChar: quotesingle
Encoding: 7 39 10
Width: 320
GlyphClass: 2
Flags: W
LayerCount: 4
Fore
SplineSet
-65 1398 m 0,0,1
 -34 1398 -34 1398 -8 1372 c 1,2,3
 0 1328 0 1328 14 1194.5 c 128,-1,4
 28 1061 28 1061 32 984 c 1,5,6
 24 960 24 960 -1 946 c 1,7,8
 -13 946 -13 946 -21 958 c 0,9,10
 -133 1198 -133 1198 -144 1258 c 0,11,12
 -152 1305 -152 1305 -130.5 1351.5 c 128,-1,13
 -109 1398 -109 1398 -65 1398 c 0,0,1
EndSplineSet
Substitution2: "'smcp' Lowercase to Small Capitals lookup 12 subtable" quotesingle.sc
EndChar

StartChar: parenleft
Encoding: 8 40 11
Width: 524
GlyphClass: 2
Flags: W
LayerCount: 4
Fore
SplineSet
119.5 570 m 128,-1,1
 163 324 163 324 282 92 c 128,-1,2
 401 -140 401 -140 558 -260 c 1,3,4
 557 -262 557 -262 553 -268 c 0,5,6
 548 -276 548 -276 540 -286 c 128,-1,7
 532 -296 532 -296 527 -300 c 1,8,9
 317 -155 317 -155 170 67.5 c 128,-1,10
 23 290 23 290 -27 570 c 0,11,12
 -77 851 -77 851 -8 1072 c 128,-1,13
 61 1293 61 1293 220 1438 c 1,14,15
 227 1434 227 1434 239 1424 c 128,-1,16
 251 1414 251 1414 257 1408 c 128,-1,17
 263 1402 263 1402 265 1398 c 1,18,19
 150 1277 150 1277 113 1046.5 c 128,-1,0
 76 816 76 816 119.5 570 c 128,-1,1
EndSplineSet
Substitution2: "'smcp' Lowercase to Small Capitals lookup 12 subtable" parenleft.sc
EndChar

StartChar: parenright
Encoding: 9 41 12
Width: 524
GlyphClass: 2
Flags: W
LayerCount: 4
Fore
SplineSet
349 570 m 0,0,1
 398 290 398 290 329.5 67.5 c 128,-1,2
 261 -155 261 -155 103 -300 c 1,3,4
 96 -296 96 -296 84.5 -286 c 128,-1,5
 73 -276 73 -276 67.5 -270 c 128,-1,6
 62 -264 62 -264 58 -260 c 1,7,8
 173 -140 173 -140 210 92 c 128,-1,9
 247 324 247 324 203.5 570 c 128,-1,10
 160 816 160 816 41.5 1046.5 c 128,-1,11
 -77 1277 -77 1277 -235 1398 c 1,12,13
 -234 1400 -234 1400 -229.5 1407 c 128,-1,14
 -225 1414 -225 1414 -217 1424 c 128,-1,15
 -209 1434 -209 1434 -204 1438 c 1,16,17
 7 1293 7 1293 153 1072 c 128,-1,18
 299 851 299 851 349 570 c 0,0,1
EndSplineSet
Substitution2: "'smcp' Lowercase to Small Capitals lookup 12 subtable" parenright.sc
EndChar

StartChar: plus
Encoding: 10 43 13
Width: 1084
GlyphClass: 2
Flags: W
LayerCount: 4
Fore
SplineSet
317 948 m 1,0,1
 372 970 372 970 399 970 c 0,2,3
 408 970 408 970 415 967 c 128,-1,4
 422 964 422 964 425 961 c 2,5,-1
 427 958 l 1,6,-1
 499 548 l 1,7,-1
 907 548 l 2,8,9
 914 548 914 548 921 541.5 c 128,-1,10
 928 535 928 535 930 524 c 0,11,12
 934 500 934 500 929 474.5 c 128,-1,13
 924 449 924 449 913 436 c 1,14,-1
 519 436 l 1,15,-1
 590 32 l 1,16,17
 565 10 565 10 508 10 c 0,18,19
 498 10 498 10 489 16 c 128,-1,20
 480 22 480 22 479 28 c 2,21,-1
 407 436 l 1,22,-1
 -3 436 l 2,23,24
 -15 436 -15 436 -18 456 c 0,25,26
 -20 469 -20 469 -18 503.5 c 128,-1,27
 -16 538 -16 538 -5 548 c 1,28,-1
 387 548 l 1,29,-1
 317 948 l 1,0,1
EndSplineSet
EndChar

StartChar: comma
Encoding: 11 44 14
Width: 402
GlyphClass: 2
Flags: W
LayerCount: 4
Fore
SplineSet
169 246 m 0,0,1
 197 246 197 246 223 232 c 1,2,3
 270 170 270 170 284 92 c 0,4,5
 299 8 299 8 241 -113.5 c 128,-1,6
 183 -235 183 -235 113 -278 c 1,7,8
 103 -278 103 -278 90 -262 c 128,-1,9
 77 -246 77 -246 76 -236 c 1,10,11
 96 -219 96 -219 108.5 -205.5 c 128,-1,12
 121 -192 121 -192 140 -163.5 c 128,-1,13
 159 -135 159 -135 164.5 -97 c 128,-1,14
 170 -59 170 -59 162 -14 c 0,15,16
 156 18 156 18 115.5 63 c 128,-1,17
 75 108 75 108 68 148 c 0,18,19
 62 183 62 183 90 214.5 c 128,-1,20
 118 246 118 246 169 246 c 0,0,1
EndSplineSet
Substitution2: "'smcp' Lowercase to Small Capitals lookup 12 subtable" comma.sc
Substitution2: "'c2sc' Capitals to Small Capitals in Latin lookup 11 subtable" comma.sc
EndChar

StartChar: hyphen
Encoding: 12 45 15
Width: 754
GlyphClass: 2
Flags: W
LayerCount: 4
Fore
SplineSet
50 522 m 1,0,1
 462 544 462 544 528 546 c 0,2,3
 542 546 542 546 545 528 c 0,4,5
 554 475 554 475 538 420 c 1,6,7
 498 417 498 417 60 398 c 0,8,9
 46 398 46 398 42 420 c 0,10,11
 34 466 34 466 50 522 c 1,0,1
EndSplineSet
EndChar

StartChar: period
Encoding: 13 46 16
Width: 414
GlyphClass: 2
Flags: W
LayerCount: 4
Fore
SplineSet
80 90 m 128,-1,1
 72 135 72 135 100 166.5 c 128,-1,2
 128 198 128 198 173 198 c 128,-1,3
 218 198 218 198 255 166.5 c 128,-1,4
 292 135 292 135 300 90 c 128,-1,5
 308 45 308 45 282.5 11.5 c 128,-1,6
 257 -22 257 -22 212 -22 c 128,-1,7
 167 -22 167 -22 127.5 11.5 c 128,-1,0
 88 45 88 45 80 90 c 128,-1,1
EndSplineSet
Substitution2: "'smcp' Lowercase to Small Capitals lookup 12 subtable" period.sc
Substitution2: "'c2sc' Capitals to Small Capitals in Latin lookup 11 subtable" period.sc
EndChar

StartChar: slash
Encoding: 14 47 17
Width: 826
GlyphClass: 2
Flags: W
LayerCount: 4
Fore
SplineSet
470 1522 m 0,0,1
 490 1522 490 1522 499 1504 c 1,2,-1
 178 -24 l 2,3,4
 175 -39 175 -39 156.5 -54.5 c 128,-1,5
 138 -70 138 -70 108 -70 c 0,6,7
 95 -70 95 -70 85.5 -66.5 c 128,-1,8
 76 -63 76 -63 73 -60 c 2,9,-1
 70 -56 l 1,10,-1
 395 1492 l 2,11,12
 395 1496 395 1496 403.5 1502.5 c 128,-1,13
 412 1509 412 1509 430 1515.5 c 128,-1,14
 448 1522 448 1522 470 1522 c 0,0,1
EndSplineSet
Substitution2: "'smcp' Lowercase to Small Capitals lookup 12 subtable" slash.sc
EndChar

StartChar: zero
Encoding: 15 48 18
Width: 1090
GlyphClass: 2
Flags: W
LayerCount: 4
Fore
SplineSet
343 1208 m 0,0,1
 261 1208 261 1208 212 1131 c 128,-1,2
 163 1054 163 1054 153 926 c 128,-1,3
 143 798 143 798 171 640 c 0,4,5
 199 484 199 484 253.5 353.5 c 128,-1,6
 308 223 308 223 380 145.5 c 128,-1,7
 452 68 452 68 524 68 c 0,8,9
 610 68 610 68 657.5 149 c 128,-1,10
 705 230 705 230 711.5 359.5 c 128,-1,11
 718 489 718 489 689 650 c 0,12,13
 661 806 661 806 608 933 c 128,-1,14
 555 1060 555 1060 485 1134 c 128,-1,15
 415 1208 415 1208 343 1208 c 0,0,1
318 1282 m 0,16,17
 453 1282 453 1282 569.5 1193 c 128,-1,18
 686 1104 686 1104 761 959.5 c 128,-1,19
 836 815 836 815 868 638 c 0,20,21
 899 462 899 462 874 317 c 128,-1,22
 849 172 849 172 764 83 c 128,-1,23
 679 -6 679 -6 545 -6 c 0,24,25
 413 -6 413 -6 297 83 c 128,-1,26
 181 172 181 172 104 317 c 128,-1,27
 27 462 27 462 -4.5 638 c 128,-1,28
 -36 814 -36 814 -11 959 c 128,-1,29
 14 1104 14 1104 99 1193 c 128,-1,30
 184 1282 184 1282 318 1282 c 0,16,17
EndSplineSet
Substitution2: "'ordn' Ordinals lookup 17 subtable" zero.ordn
Substitution2: "'onum' Oldstyle Figures lookup 16 subtable" zero.onum
Substitution2: "'zero' Slashed Zero lookup 15 subtable" zero.slash
Substitution2: "'pnum' Proportional Numbers lookup 14 subtable" zero.prop
EndChar

StartChar: one
Encoding: 16 49 19
Width: 1090
GlyphClass: 2
Flags: W
LayerCount: 4
Fore
SplineSet
453 232 m 2,0,-1
 311 1040 l 2,1,2
 304 1082 304 1082 290.5 1099 c 128,-1,3
 277 1116 277 1116 255 1116 c 0,4,5
 222 1116 222 1116 122 1076 c 1,6,7
 99 1092 99 1092 96 1110 c 0,8,9
 94 1121 94 1121 98 1122 c 0,10,11
 162 1153 162 1153 243 1195 c 128,-1,12
 324 1237 324 1237 370 1260.5 c 128,-1,13
 416 1284 416 1284 418 1284 c 2,14,-1
 422 1284 l 2,15,16
 436 1284 436 1284 447 1252 c 1,17,18
 444 1180 444 1180 465 1058 c 2,19,-1
 611 232 l 2,20,21
 631 116 631 116 647 84 c 0,22,23
 653 70 653 70 702.5 61 c 128,-1,24
 752 52 752 52 781 52 c 1,25,26
 788 44 788 44 792.5 23 c 128,-1,27
 797 2 797 2 791 -6 c 1,28,29
 584 4 584 4 567 4 c 0,30,31
 558 4 558 4 355 -6 c 1,32,33
 347 2 347 2 343.5 23 c 128,-1,34
 340 44 340 44 345 52 c 1,35,36
 374 52 374 52 420 61 c 128,-1,37
 466 70 466 70 467 84 c 0,38,39
 472 122 472 122 453 232 c 2,0,-1
EndSplineSet
Substitution2: "'ordn' Ordinals lookup 17 subtable" one.ordn
Substitution2: "'onum' Oldstyle Figures lookup 16 subtable" one.onum
Substitution2: "'pnum' Proportional Numbers lookup 14 subtable" one.prop
EndChar

StartChar: two
Encoding: 17 50 20
Width: 1090
GlyphClass: 2
Flags: W
LayerCount: 4
Fore
SplineSet
903 300 m 1,0,1
 878 193 878 193 848 0 c 1,2,3
 156 0 l 0,4,5
 149 3 149 3 140.5 12.5 c 128,-1,6
 132 22 132 22 131 28 c 1,7,8
 386 379 386 379 504 612 c 0,9,10
 546 696 546 696 554 763 c 128,-1,11
 562 830 562 830 547 912 c 0,12,13
 529 1016 529 1016 455 1085 c 128,-1,14
 381 1154 381 1154 285 1154 c 0,15,16
 229 1154 229 1154 181 1133.5 c 128,-1,17
 133 1113 133 1113 102.5 1082 c 128,-1,18
 72 1051 72 1051 54.5 1026.5 c 128,-1,19
 37 1002 37 1002 29 982 c 1,20,21
 18 982 18 982 2 994.5 c 128,-1,22
 -14 1007 -14 1007 -15 1014 c 0,23,24
 -13 1037 -13 1037 9 1078 c 128,-1,25
 31 1119 31 1119 68 1167 c 128,-1,26
 105 1215 105 1215 169 1249.5 c 128,-1,27
 233 1284 233 1284 306 1284 c 0,28,29
 447 1284 447 1284 567.5 1182 c 128,-1,30
 688 1080 688 1080 710 950 c 0,31,32
 739 788 739 788 650 648 c 0,33,34
 529 460 529 460 302 146 c 1,35,-1
 698 146 l 2,36,37
 756 146 756 146 788 183 c 128,-1,38
 820 220 820 220 839 300 c 0,39,40
 842 312 842 312 861 312 c 0,41,42
 885 312 885 312 903 300 c 1,0,1
EndSplineSet
Substitution2: "'ordn' Ordinals lookup 17 subtable" two.ordn
Substitution2: "'onum' Oldstyle Figures lookup 16 subtable" two.onum
Substitution2: "'pnum' Proportional Numbers lookup 14 subtable" two.prop
EndChar

StartChar: three
Encoding: 18 51 21
Width: 1090
GlyphClass: 2
Flags: W
LayerCount: 4
Fore
SplineSet
338 1284 m 0,0,1
 378 1284 378 1284 425.5 1266.5 c 128,-1,2
 473 1249 473 1249 518.5 1218 c 128,-1,3
 564 1187 564 1187 599.5 1136.5 c 128,-1,4
 635 1086 635 1086 645 1028 c 0,5,6
 653 982 653 982 642.5 937.5 c 128,-1,7
 632 893 632 893 607.5 859 c 128,-1,8
 583 825 583 825 558 800.5 c 128,-1,9
 533 776 533 776 506 758 c 1,10,11
 552 752 552 752 603.5 728 c 128,-1,12
 655 704 655 704 705 665 c 128,-1,13
 755 626 755 626 793 566 c 128,-1,14
 831 506 831 506 843 436 c 0,15,16
 860 337 860 337 831.5 251.5 c 128,-1,17
 803 166 803 166 741 109.5 c 128,-1,18
 679 53 679 53 593.5 21.5 c 128,-1,19
 508 -10 508 -10 414 -10 c 0,20,21
 302 -10 302 -10 202 36 c 0,22,23
 189 44 189 44 170.5 67.5 c 128,-1,24
 152 91 152 91 148 112 c 0,25,26
 141 154 141 154 161 181 c 128,-1,27
 181 208 181 208 215 208 c 0,28,29
 240 208 240 208 261.5 195 c 128,-1,30
 283 182 283 182 309 154.5 c 128,-1,31
 335 127 335 127 343 120 c 0,32,33
 402 70 402 70 500 70 c 0,34,35
 542 70 542 70 579 87 c 128,-1,36
 616 104 616 104 645 138.5 c 128,-1,37
 674 173 674 173 684.5 235.5 c 128,-1,38
 695 298 695 298 681 380 c 0,39,40
 660 499 660 499 568.5 580.5 c 128,-1,41
 477 662 477 662 375 662 c 0,42,43
 356 662 356 662 334.5 657.5 c 128,-1,44
 313 653 313 653 288 645 c 128,-1,45
 263 637 263 637 260 636 c 0,46,47
 245 651 245 651 241 676 c 0,48,49
 239 690 239 690 241 696 c 1,50,51
 303 710 303 710 352 733.5 c 128,-1,52
 401 757 401 757 440 792.5 c 128,-1,53
 479 828 479 828 495.5 879 c 128,-1,54
 512 930 512 930 501 992 c 0,55,56
 487 1072 487 1072 422 1125 c 128,-1,57
 357 1178 357 1178 272 1178 c 0,58,59
 229 1178 229 1178 190 1158.5 c 128,-1,60
 151 1139 151 1139 131 1118 c 128,-1,61
 111 1097 111 1097 92 1072 c 128,-1,62
 73 1047 73 1047 72 1046 c 0,63,64
 63 1046 63 1046 52.5 1061 c 128,-1,65
 42 1076 42 1076 40 1090 c 1,66,67
 81 1171 81 1171 156 1227.5 c 128,-1,68
 231 1284 231 1284 338 1284 c 0,0,1
EndSplineSet
Substitution2: "'ordn' Ordinals lookup 17 subtable" three.ordn
Substitution2: "'onum' Oldstyle Figures lookup 16 subtable" three.onum
Substitution2: "'pnum' Proportional Numbers lookup 14 subtable" three.prop
EndChar

StartChar: four
Encoding: 19 52 22
Width: 1090
GlyphClass: 2
Flags: W
LayerCount: 4
Fore
SplineSet
585 1288 m 0,0,1
 599 1288 599 1288 609 1277 c 128,-1,2
 619 1266 619 1266 621 1252 c 2,3,-1
 761 462 l 1,4,-1
 879 462 l 2,5,6
 888 462 888 462 902 436 c 128,-1,7
 916 410 916 410 921 380 c 0,8,9
 925 360 925 360 919 348 c 1,10,-1
 781 348 l 1,11,-1
 842 -2 l 1,12,13
 836 -12 836 -12 758 -12 c 0,14,15
 686 -12 686 -12 683 4 c 2,16,-1
 623 348 l 1,17,-1
 59 348 l 1,18,19
 37 359 37 359 32 386 c 1,20,-1
 534 1238 l 2,21,22
 543 1254 543 1254 558.5 1271 c 128,-1,23
 574 1288 574 1288 585 1288 c 0,0,1
499 1048 m 1,24,-1
 155 462 l 1,25,-1
 603 462 l 1,26,-1
 499 1048 l 1,24,-1
EndSplineSet
Substitution2: "'ordn' Ordinals lookup 17 subtable" four.ordn
Substitution2: "'onum' Oldstyle Figures lookup 16 subtable" four.onum
Substitution2: "'pnum' Proportional Numbers lookup 14 subtable" four.prop
EndChar

StartChar: five
Encoding: 20 53 23
Width: 1090
GlyphClass: 2
Flags: W
LayerCount: 4
Fore
SplineSet
405 790 m 0,0,1
 490 790 490 790 568 758.5 c 128,-1,2
 646 727 646 727 702 676.5 c 128,-1,3
 758 626 758 626 795 563 c 128,-1,4
 832 500 832 500 843 436 c 0,5,6
 860 337 860 337 831.5 251.5 c 128,-1,7
 803 166 803 166 741 109.5 c 128,-1,8
 679 53 679 53 593.5 21.5 c 128,-1,9
 508 -10 508 -10 414 -10 c 0,10,11
 302 -10 302 -10 202 36 c 0,12,13
 189 44 189 44 170.5 67.5 c 128,-1,14
 152 91 152 91 148 112 c 0,15,16
 141 154 141 154 161 181 c 128,-1,17
 181 208 181 208 215 208 c 0,18,19
 240 208 240 208 261.5 195 c 128,-1,20
 283 182 283 182 309 154.5 c 128,-1,21
 335 127 335 127 343 120 c 0,22,23
 402 70 402 70 500 70 c 0,24,25
 542 70 542 70 579 86.5 c 128,-1,26
 616 103 616 103 645.5 137.5 c 128,-1,27
 675 172 675 172 685.5 234.5 c 128,-1,28
 696 297 696 297 681 380 c 0,29,30
 674 419 674 419 656.5 459 c 128,-1,31
 639 499 639 499 607 538.5 c 128,-1,32
 575 578 575 578 533.5 609 c 128,-1,33
 492 640 492 640 433.5 659 c 128,-1,34
 375 678 375 678 308 678 c 0,35,36
 274 678 274 678 220.5 668.5 c 128,-1,37
 167 659 167 659 146 648 c 0,38,39
 140 648 140 648 133.5 657 c 128,-1,40
 127 666 127 666 125 676 c 0,41,42
 136 1228 136 1228 136 1270 c 1,43,-1
 432 1270 l 2,44,45
 468 1270 468 1270 513 1274.5 c 128,-1,46
 558 1279 558 1279 586 1284 c 2,47,-1
 613 1288 l 2,48,49
 616 1286 616 1286 622 1282.5 c 128,-1,50
 628 1279 628 1279 631 1277.5 c 128,-1,51
 634 1276 634 1276 637 1273 c 128,-1,52
 640 1270 640 1270 641 1266 c 0,53,54
 644 1251 644 1251 634 1201 c 128,-1,55
 624 1151 624 1151 606 1124 c 1,56,57
 496 1112 496 1112 376 1112 c 2,58,-1
 208 1112 l 1,59,60
 207 1072 207 1072 205.5 997 c 128,-1,61
 204 922 204 922 203 862 c 128,-1,62
 202 802 202 802 199 752 c 1,63,64
 236 768 236 768 299 779 c 128,-1,65
 362 790 362 790 405 790 c 0,0,1
EndSplineSet
Substitution2: "'ordn' Ordinals lookup 17 subtable" five.ordn
Substitution2: "'onum' Oldstyle Figures lookup 16 subtable" five.onum
Substitution2: "'pnum' Proportional Numbers lookup 14 subtable" five.prop
EndChar

StartChar: six
Encoding: 21 54 24
Width: 1090
GlyphClass: 2
Flags: W
LayerCount: 4
Fore
SplineSet
218 612 m 1,0,1
 220 556 220 556 234 476 c 0,2,3
 246 406 246 406 274 334 c 128,-1,4
 302 262 302 262 340.5 198 c 128,-1,5
 379 134 379 134 433 94 c 128,-1,6
 487 54 487 54 544 54 c 0,7,8
 639 54 639 54 686 143.5 c 128,-1,9
 733 233 733 233 709 368 c 0,10,11
 693 457 693 457 656 528 c 128,-1,12
 619 599 619 599 552.5 645.5 c 128,-1,13
 486 692 486 692 400 692 c 0,14,15
 277 692 277 692 218 612 c 1,0,1
439 790 m 0,16,17
 519 790 519 790 588.5 763.5 c 128,-1,18
 658 737 658 737 705 696.5 c 128,-1,19
 752 656 752 656 788.5 603.5 c 128,-1,20
 825 551 825 551 844.5 501.5 c 128,-1,21
 864 452 864 452 872 406 c 0,22,23
 902 236 902 236 805.5 112 c 128,-1,24
 709 -12 709 -12 540 -12 c 0,25,26
 453 -12 453 -12 370.5 28 c 128,-1,27
 288 68 288 68 227.5 133 c 128,-1,28
 167 198 167 198 125 278 c 128,-1,29
 83 358 83 358 68 440 c 0,30,31
 41 594 41 594 66 730.5 c 128,-1,32
 91 867 91 867 167 970 c 0,33,34
 249 1082 249 1082 384 1170.5 c 128,-1,35
 519 1259 519 1259 646 1294 c 0,36,37
 658 1294 658 1294 667.5 1272.5 c 128,-1,38
 677 1251 677 1251 680 1236 c 1,39,40
 249 1089 249 1089 219 700 c 1,41,42
 262 742 262 742 323.5 766 c 128,-1,43
 385 790 385 790 439 790 c 0,16,17
EndSplineSet
Substitution2: "'ordn' Ordinals lookup 17 subtable" six.ordn
Substitution2: "'onum' Oldstyle Figures lookup 16 subtable" six.onum
Substitution2: "'pnum' Proportional Numbers lookup 14 subtable" six.prop
EndChar

StartChar: seven
Encoding: 22 55 25
Width: 1090
GlyphClass: 2
Flags: W
LayerCount: 4
Fore
SplineSet
593 1266 m 2,0,1
 624 1266 624 1266 675.5 1269 c 128,-1,2
 727 1272 727 1272 728 1272 c 0,3,4
 740 1272 740 1272 743 1254 c 0,5,6
 745 1245 745 1245 742 1229 c 128,-1,7
 739 1213 739 1213 735 1199 c 128,-1,8
 731 1185 731 1185 723 1159.5 c 128,-1,9
 715 1134 715 1134 711 1120 c 2,10,-1
 381 -4 l 2,11,12
 376 -10 376 -10 362 -10 c 0,13,14
 337 -10 337 -10 303.5 1.5 c 128,-1,15
 270 13 270 13 267 26 c 1,16,17
 334 165 334 165 428 438.5 c 128,-1,18
 522 712 522 712 582 916 c 2,19,-1
 643 1120 l 1,20,-1
 135 1120 l 2,21,22
 77 1120 77 1120 51.5 1084.5 c 128,-1,23
 26 1049 26 1049 18 966 c 0,24,25
 18 954 18 954 -4 954 c 0,26,27
 -28 954 -28 954 -46 966 c 1,28,29
 -20 1157 -20 1157 -15 1266 c 1,30,-1
 593 1266 l 2,0,1
EndSplineSet
Substitution2: "'ordn' Ordinals lookup 17 subtable" seven.ordn
Substitution2: "'onum' Oldstyle Figures lookup 16 subtable" seven.onum
Substitution2: "'pnum' Proportional Numbers lookup 14 subtable" seven.prop
EndChar

StartChar: eight
Encoding: 23 56 26
Width: 1090
GlyphClass: 2
Flags: W
LayerCount: 4
Fore
SplineSet
534 54 m 0,0,1
 633 54 633 54 681 114 c 128,-1,2
 729 174 729 174 711 276 c 0,3,4
 703 323 703 323 669.5 371.5 c 128,-1,5
 636 420 636 420 599 453.5 c 128,-1,6
 562 487 562 487 513 520.5 c 128,-1,7
 464 554 464 554 442 567 c 128,-1,8
 420 580 420 580 400 590 c 0,9,10
 391 594 391 594 387 594 c 0,11,12
 381 594 381 594 380 592 c 0,13,14
 306 539 306 539 280 474 c 128,-1,15
 254 409 254 409 271 314 c 0,16,17
 292 197 292 197 370.5 125.5 c 128,-1,18
 449 54 449 54 534 54 c 0,0,1
330 1216 m 0,19,20
 258 1216 258 1216 219.5 1151 c 128,-1,21
 181 1086 181 1086 196 996 c 0,22,23
 205 944 205 944 231.5 900.5 c 128,-1,24
 258 857 258 857 299.5 824 c 128,-1,25
 341 791 341 791 370 773.5 c 128,-1,26
 399 756 399 756 442 733 c 0,27,28
 449 730 449 730 452 728 c 0,29,30
 461 724 461 724 464 724 c 0,31,32
 470 724 470 724 476 728 c 0,33,34
 596 818 596 818 569 972 c 0,35,36
 553 1065 553 1065 484.5 1140.5 c 128,-1,37
 416 1216 416 1216 330 1216 c 0,19,20
329 1286 m 0,38,39
 468 1286 468 1286 576.5 1206.5 c 128,-1,40
 685 1127 685 1127 709 992 c 0,41,42
 719 937 719 937 707 888.5 c 128,-1,43
 695 840 695 840 663 801.5 c 128,-1,44
 631 763 631 763 605 739.5 c 128,-1,45
 579 716 579 716 539 688 c 1,46,47
 527 685 527 685 541 676 c 0,48,49
 656 617 656 617 751 525 c 128,-1,50
 846 433 846 433 863 334 c 0,51,52
 889 187 889 187 792.5 84.5 c 128,-1,53
 696 -18 696 -18 543 -18 c 0,54,55
 378 -18 378 -18 258.5 72.5 c 128,-1,56
 139 163 139 163 114 308 c 0,57,58
 109 334 109 334 110.5 359 c 128,-1,59
 112 384 112 384 115.5 404.5 c 128,-1,60
 119 425 119 425 131 447.5 c 128,-1,61
 143 470 143 470 151 485 c 128,-1,62
 159 500 159 500 178 520 c 128,-1,63
 197 540 197 540 205.5 549.5 c 128,-1,64
 214 559 214 559 236 576.5 c 128,-1,65
 258 594 258 594 264 599 c 128,-1,66
 270 604 270 604 292.5 620 c 128,-1,67
 315 636 315 636 316 636 c 0,68,69
 325 643 325 643 314 648 c 0,70,71
 228 695 228 695 150 777.5 c 128,-1,72
 72 860 72 860 55 960 c 0,73,74
 32 1088 32 1088 114.5 1187 c 128,-1,75
 197 1286 197 1286 329 1286 c 0,38,39
EndSplineSet
Substitution2: "'ordn' Ordinals lookup 17 subtable" eight.ordn
Substitution2: "'onum' Oldstyle Figures lookup 16 subtable" eight.onum
Substitution2: "'pnum' Proportional Numbers lookup 14 subtable" eight.prop
EndChar

StartChar: nine
Encoding: 24 57 27
Width: 1090
GlyphClass: 2
Flags: W
LayerCount: 4
Fore
SplineSet
646 670 m 1,0,1
 644 726 644 726 630 806 c 0,2,3
 618 876 618 876 590 948 c 128,-1,4
 562 1020 562 1020 523.5 1084 c 128,-1,5
 485 1148 485 1148 430.5 1188 c 128,-1,6
 376 1228 376 1228 319 1228 c 0,7,8
 225 1228 225 1228 179 1138.5 c 128,-1,9
 133 1049 133 1049 157 914 c 0,10,11
 173 824 173 824 209.5 753.5 c 128,-1,12
 246 683 246 683 312 636.5 c 128,-1,13
 378 590 378 590 464 590 c 0,14,15
 587 590 587 590 646 670 c 1,0,1
184 46 m 1,16,17
 615 193 615 193 645 582 c 1,18,19
 602 540 602 540 540.5 516 c 128,-1,20
 479 492 479 492 425 492 c 0,21,22
 345 492 345 492 275.5 518.5 c 128,-1,23
 206 545 206 545 159.5 585.5 c 128,-1,24
 113 626 113 626 76.5 679 c 128,-1,25
 40 732 40 732 21 780.5 c 128,-1,26
 2 829 2 829 -6 876 c 0,27,28
 -36 1046 -36 1046 59.5 1170 c 128,-1,29
 155 1294 155 1294 324 1294 c 0,30,31
 411 1294 411 1294 493.5 1254 c 128,-1,32
 576 1214 576 1214 636.5 1149 c 128,-1,33
 697 1084 697 1084 739 1004 c 128,-1,34
 781 924 781 924 796 842 c 0,35,36
 823 688 823 688 798 551.5 c 128,-1,37
 773 415 773 415 697 312 c 0,38,39
 615 200 615 200 480 111.5 c 128,-1,40
 345 23 345 23 218 -12 c 0,41,42
 206 -12 206 -12 196.5 9.5 c 128,-1,43
 187 31 187 31 184 46 c 1,16,17
EndSplineSet
Substitution2: "'onum' Oldstyle Figures lookup 16 subtable" nine.onum
Substitution2: "'pnum' Proportional Numbers lookup 14 subtable" nine.prop
EndChar

StartChar: less
Encoding: 27 60 30
Width: 984
GlyphClass: 2
Flags: W
LayerCount: 4
Fore
SplineSet
876 70 m 0,0,1
 878 56 878 56 873.5 13 c 128,-1,2
 869 -30 869 -30 861 -30 c 0,3,4
 859 -30 859 -30 851 -26 c 2,5,-1
 34 354 l 2,6,7
 -5 373 -5 373 -17 434 c 0,8,9
 -22 464 -22 464 11 482 c 2,10,-1
 683 856 l 2,11,12
 690 860 690 860 692 860 c 0,13,14
 708 860 708 860 743 766 c 0,15,16
 745 761 745 761 744 756.5 c 128,-1,17
 743 752 743 752 742 750 c 2,18,-1
 740 748 l 1,19,-1
 146 418 l 1,20,-1
 868 82 l 2,21,22
 874 80 874 80 876 70 c 0,0,1
EndSplineSet
Substitution2: "'smcp' Lowercase to Small Capitals lookup 12 subtable" less.sc
EndChar

StartChar: equal
Encoding: 28 61 31
Width: 1130
GlyphClass: 2
Flags: W
LayerCount: 4
Fore
SplineSet
915 240 m 1,0,1
 103 240 l 1,2,3
 92 244 92 244 89.5 266.5 c 128,-1,4
 87 289 87 289 95 317 c 128,-1,5
 103 345 103 345 115 350 c 1,6,-1
 921 350 l 1,7,8
 934 346 934 346 937.5 324.5 c 128,-1,9
 941 303 941 303 934 275 c 128,-1,10
 927 247 927 247 915 240 c 1,0,1
864 528 m 1,11,-1
 52 528 l 1,12,13
 41 532 41 532 38.5 554.5 c 128,-1,14
 36 577 36 577 44 605 c 128,-1,15
 52 633 52 633 65 638 c 1,16,-1
 871 638 l 1,17,18
 884 634 884 634 887 612.5 c 128,-1,19
 890 591 890 591 883 563 c 128,-1,20
 876 535 876 535 864 528 c 1,11,-1
EndSplineSet
Substitution2: "'smcp' Lowercase to Small Capitals lookup 12 subtable" equal.sc
EndChar

StartChar: greater
Encoding: 29 62 32
Width: 986
GlyphClass: 2
Flags: W
LayerCount: 4
Fore
SplineSet
84 70 m 0,0,1
 83 74 83 74 84 77 c 128,-1,2
 85 80 85 80 86 81 c 2,3,-1
 88 82 l 1,4,-1
 690 418 l 1,5,-1
 -18 748 l 2,6,7
 -24 750 -24 750 -27 764 c 0,8,9
 -31 789 -31 789 -25 824.5 c 128,-1,10
 -19 860 -19 860 -12 860 c 0,11,12
 -10 860 -10 860 -1 856 c 2,13,-1
 805 482 l 2,14,15
 842 465 842 465 847 434 c 0,16,17
 858 372 858 372 828 354 c 2,18,-1
 145 -26 l 2,19,20
 138 -30 138 -30 135 -30 c 0,21,22
 127 -30 127 -30 107 12.5 c 128,-1,23
 87 55 87 55 84 70 c 0,0,1
EndSplineSet
Substitution2: "'smcp' Lowercase to Small Capitals lookup 12 subtable" greater.sc
EndChar

StartChar: question
Encoding: 30 63 33
Width: 712
GlyphClass: 2
Flags: W
LayerCount: 4
Fore
SplineSet
7 1096 m 0
 -20 1096 -20 1096 -55.5 1124 c 0
 -91 1152 -91 1152 -99 1196 c 0
 -108 1245 -108 1245 -94 1270 c 1
 -68 1284 -68 1284 -0 1284 c 0
 41 1284 41 1284 94.5 1268.5 c 0
 148 1253 148 1253 206.5 1221 c 0
 265 1189 265 1189 317.5 1146 c 0
 370 1103 370 1103 408.5 1042 c 0
 447 981 447 981 459 914 c 0
 477 811 477 811 444 741.5 c 0
 411 672 411 672 311 608 c 0
 273 583 273 583 228 541.5 c 0
 183 500 183 500 177 484 c 0
 173 473 173 473 173 453.5 c 0
 173 434 173 434 175 420.5 c 0
 177 407 177 407 182.5 379 c 0
 188 351 188 351 189 344 c 0
 181 320 181 320 162 318 c 1
 142 326 142 326 132 340 c 0
 104 407 104 407 84 522 c 0
 77 562 77 562 81.5 596.5 c 0
 86 631 86 631 94.5 653 c 0
 103 675 103 675 124 698 c 0
 145 721 145 721 158.5 732 c 0
 172 743 172 743 198 761 c 0
 207 767 207 767 210 770 c 0
 246 796 246 796 261 807 c 0
 276 818 276 818 300.5 840.5 c 0
 325 863 325 863 333.5 879.5 c 0
 342 896 342 896 347.5 921 c 0
 353 946 353 946 348 974 c 0
 335 1049 335 1049 283 1093.5 c 0
 231 1138 231 1138 171 1138 c 0
 111 1138 111 1138 68.5 1117 c 0
 26 1096 26 1096 7 1096 c 0
EndSplineSet
Refer: 16 46 S 1 0 0 1 30 0 2
Substitution2: "'smcp' Lowercase to Small Capitals lookup 12 subtable" question.sc
EndChar

StartChar: at
Encoding: 31 64 34
Width: 1496
GlyphClass: 2
Flags: W
LayerCount: 4
Fore
SplineSet
632 1156 m 0,0,1
 746 1156 746 1156 849 1122 c 128,-1,2
 952 1088 952 1088 1031 1029 c 128,-1,3
 1110 970 1110 970 1172.5 891.5 c 128,-1,4
 1235 813 1235 813 1273.5 724 c 128,-1,5
 1312 635 1312 635 1329 540 c 0,6,7
 1356 389 1356 389 1324.5 262 c 128,-1,8
 1293 135 1293 135 1211 60.5 c 128,-1,9
 1129 -14 1129 -14 1014 -14 c 0,10,11
 937 -14 937 -14 885.5 28 c 128,-1,12
 834 70 834 70 818 158 c 0,13,14
 808 213 808 213 816 250 c 1,15,16
 805 218 805 218 784 177.5 c 128,-1,17
 763 137 763 137 732.5 93 c 128,-1,18
 702 49 702 49 661.5 19.5 c 128,-1,19
 621 -10 621 -10 580 -10 c 0,20,21
 491 -10 491 -10 426.5 69 c 128,-1,22
 362 148 362 148 342 260 c 0,23,24
 323 367 323 367 355 478 c 128,-1,25
 387 589 387 589 452 675 c 128,-1,26
 517 761 517 761 612 815.5 c 128,-1,27
 707 870 707 870 807 870 c 0,28,29
 882 870 882 870 957 844 c 1,30,-1
 947 212 l 2,31,32
 945 188 945 188 949 162 c 0,33,34
 957 116 957 116 987.5 94 c 128,-1,35
 1018 72 1018 72 1061 72 c 0,36,37
 1108 72 1108 72 1150 109.5 c 128,-1,38
 1192 147 1192 147 1219.5 208.5 c 128,-1,39
 1247 270 1247 270 1256.5 356.5 c 128,-1,40
 1266 443 1266 443 1250 534 c 0,41,42
 1235 617 1235 617 1202.5 694.5 c 128,-1,43
 1170 772 1170 772 1116.5 841.5 c 128,-1,44
 1063 911 1063 911 995.5 963 c 128,-1,45
 928 1015 928 1015 837.5 1045.5 c 128,-1,46
 747 1076 747 1076 646 1076 c 0,47,48
 527 1076 527 1076 428.5 1033 c 128,-1,49
 330 990 330 990 265.5 917 c 128,-1,50
 201 844 201 844 160.5 749.5 c 128,-1,51
 120 655 120 655 110 550 c 128,-1,52
 100 445 100 445 118 340 c 0,53,54
 147 173 147 173 246 42 c 128,-1,55
 345 -89 345 -89 472 -156 c 0,56,57
 556 -200 556 -200 631 -212 c 1,58,59
 633 -223 633 -223 609 -235.5 c 128,-1,60
 585 -248 585 -248 566 -248 c 0,61,62
 519 -248 519 -248 486 -236 c 0,63,64
 333 -183 333 -183 203.5 -23.5 c 128,-1,65
 74 136 74 136 38 340 c 0,66,67
 17 458 17 458 28 575 c 128,-1,68
 39 692 39 692 84 796.5 c 128,-1,69
 129 901 129 901 202 981.5 c 128,-1,70
 275 1062 275 1062 386 1109 c 128,-1,71
 497 1156 497 1156 632 1156 c 0,0,1
739 778 m 0,72,73
 683 778 683 778 629 735.5 c 128,-1,74
 575 693 575 693 537.5 626.5 c 128,-1,75
 500 560 500 560 484 473 c 128,-1,76
 468 386 468 386 483 302 c 0,77,78
 518 106 518 106 619 106 c 0,79,80
 667 106 667 106 714 176.5 c 128,-1,81
 761 247 761 247 790 349.5 c 128,-1,82
 819 452 819 452 821 548 c 2,83,-1
 825 752 l 1,84,85
 798 778 798 778 739 778 c 0,72,73
EndSplineSet
Substitution2: "'smcp' Lowercase to Small Capitals lookup 12 subtable" at.sc
EndChar

StartChar: A
Encoding: 32 65 35
Width: 1254
GlyphClass: 2
Flags: W
LayerCount: 4
Fore
SplineSet
141 278 m 0,0,1
 285 957 285 957 352 1268 c 0,2,3
 357 1283 357 1283 381 1304.5 c 128,-1,4
 405 1326 405 1326 418 1326 c 0,5,6
 421 1326 421 1326 425 1323.5 c 128,-1,7
 429 1321 429 1321 431 1320 c 2,8,-1
 1027 252 l 2,9,10
 1100 123 1100 123 1101 120 c 0,11,12
 1119 89 1119 89 1172 70.5 c 128,-1,13
 1225 52 1225 52 1249 52 c 1,14,15
 1257 43 1257 43 1260.5 22.5 c 128,-1,16
 1264 2 1264 2 1263 -6 c 1,17,18
 1061 4 1061 4 1041 4 c 0,19,20
 1000 4 1000 4 965 2.5 c 128,-1,21
 930 1 930 1 886.5 -2 c 128,-1,22
 843 -5 843 -5 811 -6 c 1,23,24
 803 2 803 2 799.5 23 c 128,-1,25
 796 44 796 44 803 52 c 1,26,27
 826 52 826 52 863 59.5 c 128,-1,28
 900 67 900 67 910 78 c 0,29,30
 917 86 917 86 913 106 c 0,31,32
 908 133 908 133 857 230.5 c 128,-1,33
 806 328 806 328 757 412 c 2,34,-1
 709 496 l 2,35,36
 702 504 702 504 695 504 c 0,37,38
 669 506 669 506 497 506 c 0,39,40
 371 506 371 506 282 500 c 1,41,-1
 273 494 l 1,42,43
 243 346 243 346 226 250 c 0,44,45
 212 168 212 168 223 108 c 0,46,47
 226 91 226 91 246.5 79 c 128,-1,48
 267 67 267 67 294.5 61.5 c 128,-1,49
 322 56 322 56 341.5 54 c 128,-1,50
 361 52 361 52 371 52 c 1,51,52
 376 48 376 48 381 25.5 c 128,-1,53
 386 3 386 3 385 -6 c 1,54,55
 356 -5 356 -5 321.5 -2 c 128,-1,56
 287 1 287 1 257.5 2.5 c 128,-1,57
 228 4 228 4 189 4 c 0,58,59
 148 4 148 4 117 2.5 c 128,-1,60
 86 1 86 1 48.5 -2 c 128,-1,61
 11 -5 11 -5 -23 -6 c 1,62,63
 -28 -2 -28 -2 -31.5 20 c 128,-1,64
 -35 42 -35 42 -33 52 c 1,65,66
 -8 52 -8 52 31 62.5 c 128,-1,67
 70 73 70 73 80 90 c 0,68,69
 112 145 112 145 141 278 c 0,0,1
391 1084 m 1,70,-1
 293 596 l 2,71,72
 294 588 294 588 298 588 c 0,73,74
 403 584 403 584 481 584 c 0,75,76
 556 584 556 584 648 590 c 0,77,78
 650 590 650 590 651 592.5 c 128,-1,79
 652 595 652 595 653 598 c 2,80,-1
 652 600 l 1,81,-1
 391 1084 l 1,70,-1
EndSplineSet
EndChar

StartChar: B
Encoding: 33 66 36
Width: 1192
GlyphClass: 2
Flags: W
LayerCount: 4
Fore
SplineSet
296 664 m 1,0,-1
 372 230 l 2,1,2
 373 225 373 225 374 220 c 0,3,4
 379 193 379 193 390 152 c 0,5,6
 404 103 404 103 414 94 c 0,7,8
 439 72 439 72 477 65 c 128,-1,9
 515 58 515 58 579 58 c 0,10,11
 897 58 897 58 845 352 c 0,12,13
 790 664 790 664 418 664 c 2,14,-1
 296 664 l 1,0,-1
283 740 m 1,15,-1
 450 740 l 2,16,17
 575 740 575 740 625.5 809 c 128,-1,18
 676 878 676 878 659 974 c 0,19,20
 636 1106 636 1106 539.5 1180 c 128,-1,21
 443 1254 443 1254 302 1254 c 0,22,23
 211 1254 211 1254 205 1234 c 0,24,25
 199 1209 199 1209 216 1117 c 0,26,27
 219 1101 219 1101 222 1084 c 2,28,-1
 283 740 l 1,15,-1
379 1318 m 0,29,30
 437 1318 437 1318 492.5 1309 c 128,-1,31
 548 1300 548 1300 605.5 1278.5 c 128,-1,32
 663 1257 663 1257 708.5 1224 c 128,-1,33
 754 1191 754 1191 788 1138.5 c 128,-1,34
 822 1086 822 1086 833 1020 c 0,35,36
 851 917 851 917 798 836 c 128,-1,37
 745 755 745 755 682 730 c 0,38,39
 674 726 674 726 684 720 c 1,40,41
 723 718 723 718 776.5 695 c 128,-1,42
 830 672 830 672 883 632.5 c 128,-1,43
 936 593 936 593 979 530.5 c 128,-1,44
 1022 468 1022 468 1035 398 c 0,45,46
 1067 215 1067 215 952 102 c 0,47,48
 845 -2 845 -2 552 -6 c 1,49,-1
 92 -6 l 1,50,51
 84 2 84 2 80.5 23 c 128,-1,52
 77 44 77 44 82 52 c 1,53,54
 112 52 112 52 162.5 61 c 128,-1,55
 213 70 213 70 214 84 c 0,56,57
 218 116 218 116 198 232 c 2,58,-1
 48 1086 l 2,59,60
 28 1202 28 1202 11 1234 c 0,61,62
 5 1248 5 1248 -48.5 1257 c 128,-1,63
 -102 1266 -102 1266 -132 1266 c 1,64,65
 -139 1274 -139 1274 -143.5 1295 c 128,-1,66
 -148 1316 -148 1316 -142 1324 c 1,67,68
 65 1314 65 1314 95 1314 c 0,69,70
 129 1314 129 1314 222 1316 c 128,-1,71
 315 1318 315 1318 379 1318 c 0,29,30
EndSplineSet
EndChar

StartChar: C
Encoding: 34 67 37
Width: 1348
GlyphClass: 2
Flags: W
LayerCount: 4
Fore
SplineSet
537 1334 m 0,0,1
 767 1334 767 1334 968 1292 c 1,2,3
 1063 1016 1063 1016 1066 996 c 0,4,5
 1069 987 1069 987 1055.5 978.5 c 128,-1,6
 1042 970 1042 970 1027 970 c 128,-1,7
 1012 970 1012 970 1002 976 c 1,8,9
 894 1268 894 1268 558 1268 c 0,10,11
 416 1268 416 1268 317.5 1180 c 128,-1,12
 219 1092 219 1092 183.5 960 c 128,-1,13
 148 828 148 828 173 686 c 0,14,15
 190 591 190 591 226.5 500.5 c 128,-1,16
 263 410 263 410 319.5 329 c 128,-1,17
 376 248 376 248 447.5 187 c 128,-1,18
 519 126 519 126 611 90 c 128,-1,19
 703 54 703 54 804 54 c 0,20,21
 959 54 959 54 1052 150 c 0,22,23
 1128 231 1128 231 1133 382 c 1,24,25
 1138 382 1138 382 1142 382 c 0,26,27
 1172 382 1172 382 1199 366 c 1,28,29
 1206 328 1206 328 1201 211 c 128,-1,30
 1196 94 1196 94 1180 78 c 1,31,32
 1036 -12 1036 -12 766 -12 c 0,33,34
 621 -12 621 -12 485.5 41 c 128,-1,35
 350 94 350 94 248.5 183 c 128,-1,36
 147 272 147 272 76.5 392 c 128,-1,37
 6 512 6 512 -18 644 c 0,38,39
 -43 783 -43 783 -14 909.5 c 128,-1,40
 15 1036 15 1036 86.5 1129.5 c 128,-1,41
 158 1223 158 1223 275.5 1278.5 c 128,-1,42
 393 1334 393 1334 537 1334 c 0,0,1
EndSplineSet
EndChar

StartChar: D
Encoding: 35 68 38
Width: 1420
GlyphClass: 2
Flags: W
LayerCount: 4
Fore
SplineSet
224 1082 m 2,0,-1
 374 230 l 2,1,2
 397 100 397 100 412 86 c 0,3,4
 437 58 437 58 581 58 c 0,5,6
 690 58 690 58 778 92.5 c 128,-1,7
 866 127 866 127 928 195 c 128,-1,8
 990 263 990 263 1013 373.5 c 128,-1,9
 1036 484 1036 484 1011 626 c 0,10,11
 988 758 988 758 938.5 864.5 c 128,-1,12
 889 971 889 971 824.5 1042 c 128,-1,13
 760 1113 760 1113 679.5 1161 c 128,-1,14
 599 1209 599 1209 515 1230.5 c 128,-1,15
 431 1252 431 1252 342 1252 c 0,16,17
 211 1252 211 1252 208 1230 c 0,18,19
 204 1197 204 1197 219 1112 c 0,20,21
 221 1098 221 1098 224 1082 c 2,0,-1
385 1316 m 0,22,23
 546 1316 546 1316 687.5 1266.5 c 128,-1,24
 829 1217 829 1217 933.5 1130.5 c 128,-1,25
 1038 1044 1038 1044 1107.5 925 c 128,-1,26
 1177 806 1177 806 1201 668 c 0,27,28
 1220 561 1220 561 1215.5 467 c 128,-1,29
 1211 373 1211 373 1174 284.5 c 128,-1,30
 1137 196 1137 196 1068 133 c 128,-1,31
 999 70 999 70 877.5 32 c 128,-1,32
 756 -6 756 -6 592 -6 c 2,33,-1
 92 -6 l 1,34,35
 84 2 84 2 80.5 23 c 128,-1,36
 77 44 77 44 82 52 c 1,37,38
 112 52 112 52 162.5 61 c 128,-1,39
 213 70 213 70 214 84 c 0,40,41
 218 116 218 116 198 232 c 2,42,-1
 48 1086 l 2,43,44
 28 1202 28 1202 11 1234 c 0,45,46
 5 1248 5 1248 -48.5 1257 c 128,-1,47
 -102 1266 -102 1266 -132 1266 c 1,48,49
 -139 1274 -139 1274 -143.5 1295 c 128,-1,50
 -148 1316 -148 1316 -142 1324 c 1,51,52
 65 1314 65 1314 95 1314 c 0,53,54
 133 1314 133 1314 236.5 1315 c 128,-1,55
 340 1316 340 1316 385 1316 c 0,22,23
EndSplineSet
EndChar

StartChar: E
Encoding: 36 69 39
Width: 1174
GlyphClass: 2
Flags: W
LayerCount: 4
Fore
SplineSet
95 1314 m 0,0,1
 185 1314 185 1314 404.5 1321 c 128,-1,2
 624 1328 624 1328 737 1328 c 1,3,4
 755 1270 755 1270 794.5 1175 c 128,-1,5
 834 1080 834 1080 843 1056 c 1,6,7
 835 1046 835 1046 809 1046 c 0,8,9
 784 1046 784 1046 778 1060 c 0,10,11
 727 1171 727 1171 665 1209.5 c 128,-1,12
 603 1248 603 1248 513 1248 c 2,13,-1
 341 1248 l 2,14,15
 210 1248 210 1248 207 1226 c 0,16,17
 203 1193 203 1193 217 1112 c 0,18,19
 219 1099 219 1099 222 1084 c 2,20,-1
 288 710 l 2,21,22
 288 703 288 703 312.5 700.5 c 128,-1,23
 337 698 337 698 376 698 c 2,24,-1
 482 698 l 2,25,26
 532 698 532 698 560 699 c 128,-1,27
 588 700 588 700 611.5 705 c 128,-1,28
 635 710 635 710 644.5 718 c 128,-1,29
 654 726 654 726 661.5 740.5 c 128,-1,30
 669 755 669 755 671 775 c 128,-1,31
 673 795 673 795 676 825 c 0,32,33
 676 836 676 836 677 842 c 0,34,35
 678 856 678 856 704 856 c 0,36,37
 728 856 728 856 740 846 c 1,38,-1
 806 468 l 1,39,40
 799 460 799 460 776 460 c 0,41,42
 750 460 750 460 741 476 c 0,43,44
 706 555 706 555 692.5 576.5 c 128,-1,45
 679 598 679 598 662 608 c 0,46,47
 634 624 634 624 447 624 c 2,48,49
 416 624 l 0,50,51
 405 624 405 624 385 623.5 c 128,-1,52
 365 623 365 623 353.5 622 c 128,-1,53
 342 621 342 621 329 619 c 128,-1,54
 316 617 316 617 310.5 613.5 c 128,-1,55
 305 610 305 610 306 606 c 2,56,-1
 373 226 l 2,57,58
 375 216 375 216 377 205 c 0,59,60
 382 177 382 177 389 143 c 0,61,62
 400 95 400 95 409 88 c 0,63,64
 429 74 429 74 456.5 71 c 128,-1,65
 484 68 484 68 555 68 c 2,66,-1
 651 68 l 2,67,68
 723 68 723 68 790 82.5 c 128,-1,69
 857 97 857 97 893 122 c 0,70,71
 931 148 931 148 949.5 194.5 c 128,-1,72
 968 241 968 241 984 324 c 0,73,74
 985 336 985 336 1010 336 c 0,75,76
 1048 336 1048 336 1062 324 c 1,77,78
 1058 298 1058 298 1047 241 c 128,-1,79
 1036 184 1036 184 1029.5 148.5 c 128,-1,80
 1023 113 1023 113 1017.5 68 c 128,-1,81
 1012 23 1012 23 1012 -8 c 1,82,83
 909 -8 909 -8 688.5 -4 c 128,-1,84
 468 0 468 0 329 0 c 0,85,86
 280 0 280 0 204.5 -3 c 128,-1,87
 129 -6 129 -6 92 -6 c 1,88,89
 84 2 84 2 80.5 23 c 128,-1,90
 77 44 77 44 82 52 c 1,91,92
 112 52 112 52 162.5 61 c 128,-1,93
 213 70 213 70 214 84 c 0,94,95
 218 116 218 116 198 232 c 2,96,-1
 48 1086 l 2,97,98
 28 1202 28 1202 11 1234 c 0,99,100
 5 1248 5 1248 -48.5 1257 c 128,-1,101
 -102 1266 -102 1266 -132 1266 c 1,102,103
 -139 1274 -139 1274 -143.5 1295 c 128,-1,104
 -148 1316 -148 1316 -142 1324 c 1,105,106
 64 1314 64 1314 95 1314 c 0,0,1
EndSplineSet
EndChar

StartChar: F
Encoding: 37 70 40
Width: 1070
GlyphClass: 2
Flags: W
LayerCount: 4
Fore
SplineSet
95 1314 m 0,0,1
 185 1314 185 1314 404.5 1321 c 128,-1,2
 624 1328 624 1328 737 1328 c 1,3,4
 755 1270 755 1270 794.5 1175 c 128,-1,5
 834 1080 834 1080 843 1056 c 1,6,7
 835 1046 835 1046 809 1046 c 0,8,9
 784 1046 784 1046 778 1060 c 0,10,11
 727 1171 727 1171 665 1209.5 c 128,-1,12
 603 1248 603 1248 513 1248 c 2,13,-1
 341 1248 l 2,14,15
 210 1248 210 1248 207 1226 c 0,16,17
 203 1194 203 1194 222 1084 c 2,18,-1
 288 710 l 2,19,20
 288 703 288 703 312.5 700.5 c 128,-1,21
 337 698 337 698 376 698 c 2,22,-1
 482 698 l 2,23,24
 532 698 532 698 560 699 c 128,-1,25
 588 700 588 700 611.5 705 c 128,-1,26
 635 710 635 710 644.5 718 c 128,-1,27
 654 726 654 726 661.5 740.5 c 128,-1,28
 669 755 669 755 671 775 c 128,-1,29
 673 795 673 795 676 825 c 0,30,31
 676 836 676 836 677 842 c 0,32,33
 678 856 678 856 704 856 c 0,34,35
 728 856 728 856 740 846 c 1,36,-1
 806 468 l 1,37,38
 799 460 799 460 776 460 c 0,39,40
 750 460 750 460 741 476 c 0,41,42
 706 555 706 555 692.5 576.5 c 128,-1,43
 679 598 679 598 662 608 c 0,44,45
 634 624 634 624 447 624 c 0,46,47
 303 624 303 624 306 606 c 2,48,-1
 372 232 l 2,49,50
 392 116 392 116 408 84 c 0,51,52
 414 70 414 70 476.5 61 c 128,-1,53
 539 52 539 52 572 52 c 1,54,55
 579 44 579 44 583.5 23 c 128,-1,56
 588 2 588 2 582 -6 c 1,57,58
 375 4 375 4 326 4 c 128,-1,59
 277 4 277 4 203 -1 c 128,-1,60
 129 -6 129 -6 92 -6 c 1,61,62
 84 2 84 2 80.5 23 c 128,-1,63
 77 44 77 44 82 52 c 1,64,65
 112 52 112 52 162.5 61 c 128,-1,66
 213 70 213 70 214 84 c 0,67,68
 218 116 218 116 198 232 c 2,69,-1
 48 1086 l 2,70,71
 28 1202 28 1202 11 1234 c 0,72,73
 5 1248 5 1248 -48.5 1257 c 128,-1,74
 -102 1266 -102 1266 -132 1266 c 1,75,76
 -139 1274 -139 1274 -143.5 1295 c 128,-1,77
 -148 1316 -148 1316 -142 1324 c 1,78,79
 64 1314 64 1314 95 1314 c 0,0,1
EndSplineSet
EndChar

StartChar: G
Encoding: 38 71 41
Width: 1440
GlyphClass: 2
Flags: W
LayerCount: 4
Fore
SplineSet
1008 350 m 2,0,1
 988 466 988 466 972 498 c 0,2,3
 966 512 966 512 913.5 521 c 128,-1,4
 861 530 861 530 831 530 c 1,5,6
 824 538 824 538 819.5 559 c 128,-1,7
 815 580 815 580 820 588 c 1,8,9
 1027 578 1027 578 1056 578 c 0,10,11
 1075 578 1075 578 1278 588 c 1,12,13
 1286 580 1286 580 1289.5 559 c 128,-1,14
 1293 538 1293 538 1289 530 c 1,15,16
 1260 530 1260 530 1213 521 c 128,-1,17
 1166 512 1166 512 1164 498 c 0,18,19
 1160 466 1160 466 1180 350 c 2,20,-1
 1205 208 l 2,21,22
 1209 184 1209 184 1223.5 159.5 c 128,-1,23
 1238 135 1238 135 1239 128 c 0,24,25
 1241 119 1241 119 1234.5 112 c 128,-1,26
 1228 105 1228 105 1206 92 c 0,27,28
 1152 60 1152 60 1114.5 42.5 c 128,-1,29
 1077 25 1077 25 982.5 6.5 c 128,-1,30
 888 -12 888 -12 766 -12 c 0,31,32
 621 -12 621 -12 485.5 41 c 128,-1,33
 350 94 350 94 248.5 183 c 128,-1,34
 147 272 147 272 76.5 392 c 128,-1,35
 6 512 6 512 -18 644 c 0,36,37
 -43 783 -43 783 -14 909.5 c 128,-1,38
 15 1036 15 1036 86.5 1129.5 c 128,-1,39
 158 1223 158 1223 275.5 1278.5 c 128,-1,40
 393 1334 393 1334 537 1334 c 0,41,42
 767 1334 767 1334 968 1292 c 1,43,44
 1063 1016 1063 1016 1066 996 c 0,45,46
 1069 987 1069 987 1055.5 978.5 c 128,-1,47
 1042 970 1042 970 1027 970 c 128,-1,48
 1012 970 1012 970 1002 976 c 1,49,50
 894 1268 894 1268 558 1268 c 0,51,52
 416 1268 416 1268 317.5 1180 c 128,-1,53
 219 1092 219 1092 183.5 960 c 128,-1,54
 148 828 148 828 173 686 c 0,55,56
 190 591 190 591 226 500.5 c 128,-1,57
 262 410 262 410 318.5 329 c 128,-1,58
 375 248 375 248 446.5 187 c 128,-1,59
 518 126 518 126 610 90 c 128,-1,60
 702 54 702 54 804 54 c 0,61,62
 918 54 918 54 1035 118 c 0,63,64
 1048 125 1048 125 1044 148 c 2,65,-1
 1008 350 l 2,0,1
EndSplineSet
EndChar

StartChar: H
Encoding: 39 72 42
Width: 1452
GlyphClass: 2
Flags: W
LayerCount: 4
Fore
SplineSet
95 1314 m 0,0,1
 124 1314 124 1314 328 1324 c 1,2,3
 336 1316 336 1316 339.5 1292 c 128,-1,4
 343 1268 343 1268 339 1260 c 1,5,6
 309 1260 309 1260 258.5 1251 c 128,-1,7
 208 1242 208 1242 206 1228 c 0,8,9
 202 1196 202 1196 223 1080 c 2,10,-1
 284 730 l 1,11,-1
 289 724 l 1,12,13
 584 718 584 718 604 718 c 0,14,15
 640 718 640 718 909 724 c 0,16,17
 912 728 912 728 912 732 c 2,18,-1
 851 1080 l 2,19,20
 831 1196 831 1196 814 1228 c 0,21,22
 808 1242 808 1242 754.5 1251 c 128,-1,23
 701 1260 701 1260 671 1260 c 1,24,25
 664 1268 664 1268 659 1292 c 128,-1,26
 654 1316 654 1316 660 1324 c 1,27,28
 867 1314 867 1314 897 1314 c 0,29,30
 926 1314 926 1314 1130 1324 c 1,31,32
 1138 1316 1138 1316 1141.5 1292 c 128,-1,33
 1145 1268 1145 1268 1141 1260 c 1,34,35
 1111 1260 1111 1260 1060.5 1251 c 128,-1,36
 1010 1242 1010 1242 1008 1228 c 0,37,38
 1004 1196 1004 1196 1025 1080 c 2,39,-1
 1173 238 l 2,40,41
 1193 122 1193 122 1209 90 c 0,42,43
 1215 76 1215 76 1269 67 c 128,-1,44
 1323 58 1323 58 1353 58 c 1,45,46
 1360 50 1360 50 1365 26 c 128,-1,47
 1370 2 1370 2 1364 -6 c 1,48,49
 1157 4 1157 4 1128 4 c 0,50,51
 1097 4 1097 4 894 -6 c 1,52,53
 886 2 886 2 882 26 c 128,-1,54
 878 50 878 50 883 58 c 1,55,56
 913 58 913 58 963.5 67 c 128,-1,57
 1014 76 1014 76 1015 90 c 0,58,59
 1019 122 1019 122 999 238 c 2,60,-1
 929 634 l 1,61,-1
 924 642 l 1,62,63
 900 643 900 643 787.5 646.5 c 128,-1,64
 675 650 675 650 616 650 c 0,65,66
 324 650 324 650 303 638 c 1,67,-1
 301 634 l 1,68,-1
 371 238 l 2,69,70
 391 122 391 122 407 90 c 0,71,72
 413 76 413 76 467 67 c 128,-1,73
 521 58 521 58 551 58 c 1,74,75
 558 50 558 50 563 26 c 128,-1,76
 568 2 568 2 562 -6 c 1,77,78
 355 4 355 4 326 4 c 0,79,80
 295 4 295 4 92 -6 c 1,81,82
 84 2 84 2 80 26 c 128,-1,83
 76 50 76 50 81 58 c 1,84,85
 111 58 111 58 161.5 67 c 128,-1,86
 212 76 212 76 213 90 c 0,87,88
 217 122 217 122 197 238 c 2,89,-1
 49 1080 l 2,90,91
 29 1196 29 1196 12 1228 c 0,92,93
 6 1242 6 1242 -47.5 1251 c 128,-1,94
 -101 1260 -101 1260 -131 1260 c 1,95,96
 -138 1268 -138 1268 -143 1292 c 128,-1,97
 -148 1316 -148 1316 -142 1324 c 1,98,99
 64 1314 64 1314 95 1314 c 0,0,1
EndSplineSet
EndChar

StartChar: I
Encoding: 40 73 43
Width: 648
GlyphClass: 2
Flags: W
LayerCount: 4
Fore
SplineSet
95 1314 m 0,0,1
 124 1314 124 1314 328 1324 c 1,2,3
 336 1316 336 1316 339 1295 c 128,-1,4
 342 1274 342 1274 338 1266 c 1,5,6
 308 1266 308 1266 257.5 1257 c 128,-1,7
 207 1248 207 1248 205 1234 c 0,8,9
 201 1202 201 1202 222 1086 c 2,10,-1
 372 232 l 2,11,12
 392 116 392 116 408 84 c 0,13,14
 414 70 414 70 468 61 c 128,-1,15
 522 52 522 52 552 52 c 1,16,17
 559 44 559 44 563.5 23 c 128,-1,18
 568 2 568 2 562 -6 c 1,19,20
 355 4 355 4 326 4 c 0,21,22
 295 4 295 4 92 -6 c 1,23,24
 84 2 84 2 80.5 23 c 128,-1,25
 77 44 77 44 82 52 c 1,26,27
 112 52 112 52 162.5 61 c 128,-1,28
 213 70 213 70 214 84 c 0,29,30
 218 116 218 116 198 232 c 2,31,-1
 48 1086 l 2,32,33
 28 1202 28 1202 11 1234 c 0,34,35
 5 1248 5 1248 -48.5 1257 c 128,-1,36
 -102 1266 -102 1266 -132 1266 c 1,37,38
 -139 1274 -139 1274 -143.5 1295 c 128,-1,39
 -148 1316 -148 1316 -142 1324 c 1,40,41
 64 1314 64 1314 95 1314 c 0,0,1
EndSplineSet
EndChar

StartChar: J
Encoding: 41 74 44
Width: 626
GlyphClass: 2
Flags: W
LayerCount: 4
Fore
SplineSet
84 1314 m 0,0,1
 113 1314 113 1314 317 1324 c 1,2,3
 325 1316 325 1316 328 1295 c 128,-1,4
 331 1274 331 1274 327 1266 c 1,5,6
 297 1266 297 1266 246.5 1257 c 128,-1,7
 196 1248 196 1248 194 1234 c 0,8,9
 190 1202 190 1202 211 1086 c 2,10,-1
 359 242 l 2,11,12
 391 59 391 59 381 -77 c 128,-1,13
 371 -213 371 -213 321 -294.5 c 128,-1,14
 271 -376 271 -376 194.5 -415 c 128,-1,15
 118 -454 118 -454 14 -454 c 0,16,17
 -10 -454 -10 -454 -54.5 -442.5 c 128,-1,18
 -99 -431 -99 -431 -118 -418 c 0,19,20
 -137 -402 -137 -402 -142 -372 c 0,21,22
 -151 -323 -151 -323 -131.5 -291.5 c 128,-1,23
 -112 -260 -112 -260 -66 -260 c 0,24,25
 -59 -260 -59 -260 -51.5 -261.5 c 128,-1,26
 -44 -263 -44 -263 -35 -267.5 c 128,-1,27
 -26 -272 -26 -272 -20 -275 c 128,-1,28
 -14 -278 -14 -278 -4 -285 c 128,-1,29
 6 -292 6 -292 10.5 -295 c 128,-1,30
 15 -298 15 -298 26.5 -307 c 128,-1,31
 38 -316 38 -316 40 -318 c 0,32,33
 93 -360 93 -360 137 -360 c 0,34,35
 171 -360 171 -360 192.5 -334.5 c 128,-1,36
 214 -309 214 -309 225 -246.5 c 128,-1,37
 236 -184 236 -184 227 -63.5 c 128,-1,38
 218 57 218 57 187 232 c 2,39,-1
 37 1086 l 2,40,41
 17 1202 17 1202 0 1234 c 0,42,43
 -6 1248 -6 1248 -59.5 1257 c 128,-1,44
 -113 1266 -113 1266 -143 1266 c 1,45,46
 -150 1274 -150 1274 -154.5 1295 c 128,-1,47
 -159 1316 -159 1316 -153 1324 c 1,48,49
 53 1314 53 1314 84 1314 c 0,0,1
EndSplineSet
EndChar

StartChar: K
Encoding: 42 75 45
Width: 1314
GlyphClass: 2
Flags: W
LayerCount: 4
Fore
SplineSet
95 1314 m 0,0,1
 124 1314 124 1314 328 1324 c 1,2,3
 336 1316 336 1316 339.5 1292 c 128,-1,4
 343 1268 343 1268 339 1260 c 1,5,6
 309 1260 309 1260 258.5 1251 c 128,-1,7
 208 1242 208 1242 206 1228 c 0,8,9
 202 1195 202 1195 217 1110 c 0,10,11
 219 1096 219 1096 223 1080 c 2,12,-1
 293 682 l 1,13,14
 339 714 339 714 483 884 c 0,15,16
 579 999 579 999 616.5 1048 c 128,-1,17
 654 1097 654 1097 689 1156 c 0,18,19
 710 1193 710 1193 706 1218 c 0,20,21
 705 1226 705 1226 701 1232.5 c 128,-1,22
 697 1239 697 1239 690 1243.5 c 128,-1,23
 683 1248 683 1248 675.5 1251.5 c 128,-1,24
 668 1255 668 1255 658.5 1257 c 128,-1,25
 649 1259 649 1259 641.5 1260 c 128,-1,26
 634 1261 634 1261 623.5 1261.5 c 128,-1,27
 613 1262 613 1262 607 1262 c 2,28,-1
 595 1262 l 1,29,-1
 586 1262 l 1,30,31
 579 1271 579 1271 576 1290.5 c 128,-1,32
 573 1310 573 1310 576 1324 c 1,33,34
 599 1323 599 1323 648 1319.5 c 128,-1,35
 697 1316 697 1316 736 1314 c 128,-1,36
 775 1312 775 1312 808 1312 c 0,37,38
 860 1312 860 1312 932 1317.5 c 128,-1,39
 1004 1323 1004 1323 1022 1324 c 1,40,41
 1028 1315 1028 1315 1031.5 1288.5 c 128,-1,42
 1035 1262 1035 1262 1028 1262 c 2,43,-1
 1013 1261 l 2,44,45
 997 1260 997 1260 984 1258.5 c 128,-1,46
 971 1257 971 1257 950 1252 c 128,-1,47
 929 1247 929 1247 912 1239.5 c 128,-1,48
 895 1232 895 1232 875.5 1219 c 128,-1,49
 856 1206 856 1206 844 1188 c 0,50,51
 795 1122 795 1122 743 1057.5 c 128,-1,52
 691 993 691 993 658 954 c 128,-1,53
 625 915 625 915 560.5 841 c 128,-1,54
 496 767 496 767 462 728 c 0,55,56
 458 720 458 720 464 712 c 0,57,58
 480 697 480 697 532 646.5 c 128,-1,59
 584 596 584 596 601 580 c 128,-1,60
 618 564 618 564 664 519.5 c 128,-1,61
 710 475 710 475 729.5 456.5 c 128,-1,62
 749 438 749 438 789.5 399.5 c 128,-1,63
 830 361 830 361 852 341 c 128,-1,64
 874 321 874 321 909 289.5 c 128,-1,65
 944 258 944 258 968.5 236.5 c 128,-1,66
 993 215 993 215 1022 190.5 c 128,-1,67
 1051 166 1051 166 1078 144 c 0,68,69
 1128 104 1128 104 1181.5 81 c 128,-1,70
 1235 58 1235 58 1312 52 c 1,71,72
 1320 41 1320 41 1321 20.5 c 128,-1,73
 1322 0 1322 0 1320 -6 c 1,74,75
 1099 -6 1099 -6 1032 16 c 0,76,77
 949 44 949 44 881 102 c 0,78,79
 816 156 816 156 342 608 c 0,80,81
 337 614 337 614 323 614 c 0,82,83
 313 614 313 614 305 610 c 1,84,-1
 371 238 l 2,85,86
 391 122 391 122 407 90 c 0,87,88
 413 76 413 76 467 67 c 128,-1,89
 521 58 521 58 551 58 c 1,90,91
 558 50 558 50 563 26 c 128,-1,92
 568 2 568 2 562 -6 c 1,93,94
 355 4 355 4 326 4 c 0,95,96
 295 4 295 4 92 -6 c 1,97,98
 84 2 84 2 80 26 c 128,-1,99
 76 50 76 50 81 58 c 1,100,101
 111 58 111 58 161.5 67 c 128,-1,102
 212 76 212 76 213 90 c 0,103,104
 217 122 217 122 197 238 c 2,105,-1
 49 1080 l 2,106,107
 29 1196 29 1196 12 1228 c 0,108,109
 6 1242 6 1242 -47.5 1251 c 128,-1,110
 -101 1260 -101 1260 -131 1260 c 1,111,112
 -138 1268 -138 1268 -143 1292 c 128,-1,113
 -148 1316 -148 1316 -142 1324 c 1,114,115
 64 1314 64 1314 95 1314 c 0,0,1
EndSplineSet
EndChar

StartChar: L
Encoding: 43 76 46
Width: 1128
GlyphClass: 2
Flags: W
LayerCount: 4
Fore
SplineSet
372 232 m 2,0,1
 396 98 396 98 409 88 c 0,2,3
 429 74 429 74 456.5 71 c 128,-1,4
 484 68 484 68 555 68 c 2,5,-1
 669 68 l 2,6,7
 732 68 732 68 795.5 81.5 c 128,-1,8
 859 95 859 95 893 122 c 0,9,10
 965 178 965 178 984 324 c 0,11,12
 985 336 985 336 1010 336 c 0,13,14
 1048 336 1048 336 1062 324 c 1,15,16
 1058 298 1058 298 1047 241 c 128,-1,17
 1036 184 1036 184 1029.5 148.5 c 128,-1,18
 1023 113 1023 113 1017.5 68 c 128,-1,19
 1012 23 1012 23 1012 -8 c 1,20,21
 909 -8 909 -8 688.5 -4 c 128,-1,22
 468 0 468 0 329 0 c 0,23,24
 280 0 280 0 204.5 -3 c 128,-1,25
 129 -6 129 -6 92 -6 c 1,26,27
 84 2 84 2 80.5 23 c 128,-1,28
 77 44 77 44 82 52 c 1,29,30
 112 52 112 52 162.5 61 c 128,-1,31
 213 70 213 70 214 84 c 0,32,33
 218 116 218 116 198 232 c 2,34,-1
 48 1086 l 2,35,36
 28 1202 28 1202 11 1234 c 0,37,38
 5 1248 5 1248 -48.5 1257 c 128,-1,39
 -102 1266 -102 1266 -132 1266 c 1,40,41
 -139 1274 -139 1274 -143.5 1295 c 128,-1,42
 -148 1316 -148 1316 -142 1324 c 1,43,44
 65 1314 65 1314 95 1314 c 0,45,46
 124 1314 124 1314 328 1324 c 1,47,48
 336 1316 336 1316 339 1295 c 128,-1,49
 342 1274 342 1274 338 1266 c 1,50,51
 308 1266 308 1266 257.5 1257 c 128,-1,52
 207 1248 207 1248 205 1234 c 0,53,54
 201 1201 201 1201 216 1116 c 0,55,56
 218 1102 218 1102 222 1086 c 2,57,-1
 372 232 l 2,0,1
EndSplineSet
EndChar

StartChar: M
Encoding: 44 77 47
Width: 1814
GlyphClass: 2
Flags: W
LayerCount: 4
Fore
SplineSet
93 1314 m 0,0,1
 145 1314 145 1314 254 1324 c 1,2,3
 281 1270 281 1270 385 1094 c 128,-1,4
 489 918 489 918 634 675.5 c 128,-1,5
 779 433 779 433 860 292 c 0,6,7
 863 288 863 288 868 288 c 0,8,9
 875 288 875 288 877 296 c 0,10,11
 1036 1049 1036 1049 1044 1084 c 2,12,-1
 1090 1324 l 1,13,14
 1219 1316 1219 1316 1249 1316 c 0,15,16
 1373 1316 1373 1316 1472 1324 c 1,17,-1
 1488 1266 l 1,18,19
 1460 1266 1460 1266 1408.5 1254.5 c 128,-1,20
 1357 1243 1357 1243 1352 1230 c 0,21,22
 1346 1208 1346 1208 1356 1154 c 0,23,24
 1369 1093 1369 1093 1399.5 938.5 c 128,-1,25
 1430 784 1430 784 1471 576.5 c 128,-1,26
 1512 369 1512 369 1530 280 c 0,27,28
 1559 140 1559 140 1588 86 c 0,29,30
 1597 68 1597 68 1650 60 c 128,-1,31
 1703 52 1703 52 1734 52 c 1,32,33
 1743 40 1743 40 1746.5 21 c 128,-1,34
 1750 2 1750 2 1748 -6 c 1,35,36
 1546 4 1546 4 1508 4 c 0,37,38
 1467 4 1467 4 1430.5 2.5 c 128,-1,39
 1394 1 1394 1 1347.5 -2 c 128,-1,40
 1301 -5 1301 -5 1270 -6 c 1,41,42
 1265 -2 1265 -2 1261 18.5 c 128,-1,43
 1257 39 1257 39 1260 52 c 1,44,45
 1284 52 1284 52 1328 58.5 c 128,-1,46
 1372 65 1372 65 1386 74 c 0,47,48
 1402 84 1402 84 1389 158 c 0,49,50
 1387 172 1387 172 1377 215.5 c 128,-1,51
 1367 259 1367 259 1365 274 c 0,52,53
 1239 890 1239 890 1188 1130 c 0,54,55
 1186 1141 1186 1141 1179 1155.5 c 128,-1,56
 1172 1170 1172 1170 1163 1170 c 0,57,58
 1159 1170 1159 1170 1155 1156 c 0,59,60
 1129 1042 1129 1042 920 98 c 0,61,62
 914 76 914 76 894.5 37.5 c 128,-1,63
 875 -1 875 -1 862 -4 c 0,64,65
 859 -5 859 -5 843 0 c 1,66,-1
 149 1168 l 1,67,68
 179 976 179 976 216.5 725.5 c 128,-1,69
 254 475 254 475 278 314.5 c 128,-1,70
 302 154 302 154 303 150 c 0,71,72
 310 109 310 109 321 88 c 0,73,74
 332 69 332 69 392 60.5 c 128,-1,75
 452 52 452 52 486 52 c 1,76,77
 494 44 494 44 498 23 c 128,-1,78
 502 2 502 2 500 -6 c 1,79,80
 473 -5 473 -5 432.5 -2 c 128,-1,81
 392 1 392 1 358.5 2.5 c 128,-1,82
 325 4 325 4 286 4 c 0,83,84
 245 4 245 4 210 2.5 c 128,-1,85
 175 1 175 1 130.5 -2 c 128,-1,86
 86 -5 86 -5 54 -6 c 1,87,88
 49 -2 49 -2 45 18.5 c 128,-1,89
 41 39 41 39 44 52 c 1,90,91
 77 52 77 52 133.5 61.5 c 128,-1,92
 190 71 190 71 199 88 c 0,93,94
 215 118 215 118 206 188 c 0,95,96
 102 935 102 935 65 1144 c 0,97,98
 55 1202 55 1202 43 1224 c 0,99,100
 35 1240 35 1240 -21.5 1253 c 128,-1,101
 -78 1266 -78 1266 -104 1266 c 0,102,103
 -107 1266 -107 1266 -112 1293.5 c 128,-1,104
 -117 1321 -117 1321 -114 1324 c 0,105,106
 -79 1322 -79 1322 -43 1319.5 c 128,-1,107
 -7 1317 -7 1317 22.5 1315.5 c 128,-1,108
 52 1314 52 1314 93 1314 c 0,0,1
EndSplineSet
EndChar

StartChar: N
Encoding: 45 78 48
Width: 1552
GlyphClass: 2
Flags: W
LayerCount: 4
Fore
SplineSet
53 1320 m 0,0,1
 149 1320 149 1320 205 1324 c 1,2,3
 269 1246 269 1246 645 868.5 c 128,-1,4
 1021 491 1021 491 1163 332 c 1,5,-1
 1143 448 l 1,6,-1
 1030 1090 l 2,7,8
 1019 1152 1019 1152 1011 1179 c 128,-1,9
 1003 1206 1003 1206 985 1228 c 0,10,11
 975 1242 975 1242 915 1255 c 128,-1,12
 855 1268 855 1268 826 1268 c 1,13,14
 817 1278 817 1278 813.5 1298 c 128,-1,15
 810 1318 810 1318 812 1326 c 1,16,17
 1014 1316 1014 1316 1044 1316 c 0,18,19
 1085 1316 1085 1316 1116 1317.5 c 128,-1,20
 1147 1319 1147 1319 1184.5 1322 c 128,-1,21
 1222 1325 1222 1325 1256 1326 c 1,22,23
 1275 1301 1275 1301 1266 1268 c 1,24,25
 1238 1268 1238 1268 1181 1256 c 128,-1,26
 1124 1244 1124 1244 1117 1228 c 0,27,28
 1108 1207 1108 1207 1109.5 1180 c 128,-1,29
 1111 1153 1111 1153 1121 1092 c 2,30,-1
 1265 278 l 2,31,32
 1295 106 1295 106 1318 2 c 0,33,34
 1318 -10 1318 -10 1294 -10 c 0,35,36
 1283 -10 1283 -10 1260.5 1 c 128,-1,37
 1238 12 1238 12 1216 36 c 2,38,-1
 149 1138 l 1,39,-1
 309 230 l 2,40,41
 320 168 320 168 328 141 c 128,-1,42
 336 114 336 114 354 92 c 0,43,44
 364 78 364 78 423 65 c 128,-1,45
 482 52 482 52 511 52 c 1,46,47
 520 42 520 42 524 22 c 128,-1,48
 528 2 528 2 525 -6 c 1,49,50
 323 4 323 4 295 4 c 0,51,52
 254 4 254 4 223 2.5 c 128,-1,53
 192 1 192 1 154.5 -2 c 128,-1,54
 117 -5 117 -5 83 -6 c 1,55,56
 64 19 64 19 73 52 c 1,57,58
 101 52 101 52 158.5 64 c 128,-1,59
 216 76 216 76 222 92 c 0,60,61
 231 113 231 113 230 140 c 128,-1,62
 229 167 229 167 218 228 c 2,63,-1
 65 1096 l 2,64,65
 54 1157 54 1157 45.5 1184 c 128,-1,66
 37 1211 37 1211 21 1232 c 0,67,68
 9 1248 9 1248 -52.5 1260 c 128,-1,69
 -114 1272 -114 1272 -142 1272 c 1,70,71
 -163 1305 -163 1305 -153 1330 c 1,72,73
 -121 1329 -121 1329 -53 1324.5 c 128,-1,74
 15 1320 15 1320 53 1320 c 0,0,1
EndSplineSet
EndChar

StartChar: O
Encoding: 46 79 49
Width: 1496
GlyphClass: 2
Flags: W
LayerCount: 4
Fore
SplineSet
493 1266 m 0,0,1
 406 1266 406 1266 340.5 1232.5 c 128,-1,2
 275 1199 275 1199 237 1144 c 128,-1,3
 199 1089 199 1089 179 1015 c 128,-1,4
 159 941 159 941 158.5 862 c 128,-1,5
 158 783 158 783 173 700 c 0,6,7
 194 582 194 582 246.5 467 c 128,-1,8
 299 352 299 352 374.5 258 c 128,-1,9
 450 164 450 164 554 106 c 128,-1,10
 658 48 658 48 770 48 c 0,11,12
 857 48 857 48 923 81.5 c 128,-1,13
 989 115 989 115 1026.5 170.5 c 128,-1,14
 1064 226 1064 226 1084.5 300.5 c 128,-1,15
 1105 375 1105 375 1105.5 455 c 128,-1,16
 1106 535 1106 535 1091 618 c 0,17,18
 1070 736 1070 736 1017 850.5 c 128,-1,19
 964 965 964 965 888 1058 c 128,-1,20
 812 1151 812 1151 708.5 1208.5 c 128,-1,21
 605 1266 605 1266 493 1266 c 0,0,1
511 1334 m 0,22,23
 642 1334 642 1334 770 1283.5 c 128,-1,24
 898 1233 898 1233 1002.5 1145 c 128,-1,25
 1107 1057 1107 1057 1182 929.5 c 128,-1,26
 1257 802 1257 802 1282 656 c 0,27,28
 1306 519 1306 519 1276 393.5 c 128,-1,29
 1246 268 1246 268 1173.5 177.5 c 128,-1,30
 1101 87 1101 87 990.5 33.5 c 128,-1,31
 880 -20 880 -20 750 -20 c 0,32,33
 619 -20 619 -20 491.5 30.5 c 128,-1,34
 364 81 364 81 260.5 169 c 128,-1,35
 157 257 157 257 82.5 384 c 128,-1,36
 8 511 8 511 -18 656 c 0,37,38
 -42 794 -42 794 -12 919.5 c 128,-1,39
 18 1045 18 1045 89.5 1135.5 c 128,-1,40
 161 1226 161 1226 271 1280 c 128,-1,41
 381 1334 381 1334 511 1334 c 0,22,23
EndSplineSet
EndChar

StartChar: P
Encoding: 47 80 50
Width: 1096
GlyphClass: 2
Flags: W
LayerCount: 4
Fore
SplineSet
867 958 m 0,0,1
 899 776 899 776 797 666 c 128,-1,2
 695 556 695 556 498 556 c 0,3,4
 444 556 444 556 409 572 c 1,5,6
 378 591 378 591 373 616 c 0,7,8
 373 618 373 618 373.5 620.5 c 128,-1,9
 374 623 374 623 375.5 625 c 128,-1,10
 377 627 377 627 382 626 c 0,11,12
 435 612 435 612 460 612 c 0,13,14
 584 612 584 612 649.5 695 c 128,-1,15
 715 778 715 778 689 924 c 0,16,17
 662 1077 662 1077 562.5 1165.5 c 128,-1,18
 463 1254 463 1254 301 1254 c 0,19,20
 210 1254 210 1254 204 1234 c 0,21,22
 198 1210 198 1210 221 1084 c 2,23,-1
 371 232 l 2,24,25
 391 116 391 116 407 84 c 0,26,27
 413 70 413 70 467 61 c 128,-1,28
 521 52 521 52 551 52 c 1,29,30
 558 44 558 44 562.5 23 c 128,-1,31
 567 2 567 2 561 -6 c 1,32,33
 354 4 354 4 325 4 c 0,34,35
 294 4 294 4 91 -6 c 1,36,37
 83 2 83 2 79.5 23 c 128,-1,38
 76 44 76 44 81 52 c 1,39,40
 111 52 111 52 161.5 61 c 128,-1,41
 212 70 212 70 213 84 c 0,42,43
 217 116 217 116 197 232 c 2,44,-1
 47 1086 l 2,45,46
 27 1202 27 1202 10 1234 c 0,47,48
 4 1248 4 1248 -49.5 1257 c 128,-1,49
 -103 1266 -103 1266 -133 1266 c 1,50,51
 -140 1274 -140 1274 -144.5 1295 c 128,-1,52
 -149 1316 -149 1316 -143 1324 c 1,53,54
 64 1314 64 1314 94 1314 c 0,55,56
 128 1314 128 1314 221 1316 c 128,-1,57
 314 1318 314 1318 378 1318 c 0,58,59
 487 1318 487 1318 589.5 1277.5 c 128,-1,60
 692 1237 692 1237 769.5 1153 c 128,-1,61
 847 1069 847 1069 867 958 c 0,0,1
EndSplineSet
EndChar

StartChar: Q
Encoding: 48 81 51
Width: 1494
GlyphClass: 2
Flags: W
LayerCount: 4
Fore
SplineSet
493 1266 m 0,0,1
 406 1266 406 1266 340.5 1232.5 c 128,-1,2
 275 1199 275 1199 237 1144 c 128,-1,3
 199 1089 199 1089 179 1015 c 128,-1,4
 159 941 159 941 158.5 862 c 128,-1,5
 158 783 158 783 173 700 c 0,6,7
 194 582 194 582 246.5 467 c 128,-1,8
 299 352 299 352 374.5 258 c 128,-1,9
 450 164 450 164 554 106 c 128,-1,10
 658 48 658 48 770 48 c 0,11,12
 857 48 857 48 923 81.5 c 128,-1,13
 989 115 989 115 1026.5 170.5 c 128,-1,14
 1064 226 1064 226 1084.5 300.5 c 128,-1,15
 1105 375 1105 375 1105.5 455 c 128,-1,16
 1106 535 1106 535 1091 618 c 0,17,18
 1070 736 1070 736 1017 850.5 c 128,-1,19
 964 965 964 965 888 1058 c 128,-1,20
 812 1151 812 1151 708.5 1208.5 c 128,-1,21
 605 1266 605 1266 493 1266 c 0,0,1
511 1334 m 0,22,23
 642 1334 642 1334 770 1283.5 c 128,-1,24
 898 1233 898 1233 1002.5 1145 c 128,-1,25
 1107 1057 1107 1057 1182 929.5 c 128,-1,26
 1257 802 1257 802 1282 656 c 0,27,28
 1322 430 1322 430 1222 251 c 128,-1,29
 1122 72 1122 72 931 8 c 1,30,31
 991 -18 991 -18 1061 -56 c 128,-1,32
 1131 -94 1131 -94 1168 -113 c 128,-1,33
 1205 -132 1205 -132 1265.5 -147 c 128,-1,34
 1326 -162 1326 -162 1399 -162 c 0,35,36
 1499 -162 1499 -162 1538 -150 c 1,37,38
 1565 -150 1565 -150 1577 -164 c 0,39,40
 1580 -168 1580 -168 1580 -170 c 0,41,42
 1493 -221 1493 -221 1421.5 -246.5 c 128,-1,43
 1350 -272 1350 -272 1266 -272 c 0,44,45
 1206 -272 1206 -272 1140.5 -250.5 c 128,-1,46
 1075 -229 1075 -229 1011 -195 c 128,-1,47
 947 -161 947 -161 883 -125 c 128,-1,48
 819 -89 819 -89 739.5 -53.5 c 128,-1,49
 660 -18 660 -18 586 0 c 0,50,51
 362 54 362 54 194 232.5 c 128,-1,52
 26 411 26 411 -18 656 c 0,53,54
 -42 794 -42 794 -12 919.5 c 128,-1,55
 18 1045 18 1045 89.5 1135.5 c 128,-1,56
 161 1226 161 1226 271 1280 c 128,-1,57
 381 1334 381 1334 511 1334 c 0,22,23
EndSplineSet
EndChar

StartChar: R
Encoding: 49 82 52
Width: 1242
GlyphClass: 2
Flags: W
LayerCount: 4
Fore
SplineSet
378 1318 m 0,0,1
 448 1318 448 1318 522.5 1295.5 c 128,-1,2
 597 1273 597 1273 664.5 1231 c 128,-1,3
 732 1189 732 1189 781.5 1121.5 c 128,-1,4
 831 1054 831 1054 846 972 c 0,5,6
 864 869 864 869 797 773.5 c 128,-1,7
 730 678 730 678 631 642 c 1,8,9
 798 427 798 427 1037 172 c 0,10,11
 1092 113 1092 113 1147.5 85.5 c 128,-1,12
 1203 58 1203 58 1284 52 c 1,13,14
 1292 41 1292 41 1293 20.5 c 128,-1,15
 1294 0 1294 0 1292 -6 c 1,16,17
 1097 -6 1097 -6 1024 18 c 0,18,19
 956 41 956 41 916 72 c 0,20,21
 896 87 896 87 878 106 c 0,22,23
 846 141 846 141 717 293 c 128,-1,24
 588 445 588 445 477 580 c 0,25,26
 457 604 457 604 412 604 c 2,27,-1
 306 604 l 1,28,-1
 372 232 l 2,29,30
 392 116 392 116 408 84 c 0,31,32
 414 70 414 70 468 61 c 128,-1,33
 522 52 522 52 552 52 c 1,34,35
 559 44 559 44 563.5 23 c 128,-1,36
 568 2 568 2 562 -6 c 1,37,38
 355 4 355 4 326 4 c 0,39,40
 295 4 295 4 92 -6 c 1,41,42
 84 2 84 2 80.5 23 c 128,-1,43
 77 44 77 44 82 52 c 1,44,45
 112 52 112 52 162.5 61 c 128,-1,46
 213 70 213 70 214 84 c 0,47,48
 218 109 218 109 198 232 c 2,49,-1
 47 1086 l 2,50,51
 27 1202 27 1202 10 1234 c 0,52,53
 4 1248 4 1248 -49.5 1257 c 128,-1,54
 -103 1266 -103 1266 -133 1266 c 1,55,56
 -140 1274 -140 1274 -144.5 1295 c 128,-1,57
 -149 1316 -149 1316 -143 1324 c 1,58,59
 64 1314 64 1314 94 1314 c 0,60,61
 128 1314 128 1314 221 1316 c 128,-1,62
 314 1318 314 1318 378 1318 c 0,0,1
662 954 m 0,63,64
 637 1093 637 1093 548.5 1173.5 c 128,-1,65
 460 1254 460 1254 301 1254 c 0,66,67
 210 1254 210 1254 204 1234 c 0,68,69
 198 1210 198 1210 221 1084 c 2,70,-1
 296 666 l 1,71,-1
 403 666 l 2,72,73
 526 666 526 666 605 746.5 c 128,-1,74
 684 827 684 827 662 954 c 0,63,64
EndSplineSet
EndChar

StartChar: S
Encoding: 50 83 53
Width: 1004
GlyphClass: 2
Flags: W
LayerCount: 4
Fore
SplineSet
287 1332 m 0,0,1
 331 1332 331 1332 370.5 1327 c 128,-1,2
 410 1322 410 1322 436 1315.5 c 128,-1,3
 462 1309 462 1309 511.5 1296.5 c 128,-1,4
 561 1284 561 1284 599 1276 c 1,5,6
 627 1189 627 1189 677 992 c 0,7,8
 680 983 680 983 666 976.5 c 128,-1,9
 652 970 652 970 639 970 c 0,10,11
 625 970 625 970 616 978 c 1,12,13
 607 1009 607 1009 587 1046 c 128,-1,14
 567 1083 567 1083 535 1122 c 128,-1,15
 503 1161 503 1161 466 1192.5 c 128,-1,16
 429 1224 429 1224 381.5 1244 c 128,-1,17
 334 1264 334 1264 285 1264 c 0,18,19
 227 1264 227 1264 186 1243.5 c 128,-1,20
 145 1223 145 1223 127 1189 c 128,-1,21
 109 1155 109 1155 104 1118 c 128,-1,22
 99 1081 99 1081 106 1042 c 0,23,24
 111 1013 111 1013 123 986 c 128,-1,25
 135 959 135 959 149 938 c 128,-1,26
 163 917 163 917 186.5 895.5 c 128,-1,27
 210 874 210 874 228.5 859 c 128,-1,28
 247 844 247 844 278.5 824.5 c 128,-1,29
 310 805 310 805 330 793.5 c 128,-1,30
 350 782 350 782 386 762.5 c 128,-1,31
 422 743 422 743 441 732 c 0,32,33
 459 722 459 722 498.5 700 c 128,-1,34
 538 678 538 678 563 664 c 128,-1,35
 588 650 588 650 627 625.5 c 128,-1,36
 666 601 666 601 691.5 581.5 c 128,-1,37
 717 562 717 562 748 533.5 c 128,-1,38
 779 505 779 505 798.5 478 c 128,-1,39
 818 451 818 451 834.5 416.5 c 128,-1,40
 851 382 851 382 857 346 c 0,41,42
 871 266 871 266 848.5 196.5 c 128,-1,43
 826 127 826 127 775.5 80 c 128,-1,44
 725 33 725 33 654.5 6.5 c 128,-1,45
 584 -20 584 -20 504 -20 c 0,46,47
 457 -20 457 -20 401 -13 c 128,-1,48
 345 -6 345 -6 308 1 c 128,-1,49
 271 8 271 8 213 21 c 128,-1,50
 155 34 155 34 133 38 c 1,51,52
 103 117 103 117 72 220.5 c 128,-1,53
 41 324 41 324 37 348 c 1,54,55
 57 372 57 372 84 372 c 0,56,57
 103 372 103 372 110 354 c 0,58,59
 121 325 121 325 138 292.5 c 128,-1,60
 155 260 155 260 189 214 c 128,-1,61
 223 168 223 168 264 133 c 128,-1,62
 305 98 305 98 366.5 73 c 128,-1,63
 428 48 428 48 496 48 c 0,64,65
 598 48 598 48 655 113.5 c 128,-1,66
 712 179 712 179 693 292 c 0,67,68
 688 322 688 322 677 349 c 128,-1,69
 666 376 666 376 653 396 c 128,-1,70
 640 416 640 416 619 435.5 c 128,-1,71
 598 455 598 455 580.5 468 c 128,-1,72
 563 481 563 481 534.5 497.5 c 128,-1,73
 506 514 506 514 486 524.5 c 128,-1,74
 466 535 466 535 431.5 552 c 128,-1,75
 397 569 397 569 376 580 c 0,76,77
 330 605 330 605 317 611.5 c 128,-1,78
 304 618 304 618 259.5 643 c 128,-1,79
 215 668 215 668 198.5 679.5 c 128,-1,80
 182 691 182 691 144 717 c 128,-1,81
 106 743 106 743 89 760.5 c 128,-1,82
 72 778 72 778 45 806 c 128,-1,83
 18 834 18 834 4 859 c 128,-1,84
 -10 884 -10 884 -23.5 915.5 c 128,-1,85
 -37 947 -37 947 -43 980 c 0,86,87
 -61 1082 -61 1082 -19 1164 c 128,-1,88
 23 1246 23 1246 104.5 1289 c 128,-1,89
 186 1332 186 1332 287 1332 c 0,0,1
EndSplineSet
EndChar

StartChar: T
Encoding: 51 84 54
Width: 1252
GlyphClass: 2
Flags: W
LayerCount: 4
Fore
SplineSet
783 1322 m 2,0,1
 806 1322 806 1322 843 1332 c 128,-1,2
 880 1342 880 1342 898 1352 c 0,3,4
 919 1364 919 1364 935 1356 c 1,5,6
 996 1147 996 1147 1048 1012 c 1,7,8
 1035 996 1035 996 1012 998 c 0,9,10
 991 998 991 998 982 1008 c 1,11,12
 940 1119 940 1119 879.5 1185.5 c 128,-1,13
 819 1252 819 1252 747 1252 c 2,14,-1
 493 1252 l 1,15,-1
 673 232 l 2,16,17
 693 116 693 116 709 84 c 0,18,19
 715 70 715 70 769 61 c 128,-1,20
 823 52 823 52 853 52 c 1,21,22
 860 44 860 44 864.5 23 c 128,-1,23
 869 2 869 2 863 -6 c 1,24,25
 656 4 656 4 627 4 c 0,26,27
 596 4 596 4 393 -6 c 1,28,29
 385 2 385 2 381.5 23 c 128,-1,30
 378 44 378 44 383 52 c 1,31,32
 413 52 413 52 463.5 61 c 128,-1,33
 514 70 514 70 515 84 c 0,34,35
 519 116 519 116 499 232 c 2,36,-1
 319 1252 l 1,37,-1
 61 1252 l 2,38,39
 -11 1252 -11 1252 -48 1185.5 c 128,-1,40
 -85 1119 -85 1119 -88 1008 c 1,41,42
 -93 998 -93 998 -114 998 c 0,43,44
 -136 996 -136 996 -154 1012 c 1,45,46
 -150 1147 -150 1147 -163 1356 c 1,47,48
 -147 1364 -147 1364 -116 1350 c 0,49,50
 -95 1340 -95 1340 -58.5 1331 c 128,-1,51
 -22 1322 -22 1322 1 1322 c 2,52,-1
 783 1322 l 2,0,1
EndSplineSet
EndChar

StartChar: U
Encoding: 52 85 55
Width: 1446
GlyphClass: 2
Flags: W
LayerCount: 4
Fore
SplineSet
63 1314 m 0,0,1
 92 1314 92 1314 296 1324 c 1,2,3
 304 1316 304 1316 307 1295 c 128,-1,4
 310 1274 310 1274 306 1266 c 1,5,6
 276 1266 276 1266 225.5 1257 c 128,-1,7
 175 1248 175 1248 173 1234 c 0,8,9
 169 1202 169 1202 190 1086 c 2,10,-1
 277 592 l 2,11,12
 320 346 320 346 440 224 c 0,13,14
 554 108 554 108 734 108 c 0,15,16
 1114 108 1114 108 1044 548 c 1,17,-1
 949 1090 l 2,18,19
 938 1152 938 1152 930 1179 c 128,-1,20
 922 1206 922 1206 904 1228 c 0,21,22
 894 1242 894 1242 838 1255 c 128,-1,23
 782 1268 782 1268 753 1268 c 1,24,25
 744 1278 744 1278 740.5 1298 c 128,-1,26
 737 1318 737 1318 739 1326 c 1,27,28
 941 1316 941 1316 963 1316 c 0,29,30
 1004 1316 1004 1316 1035 1317.5 c 128,-1,31
 1066 1319 1066 1319 1103.5 1322 c 128,-1,32
 1141 1325 1141 1325 1175 1326 c 1,33,34
 1194 1301 1194 1301 1185 1268 c 1,35,36
 1157 1268 1157 1268 1100 1256 c 128,-1,37
 1043 1244 1043 1244 1036 1228 c 0,38,39
 1027 1207 1027 1207 1028.5 1180 c 128,-1,40
 1030 1153 1030 1153 1040 1092 c 2,41,-1
 1136 552 l 2,42,43
 1187 264 1187 264 1072.5 128 c 128,-1,44
 958 -8 958 -8 712 -8 c 0,45,46
 493 -8 493 -8 332 124 c 0,47,48
 160 263 160 263 118 502 c 2,49,-1
 16 1086 l 2,50,51
 -4 1202 -4 1202 -21 1234 c 0,52,53
 -27 1248 -27 1248 -80.5 1257 c 128,-1,54
 -134 1266 -134 1266 -164 1266 c 1,55,56
 -171 1274 -171 1274 -175.5 1295 c 128,-1,57
 -180 1316 -180 1316 -174 1324 c 1,58,59
 32 1314 32 1314 63 1314 c 0,0,1
EndSplineSet
EndChar

StartChar: V
Encoding: 53 86 56
Width: 1276
GlyphClass: 2
Flags: W
LayerCount: 4
Fore
SplineSet
-13 1314 m 0,0,1
 35 1314 35 1314 234 1324 c 1,2,3
 239 1315 239 1315 242.5 1291 c 128,-1,4
 246 1267 246 1267 240 1266 c 0,5,6
 231 1266 231 1266 214.5 1263.5 c 128,-1,7
 198 1261 198 1261 176.5 1254.5 c 128,-1,8
 155 1248 155 1248 141.5 1233.5 c 128,-1,9
 128 1219 128 1219 131 1200 c 0,10,11
 138 1159 138 1159 190 1064 c 0,12,13
 467 554 467 554 631 258 c 1,14,15
 636 272 636 272 665 399.5 c 128,-1,16
 694 527 694 527 737 716 c 128,-1,17
 780 905 780 905 811 1046 c 0,18,19
 831 1138 831 1138 822 1186 c 0,20,21
 818 1208 818 1208 798.5 1225 c 128,-1,22
 779 1242 779 1242 753 1249.5 c 128,-1,23
 727 1257 727 1257 707.5 1260.5 c 128,-1,24
 688 1264 688 1264 676 1264 c 0,25,26
 668 1267 668 1267 664 1290.5 c 128,-1,27
 660 1314 660 1314 666 1322 c 1,28,29
 815 1314 815 1314 875 1314 c 0,30,31
 916 1314 916 1314 945.5 1315.5 c 128,-1,32
 975 1317 975 1317 1008 1320 c 128,-1,33
 1041 1323 1041 1323 1070 1324 c 1,34,35
 1075 1316 1075 1316 1078 1291 c 128,-1,36
 1081 1266 1081 1266 1076 1266 c 0,37,38
 1054 1266 1054 1266 1014 1253 c 128,-1,39
 974 1240 974 1240 957 1214 c 0,40,41
 927 1170 927 1170 893 1012 c 0,42,43
 799 590 799 590 672 64 c 0,44,45
 656 -4 656 -4 608 -4 c 0,46,47
 604 -4 604 -4 599.5 1.5 c 128,-1,48
 595 7 595 7 589 18 c 2,49,-1
 582 28 l 1,50,51
 524 132 524 132 338 469 c 128,-1,52
 152 806 152 806 26 1028 c 0,53,54
 -44 1153 -44 1153 -100 1220 c 0,55,56
 -118 1241 -118 1241 -164 1253.5 c 128,-1,57
 -210 1266 -210 1266 -236 1266 c 0,58,59
 -239 1266 -239 1266 -244 1293.5 c 128,-1,60
 -249 1321 -249 1321 -246 1324 c 0,61,62
 -214 1323 -214 1323 -169.5 1320 c 128,-1,63
 -125 1317 -125 1317 -89.5 1315.5 c 128,-1,64
 -54 1314 -54 1314 -13 1314 c 0,0,1
EndSplineSet
EndChar

StartChar: W
Encoding: 54 87 57
Width: 1800
GlyphClass: 2
Flags: W
LayerCount: 4
Fore
SplineSet
3 1314 m 0,0,1
 42 1314 42 1314 76 1315.5 c 128,-1,2
 110 1317 110 1317 151 1320 c 128,-1,3
 192 1323 192 1323 218 1324 c 1,4,5
 223 1315 223 1315 226.5 1291 c 128,-1,6
 230 1267 230 1267 224 1266 c 0,7,8
 215 1266 215 1266 198.5 1263.5 c 128,-1,9
 182 1261 182 1261 160.5 1254.5 c 128,-1,10
 139 1248 139 1248 125.5 1233.5 c 128,-1,11
 112 1219 112 1219 115.5 1200 c 128,-1,12
 119 1181 119 1181 168 1070 c 0,13,14
 209 979 209 979 344.5 698.5 c 128,-1,15
 480 418 480 418 538 296 c 1,16,17
 559 462 559 462 609 815.5 c 128,-1,18
 659 1169 659 1169 670 1258 c 0,19,20
 673 1285 673 1285 693 1304.5 c 128,-1,21
 713 1324 713 1324 731 1324 c 0,22,23
 740 1324 740 1324 760 1292 c 1,24,25
 1169 464 1169 464 1253 302 c 1,26,27
 1264 406 1264 406 1280 554 c 128,-1,28
 1296 702 1296 702 1307.5 812 c 128,-1,29
 1319 922 1319 922 1330 1048 c 0,30,31
 1337 1144 1337 1144 1330 1188 c 0,32,33
 1326 1210 1326 1210 1305.5 1227 c 128,-1,34
 1285 1244 1285 1244 1259 1251.5 c 128,-1,35
 1233 1259 1233 1259 1212.5 1262.5 c 128,-1,36
 1192 1266 1192 1266 1180 1266 c 0,37,38
 1172 1269 1172 1269 1168 1292.5 c 128,-1,39
 1164 1316 1164 1316 1170 1324 c 1,40,41
 1357 1314 1357 1314 1387 1314 c 0,42,43
 1428 1314 1428 1314 1456 1315.5 c 128,-1,44
 1484 1317 1484 1317 1515.5 1320 c 128,-1,45
 1547 1323 1547 1323 1576 1324 c 1,46,47
 1581 1316 1581 1316 1584 1291 c 128,-1,48
 1587 1266 1587 1266 1582 1266 c 0,49,50
 1565 1266 1565 1266 1525.5 1251 c 128,-1,51
 1486 1236 1486 1236 1464 1214 c 0,52,53
 1432 1183 1432 1183 1419 1062 c 0,54,55
 1401 904 1401 904 1366 582.5 c 128,-1,56
 1331 261 1331 261 1308 64 c 0,57,58
 1306 38 1306 38 1285 17 c 128,-1,59
 1264 -4 1264 -4 1244 -4 c 0,60,61
 1239 -4 1239 -4 1230 8 c 128,-1,62
 1221 20 1221 20 1218 28 c 0,63,64
 1176 109 1176 109 1110 240 c 2,65,-1
 975 504 l 2,66,67
 909 635 909 635 850.5 751 c 128,-1,68
 792 867 792 867 754 944 c 0,69,70
 717 1016 l 1,71,72
 695 841 695 841 650.5 544.5 c 128,-1,73
 606 248 606 248 584 64 c 0,74,75
 582 38 582 38 561 17 c 128,-1,76
 540 -4 540 -4 520 -4 c 0,77,78
 515 -4 515 -4 506 8 c 128,-1,79
 497 20 497 20 494 28 c 0,80,81
 389 241 389 241 220 591.5 c 128,-1,82
 51 942 51 942 -9 1064 c 0,83,84
 -12 1072 -12 1072 -23 1095.5 c 128,-1,85
 -34 1119 -34 1119 -37.5 1125.5 c 128,-1,86
 -41 1132 -41 1132 -50 1149.5 c 128,-1,87
 -59 1167 -59 1167 -63.5 1173.5 c 128,-1,88
 -68 1180 -68 1180 -76 1191.5 c 128,-1,89
 -84 1203 -84 1203 -92 1210.5 c 128,-1,90
 -100 1218 -100 1218 -109 1226 c 0,91,92
 -131 1244 -131 1244 -170.5 1255 c 128,-1,93
 -210 1266 -210 1266 -232 1266 c 0,94,95
 -235 1266 -235 1266 -240 1293.5 c 128,-1,96
 -245 1321 -245 1321 -242 1324 c 0,97,98
 -11 1314 -11 1314 3 1314 c 0,0,1
EndSplineSet
EndChar

StartChar: X
Encoding: 55 88 58
Width: 1336
GlyphClass: 2
Flags: W
LayerCount: 4
Fore
SplineSet
87 1314 m 0,0,1
 143 1314 143 1314 342 1324 c 1,2,3
 348 1315 348 1315 351.5 1290.5 c 128,-1,4
 355 1266 355 1266 348 1266 c 0,5,6
 329 1266 329 1266 304.5 1261.5 c 128,-1,7
 280 1257 280 1257 257.5 1241.5 c 128,-1,8
 235 1226 235 1226 239 1202 c 0,9,10
 244 1176 244 1176 274 1142 c 2,11,-1
 568 786 l 1,12,13
 592 829 592 829 634.5 901.5 c 128,-1,14
 677 974 677 974 701.5 1015.5 c 128,-1,15
 726 1057 726 1057 751.5 1104.5 c 128,-1,16
 777 1152 777 1152 790 1180 c 0,17,18
 797 1194 797 1194 793 1212 c 0,19,20
 791 1223 791 1223 780 1233.5 c 128,-1,21
 769 1244 769 1244 735 1254 c 128,-1,22
 701 1264 701 1264 649 1264 c 0,23,24
 643 1265 643 1265 637.5 1288.5 c 128,-1,25
 632 1312 632 1312 635 1322 c 1,26,27
 770 1312 770 1312 844 1312 c 0,28,29
 944 1312 944 1312 1062 1322 c 1,30,31
 1068 1315 1068 1315 1071.5 1293.5 c 128,-1,32
 1075 1272 1075 1272 1068 1264 c 1,33,34
 1053 1264 1053 1264 1028.5 1259.5 c 128,-1,35
 1004 1255 1004 1255 965 1235 c 128,-1,36
 926 1215 926 1215 904 1184 c 0,37,38
 760 968 760 968 618 720 c 1,39,-1
 1116 132 l 2,40,41
 1149 92 1149 92 1209 72 c 128,-1,42
 1269 52 1269 52 1326 52 c 1,43,44
 1333 43 1333 43 1336 21 c 128,-1,45
 1339 -1 1339 -1 1338 -6 c 1,46,47
 1311 -5 1311 -5 1271 -2 c 128,-1,48
 1231 1 1231 1 1199 2.5 c 128,-1,49
 1167 4 1167 4 1130 4 c 0,50,51
 1080 4 1080 4 1035.5 2.5 c 128,-1,52
 991 1 991 1 934.5 -2 c 128,-1,53
 878 -5 878 -5 840 -6 c 1,54,55
 832 2 832 2 827.5 27 c 128,-1,56
 823 52 823 52 830 52 c 0,57,58
 857 52 857 52 898.5 67.5 c 128,-1,59
 940 83 940 83 936 108 c 0,60,61
 935 112 935 112 922 132 c 2,62,-1
 534 602 l 1,63,64
 461 474 461 474 380.5 323 c 128,-1,65
 300 172 300 172 286 132 c 1,66,67
 281 102 281 102 281 100 c 0,68,69
 283 87 283 87 299.5 76.5 c 128,-1,70
 316 66 316 66 353.5 59 c 128,-1,71
 391 52 391 52 444 52 c 1,72,73
 451 44 451 44 455.5 21 c 128,-1,74
 460 -2 460 -2 458 -6 c 1,75,76
 271 4 271 4 230 4 c 0,77,78
 184 4 184 4 -14 -6 c 1,79,80
 -20 4 -20 4 -21.5 25.5 c 128,-1,81
 -23 47 -23 47 -20 52 c 1,82,83
 14 52 14 52 82 73 c 128,-1,84
 150 94 150 94 178 140 c 0,85,86
 230 226 230 226 278 310.5 c 128,-1,87
 326 395 326 395 382.5 495.5 c 128,-1,88
 439 596 439 596 478 664 c 1,89,-1
 120 1096 l 2,90,91
 74 1152 74 1152 41 1181.5 c 128,-1,92
 8 1211 8 1211 -37 1234 c 0,93,94
 -63 1248 -63 1248 -98.5 1257 c 128,-1,95
 -134 1266 -134 1266 -154 1266 c 0,96,97
 -161 1266 -161 1266 -165.5 1291 c 128,-1,98
 -170 1316 -170 1316 -164 1324 c 1,99,100
 -130 1323 -130 1323 -81.5 1320 c 128,-1,101
 -33 1317 -33 1317 5 1315.5 c 128,-1,102
 43 1314 43 1314 87 1314 c 0,0,1
EndSplineSet
EndChar

StartChar: Y
Encoding: 56 89 59
Width: 1196
GlyphClass: 2
Flags: W
LayerCount: 4
Fore
SplineSet
481 232 m 2,0,-1
 428 534 l 2,1,2
 423 562 423 562 404 590 c 0,3,4
 322 703 322 703 211 852 c 128,-1,5
 100 1001 100 1001 31 1096 c 0,6,7
 -10 1150 -10 1150 -43.5 1179.5 c 128,-1,8
 -77 1209 -77 1209 -126 1234 c 0,9,10
 -152 1248 -152 1248 -187.5 1257 c 128,-1,11
 -223 1266 -223 1266 -243 1266 c 0,12,13
 -251 1266 -251 1266 -255.5 1291 c 128,-1,14
 -260 1316 -260 1316 -253 1324 c 1,15,16
 -219 1323 -219 1323 -170.5 1320 c 128,-1,17
 -122 1317 -122 1317 -84 1315.5 c 128,-1,18
 -46 1314 -46 1314 -2 1314 c 0,19,20
 54 1314 54 1314 253 1324 c 1,21,22
 259 1315 259 1315 262.5 1290.5 c 128,-1,23
 266 1266 266 1266 259 1266 c 0,24,25
 240 1266 240 1266 215.5 1261.5 c 128,-1,26
 191 1257 191 1257 168.5 1241.5 c 128,-1,27
 146 1226 146 1226 150 1202 c 0,28,29
 154 1181 154 1181 185 1142 c 2,30,-1
 547 662 l 1,31,32
 593 784 593 784 647.5 951.5 c 128,-1,33
 702 1119 702 1119 716 1180 c 0,34,35
 720 1194 720 1194 717 1210 c 0,36,37
 715 1222 715 1222 702.5 1233 c 128,-1,38
 690 1244 690 1244 654.5 1254 c 128,-1,39
 619 1264 619 1264 567 1264 c 0,40,41
 563 1264 563 1264 557 1291 c 128,-1,42
 551 1318 551 1318 553 1322 c 1,43,44
 740 1312 740 1312 755 1312 c 0,45,46
 802 1312 802 1312 836 1313.5 c 128,-1,47
 870 1315 870 1315 908.5 1318 c 128,-1,48
 947 1321 947 1321 973 1322 c 1,49,50
 978 1313 978 1313 980.5 1288.5 c 128,-1,51
 983 1264 983 1264 979 1264 c 0,52,53
 965 1264 965 1264 950 1262.5 c 128,-1,54
 935 1261 935 1261 905 1254.5 c 128,-1,55
 875 1248 875 1248 850.5 1230 c 128,-1,56
 826 1212 826 1212 815 1184 c 0,57,58
 773 1077 773 1077 602 602 c 0,59,60
 595 584 595 584 603 540 c 2,61,-1
 655 232 l 2,62,63
 675 116 675 116 691 84 c 0,64,65
 697 70 697 70 751 61 c 128,-1,66
 805 52 805 52 835 52 c 1,67,68
 842 44 842 44 846.5 23 c 128,-1,69
 851 2 851 2 845 -6 c 1,70,71
 638 4 638 4 609 4 c 0,72,73
 578 4 578 4 375 -6 c 1,74,75
 367 2 367 2 363.5 23 c 128,-1,76
 360 44 360 44 365 52 c 1,77,78
 395 52 395 52 445.5 61 c 128,-1,79
 496 70 496 70 497 84 c 0,80,81
 501 116 501 116 481 232 c 2,0,-1
EndSplineSet
EndChar

StartChar: Z
Encoding: 57 90 60
Width: 1266
GlyphClass: 2
Flags: W
LayerCount: 4
Fore
SplineSet
211 1252 m 2,0,1
 111 1252 111 1252 54 1183.5 c 128,-1,2
 -3 1115 -3 1115 -15 990 c 0,3,4
 -19 982 -19 982 -35 982 c 0,5,6
 -48 982 -48 982 -66 987.5 c 128,-1,7
 -84 993 -84 993 -90 998 c 1,8,9
 -66 1126 -66 1126 -84 1338 c 1,10,11
 31 1322 31 1322 83 1322 c 2,12,-1
 471 1322 l 2,13,14
 611 1322 611 1322 887 1342 c 0,15,16
 894 1340 894 1340 911.5 1324.5 c 128,-1,17
 929 1309 929 1309 931 1298 c 0,18,19
 930 1291 930 1291 773 984 c 128,-1,20
 616 677 616 677 458 374 c 2,21,-1
 302 70 l 1,22,-1
 824 70 l 2,23,24
 941 70 941 70 997 141 c 0,25,26
 1005 152 1005 152 1013 164.5 c 128,-1,27
 1021 177 1021 177 1026 187.5 c 128,-1,28
 1031 198 1031 198 1037 214.5 c 128,-1,29
 1043 231 1043 231 1045.5 239 c 128,-1,30
 1048 247 1048 247 1053 266 c 128,-1,31
 1058 285 1058 285 1059 290 c 128,-1,32
 1060 295 1060 295 1064.5 316 c 128,-1,33
 1069 337 1069 337 1068 338 c 0,34,35
 1070 344 1070 344 1095 344 c 0,36,37
 1125 344 1125 344 1147 326 c 1,38,39
 1141 281 1141 281 1133 224.5 c 128,-1,40
 1125 168 1125 168 1121.5 139.5 c 128,-1,41
 1118 111 1118 111 1114 73.5 c 128,-1,42
 1110 36 1110 36 1108 0 c 1,43,-1
 106 0 l 2,44,45
 89 0 89 0 75 9.5 c 128,-1,46
 61 19 61 19 65 28 c 2,47,-1
 699 1252 l 1,48,-1
 211 1252 l 2,0,1
EndSplineSet
EndChar

StartChar: bracketleft
Encoding: 58 91 61
Width: 518
GlyphClass: 2
Flags: W
LayerCount: 4
Fore
SplineSet
-57 1436 m 0,0,1
 16 1436 16 1436 92 1439 c 128,-1,2
 168 1442 168 1442 207 1445 c 2,3,-1
 247 1448 l 1,4,5
 254 1442 254 1442 256 1430 c 0,6,7
 260 1405 260 1405 241 1398 c 0,8,9
 209 1386 209 1386 153 1374.5 c 128,-1,10
 97 1363 97 1363 57 1358 c 2,11,-1
 16 1352 l 1,12,-1
 288 -192 l 1,13,14
 450 -212 450 -212 530 -238 c 0,15,16
 551 -245 551 -245 556 -270 c 0,17,18
 557 -275 557 -275 556 -279.5 c 128,-1,19
 555 -284 555 -284 554 -286 c 2,20,-1
 553 -288 l 1,21,22
 409 -276 409 -276 245 -276 c 0,23,24
 229 -276 229 -276 217 -264 c 128,-1,25
 205 -252 205 -252 202 -243.5 c 128,-1,26
 199 -235 199 -235 199 -230 c 2,27,-1
 -87 1390 l 2,28,29
 -88 1395 -88 1395 -88 1403.5 c 128,-1,30
 -88 1412 -88 1412 -80.5 1424 c 128,-1,31
 -73 1436 -73 1436 -57 1436 c 0,0,1
EndSplineSet
Substitution2: "'smcp' Lowercase to Small Capitals lookup 12 subtable" bracketleft.sc
EndChar

StartChar: backslash
Encoding: 59 92 62
Width: 802
GlyphClass: 2
Flags: W
LayerCount: 4
Fore
SplineSet
-202 1500 m 1,0,1
 -196 1514 -196 1514 -165 1514 c 0,2,3
 -149 1514 -149 1514 -129 1504 c 128,-1,4
 -109 1494 -109 1494 -103 1482 c 0,5,6
 742 -22 742 -22 744 -34 c 0,7,8
 743 -41 743 -41 731 -48.5 c 128,-1,9
 719 -56 719 -56 702 -56 c 0,10,11
 691 -56 691 -56 676 -47 c 128,-1,12
 661 -38 661 -38 655 -28 c 0,13,14
 -83 1288 -83 1288 -202 1500 c 1,0,1
EndSplineSet
Substitution2: "'smcp' Lowercase to Small Capitals lookup 12 subtable" backslash.sc
EndChar

StartChar: bracketright
Encoding: 60 93 63
Width: 520
GlyphClass: 2
Flags: W
LayerCount: 4
Fore
SplineSet
71 1436 m 0,0,1
 87 1436 87 1436 98.5 1424 c 128,-1,2
 110 1412 110 1412 113 1403.5 c 128,-1,3
 116 1395 116 1395 117 1390 c 2,4,-1
 403 -230 l 2,5,6
 404 -235 404 -235 403.5 -243.5 c 128,-1,7
 403 -252 403 -252 396 -264 c 128,-1,8
 389 -276 389 -276 373 -276 c 0,9,10
 300 -276 300 -276 224 -279 c 128,-1,11
 148 -282 148 -282 108 -285 c 2,12,-1
 69 -288 l 1,13,14
 62 -282 62 -282 60 -270 c 0,15,16
 56 -245 56 -245 74 -238 c 0,17,18
 106 -226 106 -226 162.5 -214.5 c 128,-1,19
 219 -203 219 -203 259 -198 c 2,20,-1
 300 -192 l 1,21,-1
 28 1352 l 1,22,23
 -134 1372 -134 1372 -215 1398 c 0,24,25
 -236 1405 -236 1405 -240 1430 c 0,26,27
 -241 1435 -241 1435 -240.5 1439.5 c 128,-1,28
 -240 1444 -240 1444 -239 1446 c 2,29,-1
 -237 1448 l 1,30,31
 -93 1436 -93 1436 71 1436 c 0,0,1
EndSplineSet
Substitution2: "'smcp' Lowercase to Small Capitals lookup 12 subtable" bracketright.sc
EndChar

StartChar: asciicircum
Encoding: 61 94 64
Width: 780
GlyphClass: 2
Flags: W
LayerCount: 4
Fore
SplineSet
145 1290 m 0,0,1
 164 1290 164 1290 181 1264 c 0,2,3
 230 1193 230 1193 272 1136 c 128,-1,4
 314 1079 314 1079 373.5 1001 c 128,-1,5
 433 923 433 923 467 878 c 1,6,7
 469 864 469 864 461 855 c 128,-1,8
 453 846 453 846 443 846 c 1,9,10
 394 889 394 889 327.5 953.5 c 128,-1,11
 261 1018 261 1018 219 1061 c 2,12,-1
 177 1104 l 1,13,14
 80 942 80 942 5 846 c 1,15,16
 -5 846 -5 846 -17.5 855 c 128,-1,17
 -30 864 -30 864 -33 878 c 1,18,19
 -13 928 -13 928 18 1002 c 128,-1,20
 49 1076 49 1076 72.5 1134.5 c 128,-1,21
 96 1193 96 1193 119 1264 c 0,22,23
 128 1290 128 1290 145 1290 c 0,0,1
EndSplineSet
Substitution2: "'smcp' Lowercase to Small Capitals lookup 12 subtable" asciicircum.sc
EndChar

StartChar: underscore
Encoding: 62 95 65
Width: 1010
GlyphClass: 2
Flags: W
LayerCount: 4
Fore
SplineSet
40 -66 m 0,0,1
 34 26 34 26 53 26 c 2,2,-1
 951 26 l 2,3,4
 959 26 959 26 961 16 c 0,5,6
 964 -1 964 -1 957 -74 c 0,7,8
 956 -79 956 -79 953.5 -82 c 128,-1,9
 951 -85 951 -85 949 -86 c 2,10,-1
 947 -86 l 1,11,-1
 57 -86 l 2,12,13
 44 -86 44 -86 40 -66 c 0,0,1
EndSplineSet
EndChar

StartChar: grave
Encoding: 63 96 66
Width: 684
GlyphClass: 2
Flags: W
LayerCount: 4
Fore
SplineSet
63 1368 m 0,0,1
 76 1368 76 1368 89.5 1364.5 c 128,-1,2
 103 1361 103 1361 110 1357.5 c 128,-1,3
 117 1354 117 1354 120 1352 c 0,4,5
 179 1292 179 1292 270 1187.5 c 128,-1,6
 361 1083 361 1083 363 1074 c 0,7,8
 368 1048 368 1048 349 1048 c 0,9,10
 338 1048 338 1048 255 1099.5 c 128,-1,11
 172 1151 172 1151 89 1216 c 128,-1,12
 6 1281 6 1281 1 1310 c 0,13,14
 -1 1320 -1 1320 0 1330.5 c 128,-1,15
 1 1341 1 1341 16 1354.5 c 128,-1,16
 31 1368 31 1368 63 1368 c 0,0,1
EndSplineSet
EndChar

StartChar: a
Encoding: 64 97 67
Width: 862
GlyphClass: 2
Flags: W
LayerCount: 4
Fore
SplineSet
358 92 m 0,0,1
 407 92 407 92 463.5 124.5 c 128,-1,2
 520 157 520 157 517 174 c 2,3,-1
 469 446 l 1,4,5
 322 400 322 400 294 388 c 0,6,7
 241 366 241 366 215 326.5 c 128,-1,8
 189 287 189 287 199 232 c 0,9,10
 209 176 209 176 255.5 134 c 128,-1,11
 302 92 302 92 358 92 c 0,0,1
328 872 m 0,12,13
 415 872 415 872 494.5 792 c 128,-1,14
 574 712 574 712 595 598 c 2,15,-1
 667 186 l 2,16,17
 684 92 684 92 746 92 c 0,18,19
 755 92 755 92 763 93.5 c 128,-1,20
 771 95 771 95 776.5 97.5 c 128,-1,21
 782 100 782 100 788 103.5 c 128,-1,22
 794 107 794 107 797 109.5 c 128,-1,23
 800 112 800 112 803 115 c 128,-1,24
 806 118 806 118 807 118 c 0,25,26
 815 118 815 118 818 102 c 0,27,28
 822 81 822 81 815 64 c 1,29,30
 796 43 796 43 751 15.5 c 128,-1,31
 706 -12 706 -12 678 -12 c 0,32,33
 636 -12 636 -12 594 28.5 c 128,-1,34
 552 69 552 69 533 118 c 1,35,36
 509 89 509 89 433 36.5 c 128,-1,37
 357 -16 357 -16 311 -16 c 0,38,39
 212 -16 212 -16 132.5 50.5 c 128,-1,40
 53 117 53 117 36 214 c 0,41,42
 26 271 26 271 50 315.5 c 128,-1,43
 74 360 74 360 108 374 c 0,44,45
 139 386 139 386 220.5 416 c 128,-1,46
 302 446 302 446 357 467 c 128,-1,47
 412 488 412 488 436 500 c 0,48,49
 450 506 450 506 453 515 c 128,-1,50
 456 524 456 524 451 550 c 2,51,-1
 441 604 l 2,52,53
 428 675 428 675 367.5 735.5 c 128,-1,54
 307 796 307 796 236 796 c 0,55,56
 186 796 186 796 166.5 765.5 c 128,-1,57
 147 735 147 735 148 672 c 0,58,59
 148 576 148 576 70 576 c 0,60,61
 40 576 40 576 16.5 602 c 128,-1,62
 -7 628 -7 628 -12 660 c 0,63,64
 -13 668 -13 668 -12 684.5 c 128,-1,65
 -11 701 -11 701 -7 708 c 0,66,67
 45 766 45 766 138 819 c 128,-1,68
 231 872 231 872 328 872 c 0,12,13
EndSplineSet
Substitution2: "'smcp' Lowercase to Small Capitals lookup 12 subtable" a.sc
EndChar

StartChar: b
Encoding: 65 98 68
Width: 996
GlyphClass: 2
Flags: W
LayerCount: 4
Fore
SplineSet
425 -14 m 0,0,1
 382 -14 382 -14 272 16 c 0,2,3
 267 17 267 17 250 22 c 128,-1,4
 233 27 233 27 226.5 28.5 c 128,-1,5
 220 30 220 30 205.5 32.5 c 128,-1,6
 191 35 191 35 182.5 35 c 128,-1,7
 174 35 174 35 162 33.5 c 128,-1,8
 150 32 150 32 140 28 c 0,9,10
 133 28 133 28 120.5 45.5 c 128,-1,11
 108 63 108 63 106 72 c 0,12,13
 121 125 121 125 104 220 c 2,14,-1
 -54 1116 l 2,15,16
 -68 1196 -68 1196 -82 1220 c 0,17,18
 -103 1256 -103 1256 -210 1256 c 0,19,20
 -211 1256 -211 1256 -214.5 1268.5 c 128,-1,21
 -218 1281 -218 1281 -219.5 1294 c 128,-1,22
 -221 1307 -221 1307 -218 1308 c 0,23,24
 -82 1322 -82 1322 52 1388 c 0,25,26
 59 1388 59 1388 68.5 1377.5 c 128,-1,27
 78 1367 78 1367 80 1356 c 0,28,29
 69 1292 69 1292 89 1182 c 2,30,-1
 158 788 l 1,31,32
 160 779 l 0,33,34
 161 776 161 776 163 770.5 c 128,-1,35
 165 765 165 765 167 765.5 c 128,-1,36
 169 766 169 766 174 768 c 0,37,38
 210 798 210 798 279 837 c 128,-1,39
 348 876 348 876 397 876 c 0,40,41
 483 876 483 876 561 838 c 128,-1,42
 639 800 639 800 694 739 c 128,-1,43
 749 678 749 678 785.5 607 c 128,-1,44
 822 536 822 536 835 466 c 0,45,46
 852 369 852 369 830 280.5 c 128,-1,47
 808 192 808 192 754.5 127.5 c 128,-1,48
 701 63 701 63 615 24.5 c 128,-1,49
 529 -14 529 -14 425 -14 c 0,0,1
321 758 m 0,50,51
 285 758 285 758 240.5 739 c 128,-1,52
 196 720 196 720 183 704 c 0,53,54
 175 694 175 694 177 682 c 2,55,-1
 262 196 l 2,56,57
 273 135 273 135 338 94.5 c 128,-1,58
 403 54 403 54 473 54 c 128,-1,59
 543 54 543 54 596.5 103.5 c 128,-1,60
 650 153 650 153 672.5 230.5 c 128,-1,61
 695 308 695 308 681 388 c 0,62,63
 650 561 650 561 553 659.5 c 128,-1,64
 456 758 456 758 321 758 c 0,50,51
EndSplineSet
Substitution2: "'smcp' Lowercase to Small Capitals lookup 12 subtable" b.sc
EndChar

StartChar: c
Encoding: 66 99 69
Width: 846
GlyphClass: 2
Flags: W
LayerCount: 4
Fore
SplineSet
628 772 m 0,0,1
 637 723 637 723 618 699.5 c 128,-1,2
 599 676 599 676 569 676 c 0,3,4
 549 676 549 676 526.5 689 c 128,-1,5
 504 702 504 702 478 722.5 c 128,-1,6
 452 743 452 743 440 750 c 0,7,8
 402 773 402 773 379 780.5 c 128,-1,9
 356 788 356 788 319 788 c 0,10,11
 233 788 233 788 180.5 695.5 c 128,-1,12
 128 603 128 603 154 454 c 0,13,14
 184 286 184 286 289.5 201 c 128,-1,15
 395 116 395 116 538 116 c 0,16,17
 610 116 610 116 658.5 149 c 128,-1,18
 707 182 707 182 732 218 c 0,19,20
 733 218 733 218 737.5 214.5 c 128,-1,21
 742 211 742 211 746.5 204 c 128,-1,22
 751 197 751 197 752 190 c 0,23,24
 755 174 755 174 747 154 c 0,25,26
 736 128 736 128 716.5 102 c 128,-1,27
 697 76 697 76 665.5 48 c 128,-1,28
 634 20 634 20 587 2 c 128,-1,29
 540 -16 540 -16 485 -16 c 0,30,31
 368 -16 368 -16 263.5 42 c 128,-1,32
 159 100 159 100 93.5 191.5 c 128,-1,33
 28 283 28 283 10 388 c 0,34,35
 -5 472 -5 472 11.5 550 c 128,-1,36
 28 628 28 628 68.5 686 c 128,-1,37
 109 744 109 744 164 787.5 c 128,-1,38
 219 831 219 831 283 853.5 c 128,-1,39
 347 876 347 876 410 876 c 0,40,41
 518 876 518 876 598 828 c 0,42,43
 606 821 606 821 616 803.5 c 128,-1,44
 626 786 626 786 628 772 c 0,0,1
EndSplineSet
Substitution2: "'smcp' Lowercase to Small Capitals lookup 12 subtable" c.sc
EndChar

StartChar: d
Encoding: 67 100 70
Width: 1030
GlyphClass: 2
Flags: W
LayerCount: 4
Fore
SplineSet
400 876 m 0,0,1
 430 876 430 876 477 869 c 128,-1,2
 524 862 524 862 541 856 c 0,3,4
 551 856 551 856 544 898 c 2,5,-1
 505 1116 l 2,6,7
 491 1196 491 1196 477 1220 c 0,8,9
 456 1256 456 1256 349 1256 c 0,10,11
 348 1256 348 1256 344.5 1268.5 c 128,-1,12
 341 1281 341 1281 339.5 1294 c 128,-1,13
 338 1307 338 1307 341 1308 c 0,14,15
 477 1322 477 1322 611 1388 c 0,16,17
 618 1388 618 1388 627.5 1377.5 c 128,-1,18
 637 1367 637 1367 639 1356 c 0,19,20
 628 1292 628 1292 648 1182 c 2,21,-1
 799 326 l 2,22,23
 828 163 828 163 847 130 c 0,24,25
 855 118 855 118 875.5 110 c 128,-1,26
 896 102 896 102 915.5 99.5 c 128,-1,27
 935 97 935 97 952.5 95.5 c 128,-1,28
 970 94 970 94 971 94 c 0,29,30
 978 91 978 91 982 70 c 0,31,32
 983 64 983 64 980 52 c 128,-1,33
 977 40 977 40 971 40 c 0,34,35
 942 38 942 38 905.5 32 c 128,-1,36
 869 26 869 26 838 18 c 128,-1,37
 807 10 807 10 780.5 2 c 128,-1,38
 754 -6 754 -6 738 -11 c 2,39,-1
 721 -16 l 1,40,41
 705 -16 705 -16 698 22 c 2,42,-1
 686 92 l 2,43,44
 682 105 682 105 678 104 c 0,45,46
 654 72 654 72 575.5 28 c 128,-1,47
 497 -16 497 -16 433 -16 c 0,48,49
 293 -16 293 -16 165 108.5 c 128,-1,50
 37 233 37 233 5 412 c 0,51,52
 -11 505 -11 505 22.5 594 c 128,-1,53
 56 683 56 683 117.5 743 c 128,-1,54
 179 803 179 803 255.5 839.5 c 128,-1,55
 332 876 332 876 400 876 c 0,0,1
350 792 m 0,56,57
 241 792 241 792 191 692.5 c 128,-1,58
 141 593 141 593 165 460 c 0,59,60
 191 312 191 312 284.5 210 c 128,-1,61
 378 108 378 108 509 108 c 0,62,63
 573 108 573 108 623 135 c 128,-1,64
 673 162 673 162 669 188 c 2,65,-1
 580 694 l 2,66,67
 574 729 574 729 503 760.5 c 128,-1,68
 432 792 432 792 350 792 c 0,56,57
EndSplineSet
Substitution2: "'smcp' Lowercase to Small Capitals lookup 12 subtable" d.sc
EndChar

StartChar: e
Encoding: 68 101 71
Width: 860
GlyphClass: 2
Flags: W
LayerCount: 4
Fore
SplineSet
131 570 m 2,0,1
 457 570 l 0,2,3
 500 570 500 570 495 616 c 0,4,5
 492 636 492 636 478 666 c 128,-1,6
 464 696 464 696 440.5 728 c 128,-1,7
 417 760 417 760 379 782 c 128,-1,8
 341 804 341 804 298 804 c 0,9,10
 251 804 251 804 216.5 780 c 128,-1,11
 182 756 182 756 165.5 721.5 c 128,-1,12
 149 687 149 687 140.5 652.5 c 128,-1,13
 132 618 132 618 130.5 594 c 128,-1,14
 129 570 129 570 131 570 c 2,0,1
135 496 m 1,15,16
 136 489 136 489 137 481 c 0,17,18
 167 309 167 309 275 212 c 0,19,20
 388 112 388 112 528 112 c 0,21,22
 600 112 600 112 652.5 147 c 128,-1,23
 705 182 705 182 730 218 c 0,24,25
 731 218 731 218 735.5 214.5 c 128,-1,26
 740 211 740 211 744.5 204 c 128,-1,27
 749 197 749 197 750 190 c 0,28,29
 753 174 753 174 745 154 c 0,30,31
 734 128 734 128 714.5 102 c 128,-1,32
 695 76 695 76 663.5 48 c 128,-1,33
 632 20 632 20 585 2 c 128,-1,34
 538 -16 538 -16 483 -16 c 0,35,36
 308 -16 308 -16 174.5 102.5 c 128,-1,37
 41 221 41 221 9 400 c 0,38,39
 -8 497 -8 497 13.5 587 c 128,-1,40
 35 677 35 677 81 739 c 128,-1,41
 127 801 127 801 190.5 838.5 c 128,-1,42
 254 876 254 876 320 876 c 0,43,44
 388 876 388 876 446.5 855 c 128,-1,45
 505 834 505 834 542.5 803.5 c 128,-1,46
 580 773 580 773 607.5 734 c 128,-1,47
 635 695 635 695 649 663 c 128,-1,48
 663 631 663 631 667 604 c 0,49,50
 675 558 675 558 669 534.5 c 128,-1,51
 663 511 663 511 636 510 c 0,52,53
 596 507 596 507 378.5 501.5 c 128,-1,54
 161 496 161 496 135 496 c 1,15,16
EndSplineSet
Substitution2: "'smcp' Lowercase to Small Capitals lookup 12 subtable" e.sc
EndChar

StartChar: f
Encoding: 69 102 72
Width: 616
GlyphClass: 2
Flags: W
LayerCount: 4
Fore
SplineSet
293 1394 m 0,0,1
 336 1394 336 1394 350.5 1390 c 128,-1,2
 365 1386 365 1386 391 1370 c 0,3,4
 399 1363 399 1363 409 1345.5 c 128,-1,5
 419 1328 419 1328 421 1314 c 0,6,7
 425 1289 425 1289 420 1271.5 c 128,-1,8
 415 1254 415 1254 402.5 1246.5 c 128,-1,9
 390 1239 390 1239 378.5 1236.5 c 128,-1,10
 367 1234 367 1234 355 1234 c 0,11,12
 337 1234 337 1234 294 1256 c 0,13,14
 258 1274 258 1274 232 1274 c 0,15,16
 183 1274 183 1274 161 1224 c 0,17,18
 139 1177 139 1177 154 1092 c 0,19,20
 155 1089 155 1089 156 1086 c 2,21,-1
 199 838 l 1,22,-1
 435 838 l 2,23,24
 445 838 445 838 449 816 c 0,25,26
 455 784 455 784 432 756 c 1,27,-1
 214 756 l 1,28,-1
 306 232 l 2,29,30
 326 116 326 116 342 84 c 0,31,32
 348 70 348 70 400 61 c 128,-1,33
 452 52 452 52 482 52 c 1,34,35
 489 44 489 44 493.5 23 c 128,-1,36
 498 2 498 2 492 -6 c 1,37,38
 285 4 285 4 268 4 c 0,39,40
 233 4 233 4 201 2.5 c 128,-1,41
 169 1 169 1 127.5 -2 c 128,-1,42
 86 -5 86 -5 58 -6 c 1,43,44
 50 2 50 2 46.5 23 c 128,-1,45
 43 44 43 44 48 52 c 1,46,47
 77 52 77 52 122 61 c 128,-1,48
 167 70 167 70 168 84 c 0,49,50
 172 116 172 116 152 232 c 2,51,-1
 60 756 l 1,52,-1
 -56 756 l 2,53,54
 -66 756 -66 756 -69 774 c 0,55,56
 -70 779 -70 779 -52.5 804.5 c 128,-1,57
 -35 830 -35 830 -29 838 c 1,58,-1
 45 838 l 1,59,-1
 39 876 l 2,60,61
 21 979 21 979 40 1078.5 c 128,-1,62
 59 1178 59 1178 101 1245 c 128,-1,63
 143 1312 143 1312 195 1353 c 128,-1,64
 247 1394 247 1394 293 1394 c 0,0,1
EndSplineSet
Substitution2: "'smcp' Lowercase to Small Capitals lookup 12 subtable" f.sc
EndChar

StartChar: g
Encoding: 70 103 73
Width: 932
GlyphClass: 2
Flags: W
LayerCount: 4
Fore
SplineSet
286 818 m 0,0,1
 205 818 205 818 170 747 c 128,-1,2
 135 676 135 676 151 584 c 0,3,4
 168 486 168 486 234 410 c 128,-1,5
 300 334 300 334 387 334 c 0,6,7
 465 334 465 334 499 403.5 c 128,-1,8
 533 473 533 473 517 562 c 0,9,10
 499 664 499 664 436 741 c 128,-1,11
 373 818 373 818 286 818 c 0,0,1
511 -8 m 0,12,13
 343 -8 343 -8 327 -18 c 0,14,15
 287 -43 287 -43 256 -80 c 128,-1,16
 225 -117 225 -117 231 -152 c 0,17,18
 249 -252 249 -252 331 -314 c 128,-1,19
 413 -376 413 -376 538 -376 c 0,20,21
 606 -376 606 -376 671.5 -346 c 128,-1,22
 737 -316 737 -316 774.5 -265.5 c 128,-1,23
 812 -215 812 -215 803 -162 c 0,24,25
 799 -139 799 -139 779.5 -113.5 c 128,-1,26
 760 -88 760 -88 725.5 -63.5 c 128,-1,27
 691 -39 691 -39 634.5 -23.5 c 128,-1,28
 578 -8 578 -8 511 -8 c 0,12,13
578 134 m 2,29,30
 698 134 698 134 804.5 70.5 c 128,-1,31
 911 7 911 7 925 -76 c 0,32,33
 936 -137 936 -137 905 -204 c 128,-1,34
 874 -271 874 -271 814 -326 c 128,-1,35
 754 -381 754 -381 663 -417 c 128,-1,36
 572 -453 572 -453 472 -454 c 0,37,38
 469 -454 469 -454 466 -454 c 0,39,40
 384 -454 384 -454 306 -429 c 0,41,42
 224 -403 224 -403 160.5 -345.5 c 128,-1,43
 97 -288 97 -288 83 -210 c 0,44,45
 78 -179 78 -179 94.5 -146 c 128,-1,46
 111 -113 111 -113 142.5 -85 c 128,-1,47
 174 -57 174 -57 202 -37.5 c 128,-1,48
 230 -18 230 -18 258 -2 c 1,49,50
 191 18 191 18 132.5 67 c 128,-1,51
 74 116 74 116 62 184 c 1,52,53
 80 211 80 211 129.5 255 c 128,-1,54
 179 299 179 299 210 320 c 1,55,56
 129 361 129 361 70 432 c 128,-1,57
 11 503 11 503 -2 576 c 0,58,59
 -23 697 -23 697 59.5 787.5 c 128,-1,60
 142 878 142 878 283 878 c 0,61,62
 307 878 307 878 330.5 875.5 c 128,-1,63
 354 873 354 873 378 866 c 128,-1,64
 402 859 402 859 413 856 c 128,-1,65
 424 853 424 853 448 844 c 2,66,-1
 473 834 l 2,67,68
 501 824 501 824 521 820 c 1,69,-1
 730 850 l 1,70,71
 751 844 751 844 754 830 c 0,72,73
 756 817 756 817 745.5 786.5 c 128,-1,74
 735 756 735 756 722 748 c 1,75,-1
 589 756 l 2,76,77
 581 756 581 756 582 750 c 1,78,79
 598 736 598 736 628.5 681.5 c 128,-1,80
 659 627 659 627 670 568 c 0,81,82
 689 458 689 458 606 366 c 128,-1,83
 523 274 523 274 384 274 c 0,84,85
 359 274 359 274 322 280 c 128,-1,86
 285 286 285 286 269 292 c 1,87,88
 242 275 242 275 224 250.5 c 128,-1,89
 206 226 206 226 210 204 c 0,90,91
 214 184 214 184 251.5 159 c 128,-1,92
 289 134 289 134 342 134 c 2,93,-1
 578 134 l 2,29,30
EndSplineSet
Substitution2: "'smcp' Lowercase to Small Capitals lookup 12 subtable" g.sc
EndChar

StartChar: h
Encoding: 71 104 74
Width: 1032
GlyphClass: 2
Flags: W
LayerCount: 4
Fore
SplineSet
461 876 m 0,0,1
 526 876 526 876 574 859 c 128,-1,2
 622 842 622 842 656 811 c 128,-1,3
 690 780 690 780 716.5 726 c 128,-1,4
 743 672 743 672 760 608 c 128,-1,5
 777 544 777 544 793 452 c 2,6,-1
 832 232 l 2,7,8
 852 116 852 116 868 84 c 0,9,10
 874 70 874 70 922.5 61 c 128,-1,11
 971 52 971 52 1000 52 c 1,12,13
 1007 44 1007 44 1011.5 23 c 128,-1,14
 1016 2 1016 2 1010 -6 c 1,15,16
 803 4 803 4 794 4 c 0,17,18
 759 4 759 4 727 2.5 c 128,-1,19
 695 1 695 1 653.5 -2 c 128,-1,20
 612 -5 612 -5 584 -6 c 1,21,22
 576 2 576 2 572.5 23 c 128,-1,23
 569 44 569 44 574 52 c 1,24,25
 603 52 603 52 648 61 c 128,-1,26
 693 70 693 70 694 84 c 0,27,28
 698 116 698 116 678 232 c 2,29,-1
 643 432 l 2,30,31
 610 621 610 621 557 690.5 c 128,-1,32
 504 760 504 760 389 760 c 0,33,34
 355 760 355 760 312.5 736 c 128,-1,35
 270 712 270 712 243.5 686 c 128,-1,36
 217 660 217 660 218 650 c 2,37,-1
 292 232 l 2,38,39
 312 116 312 116 328 84 c 0,40,41
 334 70 334 70 382.5 61 c 128,-1,42
 431 52 431 52 460 52 c 1,43,44
 467 44 467 44 471.5 23 c 128,-1,45
 476 2 476 2 470 -6 c 1,46,47
 263 4 263 4 254 4 c 0,48,49
 219 4 219 4 187 2.5 c 128,-1,50
 155 1 155 1 113.5 -2 c 128,-1,51
 72 -5 72 -5 44 -6 c 1,52,53
 36 2 36 2 32.5 23 c 128,-1,54
 29 44 29 44 34 52 c 1,55,56
 63 52 63 52 108 61 c 128,-1,57
 153 70 153 70 154 84 c 0,58,59
 158 116 158 116 138 232 c 2,60,-1
 -18 1116 l 2,61,62
 -32 1196 -32 1196 -46 1220 c 0,63,64
 -67 1256 -67 1256 -174 1256 c 0,65,66
 -175 1256 -175 1256 -178.5 1268.5 c 128,-1,67
 -182 1281 -182 1281 -183.5 1294 c 128,-1,68
 -185 1307 -185 1307 -182 1308 c 0,69,70
 -46 1322 -46 1322 88 1388 c 0,71,72
 95 1388 95 1388 104.5 1377.5 c 128,-1,73
 114 1367 114 1367 116 1356 c 0,74,75
 105 1292 105 1292 125 1182 c 2,76,-1
 204 730 l 2,77,78
 205 726 205 726 211 726 c 0,79,80
 213 726 213 726 216 730 c 0,81,82
 248 774 248 774 322.5 825 c 128,-1,83
 397 876 397 876 461 876 c 0,0,1
EndSplineSet
Substitution2: "'smcp' Lowercase to Small Capitals lookup 12 subtable" h.sc
EndChar

StartChar: i
Encoding: 72 105 75
Width: 540
GlyphClass: 2
Flags: W
LayerCount: 4
Fore
SplineSet
-38.5 1186 m 0
 -46 1228 -46 1228 -22 1257 c 0
 2 1286 2 1286 44 1286 c 0
 86 1286 86 1286 120 1257 c 0
 154 1228 154 1228 161.5 1186 c 0
 169 1144 169 1144 145.5 1115 c 0
 122 1086 122 1086 80 1086 c 0
 38 1086 38 1086 3.5 1115 c 0
 -31 1144 -31 1144 -38.5 1186 c 0
EndSplineSet
Refer: 242 305 S 1 0 0 1 0 0 2
Substitution2: "'smcp' Lowercase to Small Capitals lookup 12 subtable" i.sc
Substitution2: "'ccmp' Glyph Composition/Decomposition in Latin lookup 10 subtable" i.TRK
EndChar

StartChar: j
Encoding: 73 106 76
Width: 478
GlyphClass: 2
Flags: W
LayerCount: 4
Fore
SplineSet
-77.5 1186 m 0
 -85 1228 -85 1228 -61 1257 c 0
 -37 1286 -37 1286 5 1286 c 0
 47 1286 47 1286 81 1257 c 0
 115 1228 115 1228 122.5 1186 c 0
 130 1144 130 1144 106.5 1115 c 0
 83 1086 83 1086 41 1086 c 0
 -1 1086 -1 1086 -35.5 1115 c 0
 -70 1144 -70 1144 -77.5 1186 c 0
EndSplineSet
Refer: 359 567 S 1 0 0 1 0 0 2
Substitution2: "'smcp' Lowercase to Small Capitals lookup 12 subtable" j.sc
EndChar

StartChar: k
Encoding: 74 107 77
Width: 1036
GlyphClass: 2
Flags: W
LayerCount: 4
Fore
SplineSet
292 232 m 2,0,1
 312 116 312 116 328 84 c 0,2,3
 334 70 334 70 382.5 61 c 128,-1,4
 431 52 431 52 460 52 c 1,5,6
 467 44 467 44 471.5 23 c 128,-1,7
 476 2 476 2 470 -6 c 1,8,9
 263 4 263 4 254 4 c 0,10,11
 219 4 219 4 187 2.5 c 128,-1,12
 155 1 155 1 113.5 -2 c 128,-1,13
 72 -5 72 -5 44 -6 c 1,14,15
 36 2 36 2 32.5 23 c 128,-1,16
 29 44 29 44 34 52 c 1,17,18
 63 52 63 52 108 61 c 128,-1,19
 153 70 153 70 154 84 c 0,20,21
 158 116 158 116 138 232 c 2,22,-1
 -18 1116 l 2,23,24
 -32 1196 -32 1196 -46 1220 c 0,25,26
 -67 1256 -67 1256 -174 1256 c 0,27,28
 -175 1256 -175 1256 -178.5 1268.5 c 128,-1,29
 -182 1281 -182 1281 -183.5 1294 c 128,-1,30
 -185 1307 -185 1307 -182 1308 c 0,31,32
 -46 1322 -46 1322 88 1388 c 0,33,34
 95 1388 95 1388 104.5 1377.5 c 128,-1,35
 114 1367 114 1367 116 1356 c 0,36,37
 105 1292 105 1292 125 1182 c 2,38,-1
 250 470 l 1,39,40
 284 483 284 483 393 592 c 0,41,42
 414 613 414 613 442 640.5 c 128,-1,43
 470 668 470 668 487 683.5 c 128,-1,44
 504 699 504 699 519.5 715.5 c 128,-1,45
 535 732 535 732 541.5 742 c 128,-1,46
 548 752 548 752 547 758 c 128,-1,47
 546 764 546 764 541.5 769 c 128,-1,48
 537 774 537 774 528 777.5 c 128,-1,49
 519 781 519 781 510.5 783.5 c 128,-1,50
 502 786 502 786 491.5 787.5 c 128,-1,51
 481 789 481 789 473.5 789.5 c 128,-1,52
 466 790 466 790 456.5 791 c 128,-1,53
 447 792 447 792 445 792 c 0,54,55
 436 803 436 803 434 825 c 128,-1,56
 432 847 432 847 439 850 c 0,57,58
 538 840 538 840 633 840 c 0,59,60
 736 840 736 840 807 850 c 1,61,62
 815 841 815 841 818 819.5 c 128,-1,63
 821 798 821 798 817 792 c 1,64,65
 790 792 790 792 743 779 c 128,-1,66
 696 766 696 766 671 746 c 0,67,68
 478 585 478 585 391 498 c 1,69,70
 459 437 459 437 562.5 339.5 c 128,-1,71
 666 242 666 242 731 183 c 128,-1,72
 796 124 796 124 820 106 c 0,73,74
 861 77 861 77 915 64 c 0,75,76
 962 52 962 52 1002 52 c 0,77,78
 1008 52 1008 52 1014 52 c 1,79,80
 1018 47 1018 47 1022.5 29.5 c 128,-1,81
 1027 12 1027 12 1024 4 c 1,82,83
 998 -8 998 -8 896 -8 c 0,84,85
 816 -8 816 -8 742 21 c 128,-1,86
 668 50 668 50 635 80 c 0,87,88
 430 266 430 266 294 390 c 0,89,90
 289 394 289 394 281 398.5 c 128,-1,91
 273 403 273 403 266 406 c 2,92,-1
 261 408 l 1,93,-1
 292 232 l 2,0,1
EndSplineSet
Substitution2: "'smcp' Lowercase to Small Capitals lookup 12 subtable" k.sc
EndChar

StartChar: l
Encoding: 75 108 78
Width: 510
GlyphClass: 2
Flags: W
LayerCount: 4
Fore
SplineSet
-18 1116 m 2,0,1
 -32 1196 -32 1196 -46 1220 c 0,2,3
 -67 1256 -67 1256 -174 1256 c 0,4,5
 -175 1256 -175 1256 -178.5 1268.5 c 128,-1,6
 -182 1281 -182 1281 -183.5 1294 c 128,-1,7
 -185 1307 -185 1307 -182 1308 c 0,8,9
 -46 1322 -46 1322 88 1388 c 0,10,11
 95 1388 95 1388 104.5 1377.5 c 128,-1,12
 114 1367 114 1367 116 1356 c 0,13,14
 105 1292 105 1292 125 1182 c 2,15,-1
 292 232 l 2,16,17
 312 116 312 116 328 84 c 0,18,19
 334 70 334 70 382.5 61 c 128,-1,20
 431 52 431 52 460 52 c 1,21,22
 467 44 467 44 471.5 23 c 128,-1,23
 476 2 476 2 470 -6 c 1,24,25
 263 4 263 4 254 4 c 0,26,27
 219 4 219 4 187 2.5 c 128,-1,28
 155 1 155 1 113.5 -2 c 128,-1,29
 72 -5 72 -5 44 -6 c 1,30,31
 36 2 36 2 32.5 23 c 128,-1,32
 29 44 29 44 34 52 c 1,33,34
 63 52 63 52 108 61 c 128,-1,35
 153 70 153 70 154 84 c 0,36,37
 158 116 158 116 138 232 c 2,38,-1
 -18 1116 l 2,0,1
EndSplineSet
Substitution2: "'smcp' Lowercase to Small Capitals lookup 12 subtable" l.sc
EndChar

StartChar: m
Encoding: 76 109 79
Width: 1580
GlyphClass: 2
Flags: W
LayerCount: 4
Fore
SplineSet
485 876 m 0,0,1
 576 876 576 876 639.5 837 c 128,-1,2
 703 798 703 798 742 710 c 1,3,4
 896 876 896 876 1007 876 c 0,5,6
 1072 876 1072 876 1120 859 c 128,-1,7
 1168 842 1168 842 1202 811 c 128,-1,8
 1236 780 1236 780 1262.5 726 c 128,-1,9
 1289 672 1289 672 1306 608 c 128,-1,10
 1323 544 1323 544 1339 452 c 2,11,-1
 1378 232 l 2,12,13
 1398 116 1398 116 1414 84 c 0,14,15
 1420 70 1420 70 1468.5 61 c 128,-1,16
 1517 52 1517 52 1546 52 c 1,17,18
 1553 44 1553 44 1557.5 23 c 128,-1,19
 1562 2 1562 2 1556 -6 c 1,20,21
 1349 4 1349 4 1340 4 c 0,22,23
 1305 4 1305 4 1273 2.5 c 128,-1,24
 1241 1 1241 1 1199.5 -2 c 128,-1,25
 1158 -5 1158 -5 1130 -6 c 1,26,27
 1122 2 1122 2 1118.5 23 c 128,-1,28
 1115 44 1115 44 1120 52 c 1,29,30
 1149 52 1149 52 1194 61 c 128,-1,31
 1239 70 1239 70 1240 84 c 0,32,33
 1244 116 1244 116 1224 232 c 2,34,-1
 1186 446 l 2,35,36
 1175 510 1175 510 1163 555 c 128,-1,37
 1151 600 1151 600 1132.5 641.5 c 128,-1,38
 1114 683 1114 683 1089 707 c 128,-1,39
 1064 731 1064 731 1027.5 745.5 c 128,-1,40
 991 760 991 760 943 760 c 0,41,42
 899 760 899 760 855 734 c 128,-1,43
 811 708 811 708 788.5 681.5 c 128,-1,44
 766 655 766 655 767 646 c 0,45,46
 767 645 767 645 770 633.5 c 128,-1,47
 773 622 773 622 774 620 c 0,48,49
 791 569 791 569 807 478 c 2,50,-1
 850 232 l 2,51,52
 870 116 870 116 886 84 c 0,53,54
 892 70 892 70 940.5 61 c 128,-1,55
 989 52 989 52 1018 52 c 1,56,57
 1025 44 1025 44 1029.5 23 c 128,-1,58
 1034 2 1034 2 1028 -6 c 1,59,60
 821 4 821 4 812 4 c 0,61,62
 777 4 777 4 745 2.5 c 128,-1,63
 713 1 713 1 671.5 -2 c 128,-1,64
 630 -5 630 -5 602 -6 c 1,65,66
 594 2 594 2 590.5 23 c 128,-1,67
 587 44 587 44 592 52 c 1,68,69
 621 52 621 52 666 61 c 128,-1,70
 711 70 711 70 712 84 c 0,71,72
 716 116 716 116 696 232 c 2,73,-1
 660 436 l 2,74,75
 628 620 628 620 575.5 690 c 128,-1,76
 523 760 523 760 415 760 c 0,77,78
 354 760 354 760 299 717 c 128,-1,79
 244 674 244 674 248 650 c 2,80,-1
 322 232 l 2,81,82
 342 116 342 116 358 84 c 0,83,84
 364 70 364 70 412.5 61 c 128,-1,85
 461 52 461 52 490 52 c 1,86,87
 497 44 497 44 501.5 23 c 128,-1,88
 506 2 506 2 500 -6 c 1,89,90
 293 4 293 4 284 4 c 0,91,92
 249 4 249 4 217 2.5 c 128,-1,93
 185 1 185 1 143.5 -2 c 128,-1,94
 102 -5 102 -5 74 -6 c 1,95,96
 66 2 66 2 62.5 23 c 128,-1,97
 59 44 59 44 64 52 c 1,98,99
 93 52 93 52 138 61 c 128,-1,100
 183 70 183 70 184 84 c 0,101,102
 188 116 188 116 168 232 c 2,103,-1
 104 596 l 2,104,105
 88 684 88 684 74 708 c 0,106,107
 65 723 65 723 31.5 732 c 128,-1,108
 -2 741 -2 741 -23.5 742.5 c 128,-1,109
 -45 744 -45 744 -62 744 c 1,110,111
 -67 748 -67 748 -71 768 c 128,-1,112
 -75 788 -75 788 -71 796 c 1,113,114
 96 819 96 819 200 880 c 0,115,116
 207 880 207 880 216.5 868 c 128,-1,117
 226 856 226 856 227 848 c 0,118,119
 230 764 230 764 234 744 c 0,120,121
 235 736 235 736 239 736 c 0,122,123
 241 736 241 736 245 740 c 0,124,125
 324 818 324 818 378 847 c 0,126,127
 433 876 433 876 485 876 c 0,0,1
EndSplineSet
Substitution2: "'smcp' Lowercase to Small Capitals lookup 12 subtable" m.sc
EndChar

StartChar: n
Encoding: 77 110 80
Width: 1064
GlyphClass: 2
Flags: W
LayerCount: 4
Fore
SplineSet
491 876 m 0,0,1
 556 876 556 876 604 859 c 128,-1,2
 652 842 652 842 686 811 c 128,-1,3
 720 780 720 780 746.5 726 c 128,-1,4
 773 672 773 672 790 608 c 128,-1,5
 807 544 807 544 823 452 c 2,6,-1
 862 232 l 2,7,8
 882 116 882 116 898 84 c 0,9,10
 904 70 904 70 952.5 61 c 128,-1,11
 1001 52 1001 52 1030 52 c 1,12,13
 1037 44 1037 44 1041.5 23 c 128,-1,14
 1046 2 1046 2 1040 -6 c 1,15,16
 833 4 833 4 824 4 c 0,17,18
 789 4 789 4 757 2.5 c 128,-1,19
 725 1 725 1 683.5 -2 c 128,-1,20
 642 -5 642 -5 614 -6 c 1,21,22
 606 2 606 2 602.5 23 c 128,-1,23
 599 44 599 44 604 52 c 1,24,25
 633 52 633 52 678 61 c 128,-1,26
 723 70 723 70 724 84 c 0,27,28
 728 116 728 116 708 232 c 2,29,-1
 673 432 l 2,30,31
 640 621 640 621 587 690.5 c 128,-1,32
 534 760 534 760 419 760 c 0,33,34
 385 760 385 760 342.5 736 c 128,-1,35
 300 712 300 712 273.5 686 c 128,-1,36
 247 660 247 660 248 650 c 2,37,-1
 322 232 l 2,38,39
 342 116 342 116 358 84 c 0,40,41
 364 70 364 70 412.5 61 c 128,-1,42
 461 52 461 52 490 52 c 1,43,44
 497 44 497 44 501.5 23 c 128,-1,45
 506 2 506 2 500 -6 c 1,46,47
 293 4 293 4 284 4 c 0,48,49
 249 4 249 4 217 2.5 c 128,-1,50
 185 1 185 1 143.5 -2 c 128,-1,51
 102 -5 102 -5 74 -6 c 1,52,53
 66 2 66 2 62.5 23 c 128,-1,54
 59 44 59 44 64 52 c 1,55,56
 93 52 93 52 138 61 c 128,-1,57
 183 70 183 70 184 84 c 0,58,59
 188 116 188 116 168 232 c 2,60,-1
 104 596 l 2,61,62
 88 684 88 684 74 708 c 0,63,64
 65 723 65 723 31.5 732 c 128,-1,65
 -2 741 -2 741 -23.5 742.5 c 128,-1,66
 -45 744 -45 744 -62 744 c 1,67,68
 -67 748 -67 748 -71 768 c 128,-1,69
 -75 788 -75 788 -71 796 c 1,70,71
 96 819 96 819 200 880 c 0,72,73
 207 880 207 880 216.5 868 c 128,-1,74
 226 856 226 856 227 848 c 0,75,76
 230 764 230 764 236 734 c 0,77,78
 237 726 237 726 241 726 c 0,79,80
 243 726 243 726 246 730 c 0,81,82
 278 774 278 774 352.5 825 c 128,-1,83
 427 876 427 876 491 876 c 0,0,1
EndSplineSet
Substitution2: "'smcp' Lowercase to Small Capitals lookup 12 subtable" n.sc
EndChar

StartChar: o
Encoding: 78 111 81
Width: 1018
GlyphClass: 2
Flags: W
LayerCount: 4
Fore
SplineSet
343 812 m 0,0,1
 262 812 262 812 217 760 c 128,-1,2
 172 708 172 708 164 633 c 128,-1,3
 156 558 156 558 172 466 c 0,4,5
 190 365 190 365 237 272.5 c 128,-1,6
 284 180 284 180 360.5 116 c 128,-1,7
 437 52 437 52 523 52 c 0,8,9
 604 52 604 52 648.5 104 c 128,-1,10
 693 156 693 156 701.5 230.5 c 128,-1,11
 710 305 710 305 694 396 c 0,12,13
 676 496 676 496 628.5 589.5 c 128,-1,14
 581 683 581 683 504.5 747.5 c 128,-1,15
 428 812 428 812 343 812 c 0,0,1
353 878 m 0,16,17
 548 878 548 878 686 755.5 c 128,-1,18
 824 633 824 633 858 442 c 0,19,20
 892 248 892 248 793.5 117 c 128,-1,21
 695 -14 695 -14 514 -14 c 0,22,23
 319 -14 319 -14 180 110.5 c 128,-1,24
 41 235 41 235 7 426 c 0,25,26
 -27 619 -27 619 72 748.5 c 128,-1,27
 171 878 171 878 353 878 c 0,16,17
EndSplineSet
Substitution2: "'smcp' Lowercase to Small Capitals lookup 12 subtable" o.sc
EndChar

StartChar: p
Encoding: 79 112 82
Width: 1020
GlyphClass: 2
Flags: W
LayerCount: 4
Fore
SplineSet
427 876 m 0,0,1
 515 876 515 876 593.5 836.5 c 128,-1,2
 672 797 672 797 726 734 c 128,-1,3
 780 671 780 671 814.5 601 c 128,-1,4
 849 531 849 531 861 464 c 0,5,6
 878 370 878 370 852 280.5 c 128,-1,7
 826 191 826 191 771.5 126.5 c 128,-1,8
 717 62 717 62 639.5 23 c 128,-1,9
 562 -16 562 -16 478 -16 c 0,10,11
 408 -16 408 -16 334 6 c 1,12,13
 328 -4 328 -4 331 -20 c 2,14,-1
 365 -214 l 2,15,16
 385 -330 385 -330 401 -362 c 0,17,18
 407 -376 407 -376 455 -385 c 128,-1,19
 503 -394 503 -394 532 -394 c 1,20,21
 539 -402 539 -402 543.5 -423 c 128,-1,22
 548 -444 548 -444 543 -452 c 1,23,24
 336 -442 336 -442 327 -442 c 0,25,26
 292 -442 292 -442 259.5 -443.5 c 128,-1,27
 227 -445 227 -445 186 -448 c 128,-1,28
 145 -451 145 -451 117 -452 c 1,29,30
 109 -444 109 -444 105.5 -423 c 128,-1,31
 102 -402 102 -402 106 -394 c 1,32,33
 135 -394 135 -394 180 -385 c 128,-1,34
 225 -376 225 -376 227 -362 c 0,35,36
 231 -337 231 -337 211 -214 c 2,37,-1
 66 604 l 2,38,39
 52 684 52 684 38 708 c 0,40,41
 29 723 29 723 -4.5 732 c 128,-1,42
 -38 741 -38 741 -59.5 742.5 c 128,-1,43
 -81 744 -81 744 -98 744 c 1,44,45
 -103 748 -103 748 -107 768 c 128,-1,46
 -111 788 -111 788 -107 796 c 1,47,48
 60 819 60 819 164 880 c 0,49,50
 171 880 171 880 180.5 868 c 128,-1,51
 190 856 190 856 191 848 c 0,52,53
 191 847 191 847 190.5 811.5 c 128,-1,54
 190 776 190 776 192 766 c 0,55,56
 193 758 193 758 197 758 c 0,57,58
 199 758 199 758 203 762 c 0,59,60
 243 802 243 802 308 839 c 128,-1,61
 373 876 373 876 427 876 c 0,0,1
361 758 m 0,62,63
 303 758 303 758 253 730.5 c 128,-1,64
 203 703 203 703 207 680 c 2,65,-1
 292 200 l 2,66,67
 304 130 304 130 371 92 c 128,-1,68
 438 54 438 54 503 54 c 0,69,70
 582 54 582 54 634.5 105 c 128,-1,71
 687 156 687 156 704 231.5 c 128,-1,72
 721 307 721 307 706 390 c 0,73,74
 676 562 676 562 578 660 c 128,-1,75
 480 758 480 758 361 758 c 0,62,63
EndSplineSet
Substitution2: "'smcp' Lowercase to Small Capitals lookup 12 subtable" p.sc
EndChar

StartChar: q
Encoding: 80 113 83
Width: 994
GlyphClass: 2
Flags: W
LayerCount: 4
Fore
SplineSet
370 804 m 0,0,1
 303 804 303 804 255.5 769.5 c 128,-1,2
 208 735 208 735 187.5 682 c 128,-1,3
 167 629 167 629 160.5 574 c 128,-1,4
 154 519 154 519 163 470 c 0,5,6
 193 298 193 298 291.5 202 c 128,-1,7
 390 106 390 106 519 106 c 0,8,9
 576 106 576 106 622.5 134 c 128,-1,10
 669 162 669 162 665 186 c 2,11,-1
 581 664 l 2,12,13
 570 725 570 725 505.5 764.5 c 128,-1,14
 441 804 441 804 370 804 c 0,0,1
418 876 m 0,15,16
 447 876 447 876 538.5 851 c 128,-1,17
 630 826 630 826 664 826 c 0,18,19
 686 826 686 826 703 832 c 0,20,21
 711 832 711 832 723 814.5 c 128,-1,22
 735 797 735 797 737 788 c 0,23,24
 722 735 722 735 739 640 c 2,25,-1
 890 -216 l 2,26,27
 910 -332 910 -332 926 -364 c 0,28,29
 932 -378 932 -378 980.5 -387 c 128,-1,30
 1029 -396 1029 -396 1058 -396 c 1,31,32
 1065 -404 1065 -404 1069.5 -425 c 128,-1,33
 1074 -446 1074 -446 1068 -454 c 1,34,35
 861 -444 861 -444 852 -444 c 0,36,37
 817 -444 817 -444 785 -445.5 c 128,-1,38
 753 -447 753 -447 711.5 -450 c 128,-1,39
 670 -453 670 -453 642 -454 c 1,40,41
 634 -446 634 -446 630.5 -425 c 128,-1,42
 627 -404 627 -404 632 -396 c 1,43,44
 661 -396 661 -396 706 -387 c 128,-1,45
 751 -378 751 -378 752 -364 c 0,46,47
 756 -332 756 -332 736 -216 c 2,48,-1
 684 80 l 2,49,50
 682 90 682 90 677 97.5 c 128,-1,51
 672 105 672 105 666 100 c 0,52,53
 636 69 636 69 564 27.5 c 128,-1,54
 492 -14 492 -14 436 -14 c 0,55,56
 370 -14 370 -14 306.5 11.5 c 128,-1,57
 243 37 243 37 194.5 79.5 c 128,-1,58
 146 122 146 122 106 176 c 128,-1,59
 66 230 66 230 41.5 287 c 128,-1,60
 17 344 17 344 8 398 c 0,61,62
 -6 477 -6 477 11 552.5 c 128,-1,63
 28 628 28 628 69.5 685 c 128,-1,64
 111 742 111 742 167 786 c 128,-1,65
 223 830 223 830 288.5 853 c 128,-1,66
 354 876 354 876 418 876 c 0,15,16
EndSplineSet
Substitution2: "'smcp' Lowercase to Small Capitals lookup 12 subtable" q.sc
EndChar

StartChar: r
Encoding: 81 114 84
Width: 766
GlyphClass: 2
Flags: W
LayerCount: 4
Fore
SplineSet
453 874 m 0,0,1
 492 874 492 874 529.5 857 c 128,-1,2
 567 840 567 840 585 816 c 1,3,4
 597 792 597 792 603 762 c 0,5,6
 612 713 612 713 593.5 685.5 c 128,-1,7
 575 658 575 658 555 658 c 0,8,9
 542 658 542 658 529.5 663.5 c 128,-1,10
 517 669 517 669 497.5 681.5 c 128,-1,11
 478 694 478 694 474 696 c 0,12,13
 434 720 434 720 396 720 c 0,14,15
 338 720 338 720 299 651.5 c 128,-1,16
 260 583 260 583 268 540 c 2,17,-1
 322 232 l 2,18,19
 342 116 342 116 358 84 c 0,20,21
 364 70 364 70 432.5 61 c 128,-1,22
 501 52 501 52 536 52 c 1,23,24
 543 44 543 44 547.5 23 c 128,-1,25
 552 2 552 2 546 -6 c 1,26,27
 339 4 339 4 296 4 c 0,28,29
 277 4 277 4 74 -6 c 1,30,31
 66 2 66 2 62.5 23 c 128,-1,32
 59 44 59 44 64 52 c 1,33,34
 93 52 93 52 138 61 c 128,-1,35
 183 70 183 70 184 84 c 0,36,37
 188 109 188 109 168 232 c 2,38,-1
 102 604 l 2,39,40
 88 684 88 684 74 708 c 0,41,42
 65 723 65 723 31.5 732 c 128,-1,43
 -2 741 -2 741 -23.5 742.5 c 128,-1,44
 -45 744 -45 744 -62 744 c 1,45,46
 -67 748 -67 748 -71 768 c 128,-1,47
 -75 788 -75 788 -71 796 c 1,48,49
 96 819 96 819 200 880 c 0,50,51
 207 880 207 880 216.5 868 c 128,-1,52
 226 856 226 856 227 848 c 0,53,54
 227 836 227 836 235 757.5 c 128,-1,55
 243 679 243 679 246 664 c 0,56,57
 247 660 247 660 249 658.5 c 128,-1,58
 251 657 251 657 252.5 657.5 c 128,-1,59
 254 658 254 658 255 660 c 0,60,61
 276 734 276 734 333.5 804 c 128,-1,62
 391 874 391 874 453 874 c 0,0,1
EndSplineSet
Substitution2: "'smcp' Lowercase to Small Capitals lookup 12 subtable" r.sc
EndChar

StartChar: s
Encoding: 82 115 85
Width: 738
GlyphClass: 2
Flags: W
LayerCount: 4
Fore
SplineSet
236 874 m 0,0,1
 281 874 281 874 349 862.5 c 128,-1,2
 417 851 417 851 444 848 c 1,3,4
 480 758 480 758 507 628 c 0,5,6
 509 618 509 618 489 618 c 0,7,8
 467 618 467 618 453 628 c 1,9,10
 423 695 423 695 367 753.5 c 128,-1,11
 311 812 311 812 253 812 c 0,12,13
 184 812 184 812 153.5 777 c 128,-1,14
 123 742 123 742 133 686 c 0,15,16
 137 661 137 661 148.5 639.5 c 128,-1,17
 160 618 160 618 171.5 604 c 128,-1,18
 183 590 183 590 207.5 573 c 128,-1,19
 232 556 232 556 245.5 548 c 128,-1,20
 259 540 259 540 293 522.5 c 128,-1,21
 327 505 327 505 340 498 c 0,22,23
 350 493 350 493 384 475 c 128,-1,24
 418 457 418 457 434.5 447.5 c 128,-1,25
 451 438 451 438 481.5 419.5 c 128,-1,26
 512 401 512 401 529 385.5 c 128,-1,27
 546 370 546 370 566 348.5 c 128,-1,28
 586 327 586 327 597.5 303.5 c 128,-1,29
 609 280 609 280 613 254 c 0,30,31
 634 135 634 135 556.5 56.5 c 128,-1,32
 479 -22 479 -22 354 -22 c 0,33,34
 313 -22 313 -22 276.5 -16.5 c 128,-1,35
 240 -11 240 -11 190.5 0 c 128,-1,36
 141 11 141 11 113 16 c 1,37,38
 96 47 96 47 73 115.5 c 128,-1,39
 50 184 50 184 43 224 c 1,40,41
 57 236 57 236 76 236 c 0,42,43
 88 236 88 236 95 232 c 1,44,45
 128 161 128 161 199.5 101.5 c 128,-1,46
 271 42 271 42 345 42 c 0,47,48
 408 42 408 42 441.5 80.5 c 128,-1,49
 475 119 475 119 463 186 c 0,50,51
 457 221 457 221 439.5 249 c 128,-1,52
 422 277 422 277 389 301 c 128,-1,53
 356 325 356 325 330.5 339.5 c 128,-1,54
 305 354 305 354 253.5 378.5 c 128,-1,55
 202 403 202 403 179 416 c 0,56,57
 102 456 102 456 52 506.5 c 128,-1,58
 2 557 2 557 -11 630 c 0,59,60
 -30 737 -30 737 45 805.5 c 128,-1,61
 120 874 120 874 236 874 c 0,0,1
EndSplineSet
Substitution2: "'smcp' Lowercase to Small Capitals lookup 12 subtable" s.sc
EndChar

StartChar: t
Encoding: 83 116 86
Width: 622
GlyphClass: 2
Flags: W
LayerCount: 4
Fore
SplineSet
168 864 m 1,0,-1
 426 864 l 2,1,2
 436 864 436 864 440 842 c 0,3,4
 446 810 446 810 422 782 c 1,5,-1
 182 782 l 1,6,-1
 275 258 l 2,7,8
 304 94 304 94 435 94 c 0,9,10
 501 94 501 94 557 140 c 1,11,12
 564 137 564 137 566 126 c 0,13,14
 570 104 570 104 563 96 c 0,15,16
 547 74 547 74 526.5 52.5 c 128,-1,17
 506 31 506 31 463.5 8.5 c 128,-1,18
 421 -14 421 -14 376 -14 c 0,19,20
 335 -14 335 -14 298.5 -4 c 128,-1,21
 262 6 262 6 227 29 c 128,-1,22
 192 52 192 52 166.5 96 c 128,-1,23
 141 140 141 140 130 202 c 2,24,-1
 28 782 l 1,25,-1
 -88 782 l 2,26,27
 -98 782 -98 782 -101 800 c 0,28,29
 -102 805 -102 805 -84.5 830.5 c 128,-1,30
 -67 856 -67 856 -60 864 c 1,31,-1
 14 864 l 1,32,-1
 -9 990 l 1,33,34
 4 1009 4 1009 28.5 1041.5 c 128,-1,35
 53 1074 53 1074 70.5 1098 c 128,-1,36
 88 1122 88 1122 90 1124 c 0,37,38
 94 1129 94 1129 101 1131 c 128,-1,39
 108 1133 108 1133 114.5 1131.5 c 128,-1,40
 121 1130 121 1130 121 1126 c 2,41,-1
 168 864 l 1,0,-1
EndSplineSet
Substitution2: "'smcp' Lowercase to Small Capitals lookup 12 subtable" t.sc
EndChar

StartChar: u
Encoding: 84 117 87
Width: 1030
GlyphClass: 2
Flags: W
LayerCount: 4
Fore
SplineSet
586 640 m 2,0,1
 572 718 572 718 551 748 c 0,2,3
 522 788 522 788 432 788 c 1,4,5
 426 793 426 793 422 812.5 c 128,-1,6
 418 832 418 832 423 840 c 1,7,8
 586 846 586 846 690 880 c 0,9,10
 697 880 697 880 708 860.5 c 128,-1,11
 719 841 719 841 720 832 c 1,12,13
 711 804 711 804 729 702 c 2,14,-1
 745 610 l 1,15,-1
 803 282 l 2,16,17
 818 195 818 195 844 130 c 0,18,19
 849 117 849 117 869.5 109 c 128,-1,20
 890 101 890 101 910 98.5 c 128,-1,21
 930 96 930 96 948.5 95 c 128,-1,22
 967 94 967 94 968 94 c 0,23,24
 975 91 975 91 978 72 c 0,25,26
 979 66 979 66 976.5 53 c 128,-1,27
 974 40 974 40 968 40 c 0,28,29
 939 38 939 38 902.5 32 c 128,-1,30
 866 26 866 26 835 18 c 128,-1,31
 804 10 804 10 777.5 2 c 128,-1,32
 751 -6 751 -6 734 -11 c 2,33,-1
 718 -16 l 2,34,35
 711 -16 711 -16 704.5 -6 c 128,-1,36
 698 4 698 4 696 16 c 2,37,-1
 680 108 l 1,38,-1
 674 118 l 1,39,40
 637 69 637 69 561 27.5 c 128,-1,41
 485 -14 485 -14 413 -14 c 0,42,43
 352 -14 352 -14 301.5 12 c 128,-1,44
 251 38 251 38 218 77 c 128,-1,45
 185 116 185 116 158.5 172 c 128,-1,46
 132 228 132 228 117.5 277.5 c 128,-1,47
 103 327 103 327 93 384 c 2,48,-1
 48 640 l 2,49,50
 34 718 34 718 13 748 c 0,51,52
 -16 788 -16 788 -106 788 c 1,53,54
 -112 793 -112 793 -116 812.5 c 128,-1,55
 -120 832 -120 832 -115 840 c 1,56,57
 48 846 48 846 152 880 c 0,58,59
 159 880 159 880 169 864.5 c 128,-1,60
 179 849 179 849 181 840 c 1,61,62
 172 812 172 812 191 702 c 2,63,-1
 206 616 l 1,64,-1
 243 408 l 2,65,66
 271 248 271 248 332.5 173 c 128,-1,67
 394 98 394 98 498 98 c 0,68,69
 563 98 563 98 616 134 c 0,70,71
 668 170 668 170 662 207 c 2,72,73
 662 208 l 2,74,-1
 586 640 l 2,0,1
EndSplineSet
Substitution2: "'smcp' Lowercase to Small Capitals lookup 12 subtable" u.sc
EndChar

StartChar: v
Encoding: 85 118 88
Width: 946
GlyphClass: 2
Flags: W
LayerCount: 4
Fore
SplineSet
55 850 m 0,0,1
 89 850 89 850 119.5 851.5 c 128,-1,2
 150 853 150 853 188 856 c 128,-1,3
 226 859 226 859 253 860 c 1,4,5
 259 851 259 851 261 826.5 c 128,-1,6
 263 802 263 802 256 802 c 0,7,8
 243 802 243 802 223.5 800 c 128,-1,9
 204 798 204 798 182.5 789.5 c 128,-1,10
 161 781 161 781 164 768 c 0,11,12
 165 764 165 764 167 760 c 2,13,-1
 482 220 l 1,14,15
 537 486 537 486 580 674 c 0,16,17
 587 703 587 703 581 738 c 0,18,19
 576 768 576 768 541 785 c 128,-1,20
 506 802 506 802 454 802 c 0,21,22
 447 802 447 802 442.5 827 c 128,-1,23
 438 852 438 852 443 860 c 1,24,25
 464 859 464 859 492 856 c 128,-1,26
 520 853 520 853 545 851.5 c 128,-1,27
 570 850 570 850 607 850 c 0,28,29
 641 850 641 850 668 851.5 c 128,-1,30
 695 853 695 853 728.5 856 c 128,-1,31
 762 859 762 859 791 860 c 1,32,33
 799 851 799 851 800.5 826.5 c 128,-1,34
 802 802 802 802 796 802 c 0,35,36
 770 802 770 802 730 786 c 128,-1,37
 690 770 690 770 682 734 c 0,38,39
 558 224 558 224 509 12 c 0,40,41
 507 1 507 1 490 -10.5 c 128,-1,42
 473 -22 473 -22 463 -22 c 0,43,44
 449 -22 449 -22 443 -14 c 0,45,46
 376 97 376 97 282.5 260 c 128,-1,47
 189 423 189 423 118 542.5 c 128,-1,48
 47 662 47 662 -19 762 c 0,49,50
 -45 802 -45 802 -136 802 c 1,51,52
 -153 831 -153 831 -147 860 c 1,53,54
 -118 859 -118 859 -80 856 c 128,-1,55
 -42 853 -42 853 -11.5 851.5 c 128,-1,56
 19 850 19 850 55 850 c 0,0,1
EndSplineSet
Substitution2: "'smcp' Lowercase to Small Capitals lookup 12 subtable" v.sc
EndChar

StartChar: w
Encoding: 86 119 89
Width: 1442
GlyphClass: 2
Flags: W
LayerCount: 4
Fore
SplineSet
52 850 m 0,0,1
 86 850 86 850 116.5 851.5 c 128,-1,2
 147 853 147 853 185 856 c 128,-1,3
 223 859 223 859 250 860 c 1,4,5
 255 851 255 851 258.5 828 c 128,-1,6
 262 805 262 805 257 802 c 0,7,8
 242 802 242 802 223 800 c 128,-1,9
 204 798 204 798 182.5 786.5 c 128,-1,10
 161 775 161 775 165 756 c 0,11,12
 165 754 165 754 180 726 c 0,13,14
 211 671 211 671 473 234 c 1,15,16
 486 295 486 295 503 373 c 128,-1,17
 520 451 520 451 529.5 490.5 c 128,-1,18
 539 530 539 530 547 571 c 128,-1,19
 555 612 555 612 558.5 630.5 c 128,-1,20
 562 649 562 649 561 654 c 0,21,22
 559 666 559 666 537.5 702 c 128,-1,23
 516 738 516 738 493 764 c 0,24,25
 460 802 460 802 399 802 c 1,26,27
 390 806 390 806 386 829 c 128,-1,28
 382 852 382 852 388 860 c 1,29,30
 413 859 413 859 469 854.5 c 128,-1,31
 525 850 525 850 572 850 c 0,32,33
 580 850 580 850 778 860 c 1,34,35
 784 850 784 850 788 829 c 128,-1,36
 792 808 792 808 787 802 c 1,37,38
 687 802 687 802 698 738 c 0,39,40
 699 734 699 734 707 716 c 0,41,42
 715 701 715 701 728.5 675 c 128,-1,43
 742 649 742 649 766.5 605.5 c 128,-1,44
 791 562 791 562 817 516.5 c 128,-1,45
 843 471 843 471 888 392 c 128,-1,46
 933 313 933 313 974 240 c 1,47,48
 1058 611 1058 611 1070 688 c 0,49,50
 1075 720 1075 720 1072 736 c 0,51,52
 1068 756 1068 756 1055.5 769.5 c 128,-1,53
 1043 783 1043 783 1018.5 789.5 c 128,-1,54
 994 796 994 796 981.5 798 c 128,-1,55
 969 800 969 800 941 802 c 1,56,57
 934 807 934 807 929.5 829.5 c 128,-1,58
 925 852 925 852 930 860 c 1,59,60
 958 859 958 859 1008.5 854.5 c 128,-1,61
 1059 850 1059 850 1106 850 c 0,62,63
 1140 850 1140 850 1166.5 851.5 c 128,-1,64
 1193 853 1193 853 1226 856 c 128,-1,65
 1259 859 1259 859 1288 860 c 0,66,67
 1292 857 1292 857 1296 832.5 c 128,-1,68
 1300 808 1300 808 1293 802 c 1,69,70
 1265 802 1265 802 1221.5 785 c 128,-1,71
 1178 768 1178 768 1169 730 c 0,72,73
 1071 285 1071 285 1006 12 c 0,74,75
 1004 0 1004 0 991.5 -11 c 128,-1,76
 979 -22 979 -22 970 -22 c 0,77,78
 950 -22 950 -22 944 -14 c 2,79,-1
 621 564 l 1,80,-1
 501 16 l 2,81,82
 500 9 500 9 486 -6.5 c 128,-1,83
 472 -22 472 -22 458 -22 c 128,-1,84
 444 -22 444 -22 438 -14 c 0,85,86
 197 404 197 404 -22 758 c 0,87,88
 -49 802 -49 802 -137 802 c 1,89,90
 -143 811 -143 811 -146.5 831 c 128,-1,91
 -150 851 -150 851 -148 860 c 1,92,93
 -118 859 -118 859 -81 856 c 128,-1,94
 -44 853 -44 853 -14 851.5 c 128,-1,95
 16 850 16 850 52 850 c 0,0,1
EndSplineSet
Substitution2: "'smcp' Lowercase to Small Capitals lookup 12 subtable" w.sc
EndChar

StartChar: x
Encoding: 87 120 90
Width: 952
GlyphClass: 2
Flags: W
LayerCount: 4
Fore
SplineSet
96 850 m 0,0,1
 188 850 188 850 296 860 c 1,2,3
 300 850 300 850 303.5 830 c 128,-1,4
 307 810 307 810 303 802 c 1,5,6
 223 802 223 802 229 768 c 0,7,8
 230 761 230 761 243 744 c 2,9,-1
 412 534 l 1,10,11
 423 560 423 560 454.5 617 c 128,-1,12
 486 674 486 674 501 710 c 128,-1,13
 516 746 516 746 513 764 c 0,14,15
 511 778 511 778 493 786.5 c 128,-1,16
 475 795 475 795 456.5 797.5 c 128,-1,17
 438 800 438 800 417 801 c 128,-1,18
 396 802 396 802 395 802 c 0,19,20
 392 804 392 804 386.5 829 c 128,-1,21
 381 854 381 854 384 860 c 1,22,23
 413 859 413 859 452 856 c 128,-1,24
 491 853 491 853 521.5 851.5 c 128,-1,25
 552 850 552 850 588 850 c 0,26,27
 678 850 678 850 746 860 c 1,28,29
 749 852 749 852 753.5 827 c 128,-1,30
 758 802 758 802 755 802 c 0,31,32
 631 795 631 795 608 758 c 0,33,34
 589 723 589 723 551 651.5 c 128,-1,35
 513 580 513 580 488.5 535 c 128,-1,36
 464 490 464 490 457 480 c 1,37,-1
 760 124 l 2,38,39
 823 52 823 52 927 52 c 0,40,41
 929 52 929 52 931.5 39 c 128,-1,42
 934 26 934 26 935.5 12 c 128,-1,43
 937 -2 937 -2 935 -6 c 1,44,45
 909 -5 909 -5 872.5 -2 c 128,-1,46
 836 1 836 1 807 2.5 c 128,-1,47
 778 4 778 4 745 4 c 0,48,49
 707 4 707 4 673.5 2.5 c 128,-1,50
 640 1 640 1 597 -2 c 128,-1,51
 554 -5 554 -5 525 -6 c 1,52,53
 519 4 519 4 515.5 28 c 128,-1,54
 512 52 512 52 517 52 c 0,55,56
 546 54 546 54 571.5 63 c 128,-1,57
 597 72 597 72 594 88 c 0,58,59
 593 92 593 92 588 100 c 0,60,61
 454 270 454 270 386 350 c 1,62,63
 378 334 378 334 340.5 259.5 c 128,-1,64
 303 185 303 185 280 134 c 0,65,66
 271 115 271 115 275 96 c 0,67,68
 277 84 277 84 286.5 75.5 c 128,-1,69
 296 67 296 67 315.5 62.5 c 128,-1,70
 335 58 335 58 345.5 56.5 c 128,-1,71
 356 55 356 55 382 53 c 0,72,73
 389 52 389 52 393 52 c 0,74,75
 395 52 395 52 398 39.5 c 128,-1,76
 401 27 401 27 402.5 13 c 128,-1,77
 404 -1 404 -1 401 -6 c 1,78,79
 373 -5 373 -5 337.5 -2 c 128,-1,80
 302 1 302 1 273 2.5 c 128,-1,81
 244 4 244 4 209 4 c 0,82,83
 175 4 175 4 147 2.5 c 128,-1,84
 119 1 119 1 84.5 -2 c 128,-1,85
 50 -5 50 -5 23 -6 c 1,86,87
 18 6 18 6 16 25.5 c 128,-1,88
 14 45 14 45 17 52 c 0,89,90
 21 53 21 53 40.5 56 c 128,-1,91
 60 59 60 59 66 60 c 128,-1,92
 72 61 72 61 90 64.5 c 128,-1,93
 108 68 108 68 116 71.5 c 128,-1,94
 124 75 124 75 138 81 c 128,-1,95
 152 87 152 87 160 93.5 c 128,-1,96
 168 100 168 100 177.5 109.5 c 128,-1,97
 187 119 187 119 193 130 c 0,98,99
 332 398 332 398 339 412 c 1,100,-1
 46 758 l 2,101,102
 27 781 27 781 -15 791.5 c 128,-1,103
 -57 802 -57 802 -95 802 c 0,104,105
 -97 802 -97 802 -100 814 c 128,-1,106
 -103 826 -103 826 -104.5 840 c 128,-1,107
 -106 854 -106 854 -104 860 c 1,108,109
 8 850 8 850 96 850 c 0,0,1
EndSplineSet
Substitution2: "'smcp' Lowercase to Small Capitals lookup 12 subtable" x.sc
EndChar

StartChar: y
Encoding: 88 121 91
Width: 938
GlyphClass: 2
Flags: W
LayerCount: 4
Fore
SplineSet
53 850 m 0,0,1
 168 850 168 850 251 860 c 1,2,3
 257 851 257 851 259 826.5 c 128,-1,4
 261 802 261 802 254 802 c 0,5,6
 241 802 241 802 221.5 800 c 128,-1,7
 202 798 202 798 180.5 789.5 c 128,-1,8
 159 781 159 781 162 768 c 0,9,10
 163 764 163 764 165 760 c 2,11,-1
 472 220 l 1,12,13
 527 486 527 486 570 674 c 0,14,15
 577 703 577 703 571 738 c 0,16,17
 566 768 566 768 531 785 c 128,-1,18
 496 802 496 802 444 802 c 0,19,20
 437 802 437 802 432.5 827 c 128,-1,21
 428 852 428 852 433 860 c 1,22,23
 510 850 510 850 615 850 c 0,24,25
 683 850 683 850 781 860 c 1,26,27
 789 851 789 851 790.5 826.5 c 128,-1,28
 792 802 792 802 786 802 c 0,29,30
 760 802 760 802 720 786 c 128,-1,31
 680 770 680 770 672 734 c 0,32,33
 548 224 548 224 499 12 c 0,34,35
 493 -12 493 -12 475.5 -100 c 128,-1,36
 458 -188 458 -188 442.5 -242 c 128,-1,37
 427 -296 427 -296 403 -344 c 0,38,39
 347 -456 347 -456 248 -456 c 0,40,41
 161 -456 161 -456 146 -370 c 0,42,43
 141 -341 141 -341 160 -312 c 1,44,45
 240 -312 240 -312 281.5 -292.5 c 128,-1,46
 323 -273 323 -273 366 -198 c 0,47,48
 382 -170 382 -170 403 -94 c 128,-1,49
 424 -18 424 -18 426 4 c 1,50,51
 136 514 136 514 -21 762 c 0,52,53
 -47 802 -47 802 -138 802 c 0,54,55
 -141 802 -141 802 -146 829.5 c 128,-1,56
 -151 857 -151 857 -149 860 c 0,57,58
 -52 850 -52 850 53 850 c 0,0,1
EndSplineSet
Substitution2: "'smcp' Lowercase to Small Capitals lookup 12 subtable" y.sc
EndChar

StartChar: z
Encoding: 89 122 92
Width: 894
GlyphClass: 2
Flags: W
LayerCount: 4
Fore
SplineSet
144 862 m 2,0,-1
 400 862 l 2,1,2
 513 862 513 862 641 878 c 1,3,4
 649 868 649 868 656 830 c 1,5,6
 259 76 259 76 260 70 c 1,7,-1
 540 70 l 2,8,9
 625 70 625 70 673 123.5 c 128,-1,10
 721 177 721 177 728 250 c 0,11,12
 728 262 728 262 740 262 c 128,-1,13
 752 262 752 262 769 254.5 c 128,-1,14
 786 247 786 247 796 238 c 1,15,16
 762 92 762 92 748 0 c 1,17,-1
 98 0 l 2,18,19
 86 3 86 3 74.5 15.5 c 128,-1,20
 63 28 63 28 61 40 c 128,-1,21
 59 52 59 52 60 54 c 2,22,-1
 444 792 l 1,23,-1
 164 794 l 2,24,25
 137 794 137 794 115.5 785.5 c 128,-1,26
 94 777 94 777 82.5 766 c 128,-1,27
 71 755 71 755 61.5 737 c 128,-1,28
 52 719 52 719 48.5 707 c 128,-1,29
 45 695 45 695 41.5 676.5 c 128,-1,30
 38 658 38 658 37 654 c 0,31,32
 35 648 35 648 22.5 642 c 128,-1,33
 10 636 10 636 -4 636 c 0,34,35
 -26 636 -26 636 -27 642 c 0,36,37
 -19 731 -19 731 -37 878 c 1,38,39
 72 862 72 862 144 862 c 2,0,-1
EndSplineSet
Substitution2: "'smcp' Lowercase to Small Capitals lookup 12 subtable" z.sc
EndChar

StartChar: braceleft
Encoding: 90 123 93
Width: 444
GlyphClass: 2
Flags: W
LayerCount: 4
Fore
SplineSet
73 766 m 0,0,1
 71 777 71 777 68 787.5 c 128,-1,2
 65 798 65 798 59.5 810.5 c 128,-1,3
 54 823 54 823 50.5 830.5 c 128,-1,4
 47 838 47 838 38.5 853.5 c 128,-1,5
 30 869 30 869 27 873 c 128,-1,6
 24 877 24 877 13 895.5 c 128,-1,7
 2 914 2 914 0 916 c 0,8,9
 -64 1016 -64 1016 -75 1082 c 0,10,11
 -98 1214 -98 1214 -46.5 1311.5 c 128,-1,12
 5 1409 5 1409 76 1440 c 1,13,14
 88 1440 88 1440 100 1428 c 128,-1,15
 112 1416 112 1416 115 1402 c 1,16,17
 68 1377 68 1377 26 1312 c 128,-1,18
 -16 1247 -16 1247 -4 1178 c 0,19,20
 -1 1162 -1 1162 2.5 1147.5 c 128,-1,21
 6 1133 6 1133 12.5 1118 c 128,-1,22
 19 1103 19 1103 23 1093 c 128,-1,23
 27 1083 27 1083 36.5 1066.5 c 128,-1,24
 46 1050 46 1050 49.5 1044 c 128,-1,25
 53 1038 53 1038 64 1019.5 c 128,-1,26
 75 1001 75 1001 78 996 c 0,27,28
 141 900 141 900 157 810 c 0,29,30
 172 723 172 723 135.5 659 c 128,-1,31
 99 595 99 595 52 576 c 1,32,33
 105 557 105 557 164.5 493 c 128,-1,34
 224 429 224 429 240 342 c 0,35,36
 256 252 256 252 226 156 c 0,37,38
 225 151 225 151 220.5 132.5 c 128,-1,39
 216 114 216 114 214.5 108 c 128,-1,40
 213 102 213 102 209.5 85.5 c 128,-1,41
 206 69 206 69 205 59 c 128,-1,42
 204 49 204 49 203.5 34 c 128,-1,43
 203 19 203 19 204.5 4.5 c 128,-1,44
 206 -10 206 -10 209 -26 c 0,45,46
 221 -95 221 -95 286 -160 c 128,-1,47
 351 -225 351 -225 406 -250 c 1,48,49
 408 -264 408 -264 400.5 -276 c 128,-1,50
 393 -288 393 -288 381 -288 c 1,51,52
 299 -257 299 -257 213 -159.5 c 128,-1,53
 127 -62 127 -62 104 70 c 0,54,55
 92 136 92 136 120 236 c 0,56,57
 121 238 121 238 126 256.5 c 128,-1,58
 131 275 131 275 132 279 c 128,-1,59
 133 283 133 283 136.5 298.5 c 128,-1,60
 140 314 140 314 140.5 321.5 c 128,-1,61
 141 329 141 329 142.5 341.5 c 128,-1,62
 144 354 144 354 143 364.5 c 128,-1,63
 142 375 142 375 140 386 c 0,64,65
 117 515 117 515 -42 554 c 1,66,67
 -47 561 -47 561 -49.5 576 c 128,-1,68
 -52 591 -52 591 -49 598 c 1,69,70
 96 637 96 637 73 766 c 0,0,1
EndSplineSet
Substitution2: "'smcp' Lowercase to Small Capitals lookup 12 subtable" braceleft.sc
EndChar

StartChar: bar
Encoding: 91 124 94
Width: 410
GlyphClass: 2
Flags: W
LayerCount: 4
Fore
SplineSet
294 -212 m 2,0,1
 296 -222 296 -222 256.5 -234 c 128,-1,2
 217 -246 217 -246 208 -246 c 0,3,4
 203 -246 203 -246 200.5 -244.5 c 128,-1,5
 198 -243 198 -243 197 -241.5 c 128,-1,6
 196 -240 196 -240 196 -235.5 c 128,-1,7
 196 -231 196 -231 196 -230 c 2,8,-1
 -112 1514 l 2,9,10
 -116 1526 -116 1526 -105 1530 c 0,11,12
 -59 1544 -59 1544 -33 1544 c 0,13,14
 -25 1544 -25 1544 -20.5 1541 c 128,-1,15
 -16 1538 -16 1538 -16 1535 c 2,16,-1
 -15 1532 l 1,17,-1
 294 -212 l 2,0,1
EndSplineSet
Substitution2: "'smcp' Lowercase to Small Capitals lookup 12 subtable" bar.sc
EndChar

StartChar: braceright
Encoding: 92 125 95
Width: 446
GlyphClass: 2
Flags: W
LayerCount: 4
Fore
SplineSet
-140 1440 m 1,0,1
 -58 1409 -58 1409 28 1311.5 c 128,-1,2
 114 1214 114 1214 137 1082 c 0,3,4
 149 1016 149 1016 120 916 c 0,5,6
 119 914 119 914 114.5 895.5 c 128,-1,7
 110 877 110 877 109 873 c 128,-1,8
 108 869 108 869 104.5 853.5 c 128,-1,9
 101 838 101 838 100.5 830.5 c 128,-1,10
 100 823 100 823 98.5 810.5 c 128,-1,11
 97 798 97 798 98 787.5 c 128,-1,12
 99 777 99 777 101 766 c 0,13,14
 124 637 124 637 283 598 c 1,15,16
 288 591 288 591 290.5 576 c 128,-1,17
 293 561 293 561 290 554 c 1,18,19
 145 515 145 515 168 386 c 0,20,21
 170 375 170 375 173 364.5 c 128,-1,22
 176 354 176 354 181.5 341.5 c 128,-1,23
 187 329 187 329 190.5 321.5 c 128,-1,24
 194 314 194 314 202.5 298.5 c 128,-1,25
 211 283 211 283 214 279 c 128,-1,26
 217 275 217 275 228 256.5 c 128,-1,27
 239 238 239 238 240 236 c 0,28,29
 304 136 304 136 316 70 c 0,30,31
 339 -62 339 -62 287.5 -159.5 c 128,-1,32
 236 -257 236 -257 165 -288 c 1,33,34
 153 -288 153 -288 141 -276 c 128,-1,35
 129 -264 129 -264 126 -250 c 1,36,37
 173 -225 173 -225 215 -160 c 128,-1,38
 257 -95 257 -95 245 -26 c 0,39,40
 242 -10 242 -10 238.5 4.5 c 128,-1,41
 235 19 235 19 228.5 34 c 128,-1,42
 222 49 222 49 218 59 c 128,-1,43
 214 69 214 69 204.5 85.5 c 128,-1,44
 195 102 195 102 191.5 108 c 128,-1,45
 188 114 188 114 176.5 132.5 c 128,-1,46
 165 151 165 151 162 156 c 0,47,48
 99 252 99 252 84 342 c 0,49,50
 69 429 69 429 105.5 493 c 128,-1,51
 142 557 142 557 188 576 c 1,52,53
 135 595 135 595 76 659 c 128,-1,54
 17 723 17 723 1 810 c 0,55,56
 -15 900 -15 900 14 996 c 0,57,58
 15 1001 15 1001 20 1019.5 c 128,-1,59
 25 1038 25 1038 26.5 1044 c 128,-1,60
 28 1050 28 1050 31.5 1066.5 c 128,-1,61
 35 1083 35 1083 36 1093 c 128,-1,62
 37 1103 37 1103 37.5 1118 c 128,-1,63
 38 1133 38 1133 36.5 1147.5 c 128,-1,64
 35 1162 35 1162 32 1178 c 0,65,66
 20 1247 20 1247 -45 1312 c 128,-1,67
 -110 1377 -110 1377 -165 1402 c 1,68,69
 -167 1416 -167 1416 -159.5 1428 c 128,-1,70
 -152 1440 -152 1440 -140 1440 c 1,0,1
EndSplineSet
Substitution2: "'smcp' Lowercase to Small Capitals lookup 12 subtable" braceright.sc
EndChar

StartChar: asciitilde
Encoding: 93 126 96
Width: 1140
GlyphClass: 2
Flags: W
LayerCount: 4
Fore
SplineSet
444 554 m 0,0,1
 394 571 394 571 366.5 580 c 128,-1,2
 339 589 339 589 293 597.5 c 128,-1,3
 247 606 247 606 205 606 c 0,4,5
 152 606 152 606 114 582.5 c 128,-1,6
 76 559 76 559 39 518 c 1,7,8
 19 527 19 527 15 552 c 0,9,10
 5 606 5 606 85 657 c 128,-1,11
 165 708 165 708 247 708 c 0,12,13
 291 708 291 708 340.5 698.5 c 128,-1,14
 390 689 390 689 413.5 681 c 128,-1,15
 437 673 437 673 495 654 c 0,16,17
 545 637 545 637 573 628 c 128,-1,18
 601 619 601 619 647.5 610.5 c 128,-1,19
 694 602 694 602 738 602 c 0,20,21
 752 602 752 602 765.5 604.5 c 128,-1,22
 779 607 779 607 789 609 c 128,-1,23
 799 611 799 611 811.5 618 c 128,-1,24
 824 625 824 625 830.5 628.5 c 128,-1,25
 837 632 837 632 849.5 642.5 c 128,-1,26
 862 653 862 653 866 656.5 c 128,-1,27
 870 660 870 660 884.5 673.5 c 128,-1,28
 899 687 899 687 902 690 c 1,29,30
 922 681 922 681 926 656 c 0,31,32
 935 605 935 605 862 552.5 c 128,-1,33
 789 500 789 500 698 500 c 0,34,35
 652 500 652 500 604.5 508.5 c 128,-1,36
 557 517 557 517 525.5 526.5 c 128,-1,37
 494 536 494 536 444 554 c 0,0,1
EndSplineSet
Substitution2: "'smcp' Lowercase to Small Capitals lookup 12 subtable" asciitilde.sc
EndChar

StartChar: exclamdown
Encoding: 95 161 98
Width: 430
GlyphClass: 2
Flags: W
LayerCount: 4
Fore
SplineSet
-26 748 m 128,-1,1
 -34 793 -34 793 -8.5 826.5 c 128,-1,2
 17 860 17 860 62 860 c 128,-1,3
 107 860 107 860 146.5 826.5 c 128,-1,4
 186 793 186 793 194 748 c 128,-1,5
 202 703 202 703 174 671.5 c 128,-1,6
 146 640 146 640 101 640 c 128,-1,7
 56 640 56 640 19 671.5 c 128,-1,0
 -18 703 -18 703 -26 748 c 128,-1,1
285 -446 m 0,8,9
 242 -446 242 -446 213 -410.5 c 128,-1,10
 184 -375 184 -375 176 -330 c 0,11,12
 173 -314 173 -314 169 -273.5 c 128,-1,13
 165 -233 165 -233 157.5 -157 c 128,-1,14
 150 -81 150 -81 143 1.5 c 128,-1,15
 136 84 136 84 123.5 224.5 c 128,-1,16
 111 365 111 365 99 494 c 1,17,18
 107 518 107 518 126 520 c 1,19,20
 148 512 148 512 158 498 c 1,21,22
 340 -192 340 -192 364 -330 c 0,23,24
 372 -375 372 -375 351 -410.5 c 128,-1,25
 330 -446 330 -446 285 -446 c 0,8,9
EndSplineSet
Substitution2: "'smcp' Lowercase to Small Capitals lookup 12 subtable" exclamdown.sc
EndChar

StartChar: cent
Encoding: 96 162 99
Width: 892
GlyphClass: 2
Flags: W
LayerCount: 4
Fore
SplineSet
378 944 m 1
 434 944 434 944 436 932 c 2
 450 -90 l 1
 394 -90 394 -90 391 -76 c 2
 378 944 l 1
EndSplineSet
Refer: 69 99 S 1 0 0 1 12 0 2
EndChar

StartChar: sterling
Encoding: 97 163 100
Width: 954
GlyphClass: 2
Flags: W
LayerCount: 4
Fore
SplineSet
404 1272 m 0,0,1
 452 1272 452 1272 481 1262 c 128,-1,2
 510 1252 510 1252 556 1224 c 0,3,4
 564 1217 564 1217 574 1199.5 c 128,-1,5
 584 1182 584 1182 586 1168 c 0,6,7
 595 1119 595 1119 576 1095.5 c 128,-1,8
 557 1072 557 1072 527 1072 c 0,9,10
 512 1072 512 1072 494 1080.5 c 128,-1,11
 476 1089 476 1089 465 1097.5 c 128,-1,12
 454 1106 454 1106 434.5 1123 c 128,-1,13
 415 1140 415 1140 408 1146 c 0,14,15
 382 1167 382 1167 367 1173.5 c 128,-1,16
 352 1180 352 1180 332 1180 c 0,17,18
 282 1180 282 1180 257 1142 c 128,-1,19
 232 1104 232 1104 230.5 1048 c 128,-1,20
 229 992 229 992 242 918 c 0,21,22
 256 840 256 840 298 718 c 0,23,24
 304 700 304 700 310 684 c 1,25,-1
 641 684 l 1,26,27
 657 673 657 673 656.5 657.5 c 128,-1,28
 656 642 656 642 649.5 629.5 c 128,-1,29
 643 617 643 617 636 612 c 1,30,-1
 333 612 l 1,31,32
 345 570 345 570 350 544 c 0,33,34
 367 446 367 446 324.5 346 c 128,-1,35
 282 246 282 246 234 194 c 1,36,37
 263 210 263 210 301 210 c 0,38,39
 337 210 337 210 374.5 195.5 c 128,-1,40
 412 181 412 181 441.5 163 c 128,-1,41
 471 145 471 145 522.5 130.5 c 128,-1,42
 574 116 574 116 634 116 c 0,43,44
 672 116 672 116 704.5 135 c 128,-1,45
 737 154 737 154 757 184.5 c 128,-1,46
 777 215 777 215 788 236.5 c 128,-1,47
 799 258 799 258 805 278 c 0,48,49
 806 278 806 278 813.5 273.5 c 128,-1,50
 821 269 821 269 828 261 c 128,-1,51
 835 253 835 253 837 246 c 0,52,53
 839 234 839 234 836 216 c 0,54,55
 832 189 832 189 814 152.5 c 128,-1,56
 796 116 796 116 765.5 76.5 c 128,-1,57
 735 37 735 37 687.5 10.5 c 128,-1,58
 640 -16 640 -16 585 -16 c 0,59,60
 528 -16 528 -16 470 2 c 128,-1,61
 412 20 412 20 374.5 41 c 128,-1,62
 337 62 337 62 293 80 c 128,-1,63
 249 98 249 98 215 98 c 0,64,65
 187 98 187 98 171 78.5 c 128,-1,66
 155 59 155 59 143 29 c 128,-1,67
 131 -1 131 -1 122 -12 c 1,68,69
 110 -12 110 -12 97.5 3 c 128,-1,70
 85 18 85 18 82 32 c 0,71,72
 72 88 72 88 155 188 c 0,73,74
 190 231 190 231 208.5 311 c 128,-1,75
 227 391 227 391 215 462 c 0,76,77
 212 481 212 481 167 612 c 1,78,-1
 2 612 l 1,79,80
 -9 621 -9 621 6 652.5 c 128,-1,81
 21 684 21 684 35 684 c 2,82,-1
 143 684 l 1,83,84
 114 773 114 773 109 798 c 0,85,86
 108 806 108 806 106 815 c 0,87,88
 90 905 90 905 106 986 c 0,89,90
 122 1076 122 1076 165 1137.5 c 128,-1,91
 208 1199 208 1199 271 1235.5 c 128,-1,92
 334 1272 334 1272 404 1272 c 0,0,1
EndSplineSet
EndChar

StartChar: currency
Encoding: 98 164 101
Width: 1148
GlyphClass: 2
Flags: W
LayerCount: 4
Fore
SplineSet
534 304 m 0,0,1
 623 304 623 304 665 388 c 128,-1,2
 707 472 707 472 686 588 c 0,3,4
 662 725 662 725 574 825.5 c 128,-1,5
 486 926 486 926 391 926 c 0,6,7
 302 926 302 926 259.5 840 c 128,-1,8
 217 754 217 754 238 638 c 0,9,10
 262 501 262 501 350.5 402.5 c 128,-1,11
 439 304 439 304 534 304 c 0,0,1
636 910 m 1,12,-1
 734 1020 l 2,13,14
 741 1028 741 1028 760 1015.5 c 128,-1,15
 779 1003 779 1003 800 979 c 128,-1,16
 821 955 821 955 832 932 c 1,17,-1
 731 820 l 1,18,19
 806 723 806 723 826 614 c 0,20,21
 847 495 847 495 798 398 c 1,22,-1
 926 282 l 2,23,24
 935 274 935 274 926 257 c 128,-1,25
 917 240 917 240 895.5 223.5 c 128,-1,26
 874 207 874 207 853 200 c 1,27,-1
 729 310 l 1,28,29
 646 240 646 240 530 240 c 0,30,31
 401 240 401 240 288 320 c 1,32,-1
 199 220 l 2,33,34
 192 212 192 212 173 224.5 c 128,-1,35
 154 237 154 237 133.5 261 c 128,-1,36
 113 285 113 285 102 308 c 1,37,-1
 192 410 l 1,38,39
 115 505 115 505 96 614 c 0,40,41
 73 745 73 745 131 846 c 1,42,-1
 7 958 l 2,43,44
 -2 966 -2 966 7.5 983 c 128,-1,45
 17 1000 17 1000 38 1016.5 c 128,-1,46
 59 1033 59 1033 81 1040 c 1,47,-1
 204 930 l 1,48,49
 283 992 283 992 397 992 c 0,50,51
 524 992 524 992 636 910 c 1,12,-1
EndSplineSet
EndChar

StartChar: yen
Encoding: 99 165 102
Width: 1344
GlyphClass: 2
Flags: W
LayerCount: 4
Fore
SplineSet
525 436 m 1,0,-1
 329 436 l 1,1,2
 318 445 318 445 330 477.5 c 128,-1,3
 342 510 342 510 356 510 c 2,4,-1
 510 510 l 1,5,6
 504 528 504 528 492 546 c 0,7,8
 410 659 410 659 299 808 c 128,-1,9
 188 957 188 957 119 1052 c 0,10,11
 78 1106 78 1106 44.5 1135.5 c 128,-1,12
 11 1165 11 1165 -38 1190 c 0,13,14
 -64 1204 -64 1204 -99.5 1213 c 128,-1,15
 -135 1222 -135 1222 -155 1222 c 0,16,17
 -163 1222 -163 1222 -167.5 1247 c 128,-1,18
 -172 1272 -172 1272 -166 1280 c 1,19,20
 -132 1279 -132 1279 -83 1276 c 128,-1,21
 -34 1273 -34 1273 4 1271.5 c 128,-1,22
 42 1270 42 1270 86 1270 c 0,23,24
 142 1270 142 1270 340 1280 c 1,25,26
 346 1271 346 1271 350 1246.5 c 128,-1,27
 354 1222 354 1222 347 1222 c 0,28,29
 328 1222 328 1222 303.5 1217.5 c 128,-1,30
 279 1213 279 1213 256.5 1197.5 c 128,-1,31
 234 1182 234 1182 238 1158 c 0,32,33
 242 1137 242 1137 272 1098 c 2,34,-1
 634 622 l 1,35,36
 682 749 682 749 738.5 917.5 c 128,-1,37
 795 1086 795 1086 807 1140 c 0,38,39
 810 1158 810 1158 808 1170 c 0,40,41
 807 1178 807 1178 792 1188.5 c 128,-1,42
 777 1199 777 1199 738.5 1209.5 c 128,-1,43
 700 1220 700 1220 649 1220 c 0,44,45
 645 1220 645 1220 638.5 1247 c 128,-1,46
 632 1274 632 1274 635 1278 c 1,47,48
 822 1268 822 1268 842 1268 c 0,49,50
 889 1268 889 1268 923.5 1269.5 c 128,-1,51
 958 1271 958 1271 996.5 1274 c 128,-1,52
 1035 1277 1035 1277 1061 1278 c 1,53,54
 1066 1269 1066 1269 1068.5 1244.5 c 128,-1,55
 1071 1220 1071 1220 1067 1220 c 0,56,57
 1053 1220 1053 1220 1037.5 1218.5 c 128,-1,58
 1022 1217 1022 1217 992.5 1210.5 c 128,-1,59
 963 1204 963 1204 938.5 1186 c 128,-1,60
 914 1168 914 1168 903 1140 c 0,61,62
 861 1033 861 1033 690 558 c 0,63,64
 685 543 685 543 688 510 c 1,65,-1
 880 510 l 1,66,67
 896 499 896 499 895 483 c 128,-1,68
 894 467 894 467 887 454 c 128,-1,69
 880 441 880 441 873 436 c 1,70,-1
 701 436 l 1,71,72
 708 393 708 393 715 350 c 1,73,-1
 908 350 l 1,74,75
 924 339 924 339 923 323 c 128,-1,76
 922 307 922 307 915 294 c 128,-1,77
 908 281 908 281 901 276 c 1,78,-1
 727 276 l 1,79,80
 735 232 l 0,81,82
 755 116 755 116 771 84 c 0,83,84
 777 70 777 70 831 61 c 128,-1,85
 885 52 885 52 915 52 c 1,86,87
 922 44 922 44 926.5 23 c 128,-1,88
 931 2 931 2 925 -6 c 1,89,90
 718 4 718 4 689 4 c 0,91,92
 658 4 658 4 455 -6 c 1,93,94
 447 2 447 2 443.5 23 c 128,-1,95
 440 44 440 44 445 52 c 1,96,97
 475 52 475 52 525.5 61 c 128,-1,98
 576 70 576 70 577 84 c 0,99,100
 581 116 581 116 561 232 c 2,101,-1
 553 276 l 1,102,-1
 357 276 l 1,103,104
 346 285 346 285 358 317.5 c 128,-1,105
 370 350 370 350 384 350 c 2,106,-1
 540 350 l 1,107,-1
 525 436 l 1,0,-1
EndSplineSet
EndChar

StartChar: brokenbar
Encoding: 100 166 103
Width: 428
GlyphClass: 2
Flags: W
LayerCount: 4
Fore
SplineSet
126 800 m 2,0,1
 127 790 127 790 88.5 780 c 128,-1,2
 50 770 50 770 39 770 c 0,3,4
 34 770 34 770 31.5 771.5 c 128,-1,5
 29 773 29 773 28 774.5 c 128,-1,6
 27 776 27 776 27 780.5 c 128,-1,7
 27 785 27 785 26 786 c 2,8,-1
 -102 1514 l 2,9,10
 -106 1526 -106 1526 -95 1530 c 0,11,12
 -63 1540 -63 1540 -21 1540 c 0,13,14
 -13 1540 -13 1540 -8 1537 c 128,-1,15
 -3 1534 -3 1534 -3 1531 c 2,16,-1
 -2 1528 l 1,17,-1
 126 800 l 2,0,1
206 -230 m 2,18,-1
 77 498 l 2,19,20
 73 510 73 510 84 514 c 0,21,22
 116 524 116 524 159 524 c 0,23,24
 167 524 167 524 171.5 521 c 128,-1,25
 176 518 176 518 176 515 c 2,26,-1
 177 512 l 1,27,-1
 305 -216 l 2,28,29
 306 -226 306 -226 267.5 -236 c 128,-1,30
 229 -246 229 -246 218 -246 c 0,31,32
 213 -246 213 -246 210.5 -244.5 c 128,-1,33
 208 -243 208 -243 207 -241.5 c 128,-1,34
 206 -240 206 -240 206 -235.5 c 128,-1,35
 206 -231 206 -231 206 -230 c 2,18,-1
EndSplineSet
EndChar

StartChar: section
Encoding: 101 167 104
Width: 882
GlyphClass: 2
Flags: W
LayerCount: 4
Fore
SplineSet
304 -156 m 0,0,1
 259 -156 259 -156 219 -140 c 1,2,3
 203 -116 203 -116 198 -88 c 0,4,5
 194 -66 194 -66 214 -41 c 128,-1,6
 234 -16 234 -16 257 -16 c 0,7,8
 269 -16 269 -16 281 -19 c 128,-1,9
 293 -22 293 -22 299 -24 c 128,-1,10
 305 -26 305 -26 318 -32.5 c 128,-1,11
 331 -39 331 -39 333 -40 c 0,12,13
 368 -56 368 -56 400 -56 c 0,14,15
 434 -56 434 -56 467.5 -45.5 c 128,-1,16
 501 -35 501 -35 525 -9 c 128,-1,17
 549 17 549 17 543 52 c 0,18,19
 532 113 532 113 441.5 205 c 128,-1,20
 351 297 351 297 240 384 c 0,21,22
 187 426 187 426 144.5 465.5 c 128,-1,23
 102 505 102 505 55.5 558 c 128,-1,24
 9 611 9 611 -22 671 c 128,-1,25
 -53 731 -53 731 -64 792 c 0,26,27
 -82 892 -82 892 -8 1031 c 0,28,29
 53 1146 53 1146 107 1200 c 0,30,31
 116 1211 116 1211 127 1222 c 0,32,33
 214 1306 214 1306 378 1306 c 0,34,35
 423 1306 423 1306 463 1290 c 1,36,37
 479 1266 479 1266 484 1238 c 0,38,39
 488 1216 488 1216 467.5 1191 c 128,-1,40
 447 1166 447 1166 424 1166 c 0,41,42
 412 1166 412 1166 400 1169 c 128,-1,43
 388 1172 388 1172 382.5 1174 c 128,-1,44
 377 1176 377 1176 363.5 1182.5 c 128,-1,45
 350 1189 350 1189 348 1190 c 0,46,47
 313 1206 313 1206 281 1206 c 0,48,49
 247 1206 247 1206 213.5 1195.5 c 128,-1,50
 180 1185 180 1185 156 1159 c 128,-1,51
 132 1133 132 1133 138 1098 c 0,52,53
 149 1037 149 1037 240 945 c 128,-1,54
 331 853 331 853 441 766 c 0,55,56
 494 724 494 724 536.5 684.5 c 128,-1,57
 579 645 579 645 625.5 592 c 128,-1,58
 672 539 672 539 703 479 c 128,-1,59
 734 419 734 419 745 358 c 0,60,61
 763 258 763 258 689 119 c 0,62,63
 628 4 628 4 574 -50 c 0,64,65
 565 -61 565 -61 555 -72 c 0,66,67
 468 -156 468 -156 304 -156 c 0,0,1
624 103 m 1,68,69
 625 105 625 105 625 106 c 0,70,71
 638 134 638 134 642 146.5 c 128,-1,72
 646 159 646 159 651.5 181 c 128,-1,73
 657 203 657 203 657 224 c 128,-1,74
 657 245 657 245 652 270 c 0,75,76
 618 463 618 463 358 670 c 0,77,78
 352 674 352 674 315 703 c 128,-1,79
 278 732 278 732 267 741 c 128,-1,80
 256 750 256 750 223 778.5 c 128,-1,81
 190 807 190 807 176 822 c 128,-1,82
 162 837 162 837 138 864.5 c 128,-1,83
 114 892 114 892 101.5 913 c 128,-1,84
 89 934 89 934 77.5 961 c 128,-1,85
 66 988 66 988 61 1014 c 0,86,87
 58 1031 58 1031 57 1047 c 1,88,89
 56 1045 56 1045 56 1044 c 0,90,91
 43 1016 43 1016 39 1003.5 c 128,-1,92
 35 991 35 991 29.5 969 c 128,-1,93
 24 947 24 947 24 926 c 128,-1,94
 24 905 24 905 29 880 c 0,95,96
 63 687 63 687 323 480 c 0,97,98
 329 476 329 476 366 447 c 128,-1,99
 403 418 403 418 414 409 c 128,-1,100
 425 400 425 400 458.5 371.5 c 128,-1,101
 492 343 492 343 505.5 328 c 128,-1,102
 519 313 519 313 543.5 285.5 c 128,-1,103
 568 258 568 258 580 237 c 128,-1,104
 592 216 592 216 603.5 189 c 128,-1,105
 615 162 615 162 620 136 c 0,106,107
 623 119 623 119 624 103 c 1,68,69
EndSplineSet
EndChar

StartChar: dieresis
Encoding: 102 168 105
Width: 754
GlyphClass: 2
Flags: W
LayerCount: 4
Fore
SplineSet
363 1126 m 0,0,1
 400 1126 400 1126 432.5 1098 c 128,-1,2
 465 1070 465 1070 472 1032 c 0,3,4
 479 995 479 995 455.5 968.5 c 128,-1,5
 432 942 432 942 394 942 c 128,-1,6
 356 942 356 942 323 969.5 c 128,-1,7
 290 997 290 997 283.5 1034 c 128,-1,8
 277 1071 277 1071 301 1098.5 c 128,-1,9
 325 1126 325 1126 363 1126 c 0,0,1
-3 1126 m 0,10,11
 34 1126 34 1126 66.5 1098 c 128,-1,12
 99 1070 99 1070 106 1032 c 0,13,14
 113 995 113 995 89.5 968.5 c 128,-1,15
 66 942 66 942 28 942 c 128,-1,16
 -10 942 -10 942 -43 969.5 c 128,-1,17
 -76 997 -76 997 -82.5 1034 c 128,-1,18
 -89 1071 -89 1071 -65 1098.5 c 128,-1,19
 -41 1126 -41 1126 -3 1126 c 0,10,11
EndSplineSet
EndChar

StartChar: copyright
Encoding: 103 169 106
Width: 1318
GlyphClass: 2
Flags: W
LayerCount: 4
Fore
SplineSet
815 552 m 0,0,1
 817 543 817 543 811 487.5 c 128,-1,2
 805 432 805 432 797 428 c 0,3,4
 710 390 710 390 591 390 c 0,5,6
 470 390 470 390 373 471.5 c 128,-1,7
 276 553 276 553 256 672 c 0,8,9
 234 794 234 794 299 880 c 128,-1,10
 364 966 364 966 486 966 c 0,11,12
 611 966 611 966 716 928 c 1,13,14
 768 814 768 814 770 806 c 0,15,16
 771 799 771 799 761.5 793.5 c 128,-1,17
 752 788 752 788 741 788 c 0,18,19
 735 788 735 788 726 792 c 1,20,21
 721 805 721 805 709 820 c 128,-1,22
 697 835 697 835 674 854 c 128,-1,23
 651 873 651 873 611.5 885.5 c 128,-1,24
 572 898 572 898 522 898 c 0,25,26
 442 898 442 898 397 836 c 128,-1,27
 352 774 352 774 366 690 c 0,28,29
 386 578 386 578 462.5 516 c 128,-1,30
 539 454 539 454 618 454 c 0,31,32
 721 454 721 454 755 492 c 0,33,34
 763 502 763 502 767.5 518.5 c 128,-1,35
 772 535 772 535 772.5 546.5 c 128,-1,36
 773 558 773 558 774 558 c 0,37,38
 811 558 811 558 815 552 c 0,0,1
57 684 m 128,-1,40
 80 553 80 553 164.5 441.5 c 128,-1,41
 249 330 249 330 371.5 265 c 128,-1,42
 494 200 494 200 625 200 c 128,-1,43
 756 200 756 200 856 265 c 128,-1,44
 956 330 956 330 1001 441.5 c 128,-1,45
 1046 553 1046 553 1023 684 c 128,-1,46
 1000 815 1000 815 915.5 926.5 c 128,-1,47
 831 1038 831 1038 708 1103 c 128,-1,48
 585 1168 585 1168 454 1168 c 128,-1,49
 323 1168 323 1168 223.5 1103 c 128,-1,50
 124 1038 124 1038 79 926.5 c 128,-1,39
 34 815 34 815 57 684 c 128,-1,40
-8.5 684 m 128,-1,52
 -48 910 -48 910 83.5 1070 c 128,-1,53
 215 1230 215 1230 441 1230 c 0,54,55
 590 1230 590 1230 729 1157 c 128,-1,56
 868 1084 868 1084 963.5 958 c 128,-1,57
 1059 832 1059 832 1085 684 c 128,-1,58
 1111 536 1111 536 1060 410 c 128,-1,59
 1009 284 1009 284 896 211 c 128,-1,60
 783 138 783 138 634 138 c 0,61,62
 408 138 408 138 219.5 298 c 128,-1,51
 31 458 31 458 -8.5 684 c 128,-1,52
EndSplineSet
EndChar

StartChar: ordfeminine
Encoding: 104 170 107
Width: 690
GlyphClass: 2
Flags: W
LayerCount: 4
Fore
SplineSet
201 572 m 0,0,1
 234 572 234 572 272.5 599.5 c 128,-1,2
 311 627 311 627 309 640 c 2,3,-1
 279 810 l 1,4,5
 267 806 267 806 239 797 c 128,-1,6
 211 788 211 788 190 781 c 128,-1,7
 169 774 169 774 158 770 c 0,8,9
 78 736 78 736 90 670 c 0,10,11
 97 631 97 631 129.5 601.5 c 128,-1,12
 162 572 162 572 201 572 c 0,0,1
180 1112 m 0,13,14
 240 1112 240 1112 295.5 1057 c 128,-1,15
 351 1002 351 1002 365 924 c 2,16,-1
 416 638 l 2,17,18
 428 572 428 572 469 572 c 0,19,20
 477 572 477 572 485 574.5 c 128,-1,21
 493 577 493 577 498 580 c 128,-1,22
 503 583 503 583 508 586 c 2,23,-1
 512 590 l 2,24,25
 518 590 518 590 520 580 c 0,26,27
 522 566 522 566 516 554 c 0,28,29
 504 539 504 539 473 519.5 c 128,-1,30
 442 500 442 500 422 500 c 0,31,32
 393 500 393 500 363.5 528 c 128,-1,33
 334 556 334 556 322 590 c 1,34,35
 306 571 306 571 252.5 534.5 c 128,-1,36
 199 498 199 498 168 498 c 0,37,38
 99 498 99 498 44.5 544 c 128,-1,39
 -10 590 -10 590 -22 658 c 0,40,41
 -29 697 -29 697 -12.5 727.5 c 128,-1,42
 4 758 4 758 29 768 c 0,43,44
 245 850 245 850 255 856 c 0,45,46
 265 861 265 861 266.5 866.5 c 128,-1,47
 268 872 268 872 265 890 c 2,48,-1
 258 928 l 2,49,50
 249 978 249 978 211 1015 c 128,-1,51
 173 1052 173 1052 119 1052 c 0,52,53
 84 1052 84 1052 69.5 1033.5 c 128,-1,54
 55 1015 55 1015 54 974 c 0,55,56
 55 908 55 908 2 908 c 0,57,58
 -19 908 -19 908 -35.5 926 c 128,-1,59
 -52 944 -52 944 -56 966 c 0,60,61
 -60 990 -60 990 -52 1000 c 0,62,63
 -18 1039 -18 1039 47 1075.5 c 128,-1,64
 112 1112 112 1112 180 1112 c 0,13,14
EndSplineSet
EndChar

StartChar: guillemotleft
Encoding: 105 171 108
Width: 964
GlyphClass: 2
Flags: W
LayerCount: 4
Fore
SplineSet
327 492 m 0,0,1
 325 506 325 506 331 528 c 1,2,3
 556 680 556 680 693 846 c 1,4,5
 730 835 730 835 741 822 c 1,6,7
 738 792 738 792 652.5 676.5 c 128,-1,8
 567 561 567 561 503 494 c 1,9,10
 591 427 591 427 717 311.5 c 128,-1,11
 843 196 843 196 857 166 c 1,12,13
 850 153 850 153 817 142 c 1,14,15
 622 308 622 308 343 460 c 1,16,17
 330 475 330 475 327 492 c 0,0,1
-33 492 m 0,18,19
 -35 506 -35 506 -29 528 c 1,20,21
 196 680 196 680 333 846 c 1,22,23
 370 835 370 835 381 822 c 1,24,25
 378 792 378 792 292.5 676.5 c 128,-1,26
 207 561 207 561 143 494 c 1,27,28
 231 427 231 427 357 311.5 c 128,-1,29
 483 196 483 196 497 166 c 1,30,31
 490 153 490 153 457 142 c 1,32,33
 262 308 262 308 -17 460 c 1,34,35
 -30 475 -30 475 -33 492 c 0,18,19
EndSplineSet
EndChar

StartChar: logicalnot
Encoding: 106 172 109
Width: 1174
GlyphClass: 2
Flags: W
LayerCount: 4
Fore
SplineSet
884 840 m 1,0,-1
 972 338 l 2,1,2
 970 336 970 336 957.5 329.5 c 128,-1,3
 945 323 945 323 923.5 315.5 c 128,-1,4
 902 308 902 308 884 308 c 0,5,6
 864 310 864 310 855 322 c 1,7,-1
 784 728 l 1,8,-1
 -26 728 l 2,9,10
 -38 728 -38 728 -42 748 c 0,11,12
 -48 840 -48 840 -28 840 c 2,13,-1
 884 840 l 1,0,-1
EndSplineSet
EndChar

StartChar: uni00AD
Encoding: 107 173 110
Width: 756
GlyphClass: 2
Flags: W
LayerCount: 4
Fore
SplineSet
44 420 m 0,0,1
 22 545 22 545 46 545 c 2,2,-1
 48 545 l 1,3,-1
 564 547 l 1,4,-1
 566 547 l 2,5,6
 578 547 578 547 581 529 c 0,7,8
 593 462 593 462 591 435 c 0,9,10
 589 409 589 409 583 403 c 2,11,-1
 578 398 l 1,12,-1
 62 398 l 1,13,-1
 58 398 l 0,14,15
 56 398 56 398 51 403.5 c 128,-1,16
 46 409 46 409 44 420 c 0,0,1
EndSplineSet
EndChar

StartChar: uniE812
Encoding: 839 59410 111
Width: 899
GlyphClass: 3
LigCaretCntFixed: 1
Flags: W
LayerCount: 4
Fore
SplineSet
294 1075 m 1,0,-1
 296 1075 l 1,1,-1
 314 1052 l 1,2,-1
 316 1051 l 1,3,-1
 352 1001 l 2,4,5
 357 997 357 997 362 989 c 2,6,-1
 383 960 l 2,7,8
 385 953 385 953 394 943 c 0,9,10
 397 936 397 936 402 932 c 2,11,-1
 448 848 l 2,12,13
 450 840 450 840 458 830 c 2,14,-1
 481 779 l 1,15,-1
 492 750 l 1,16,-1
 501 718 l 2,17,18
 502 714 502 714 506 704 c 0,19,20
 506 700 506 700 506 696 c 0,21,22
 507 691 507 691 509 686 c 2,23,-1
 515 648 l 1,24,-1
 519 609 l 1,25,-1
 514 544 l 1,26,-1
 503 500 l 1,27,-1
 573 479 l 1,28,-1
 625 456 l 2,29,30
 632 451 632 451 644 447 c 1,31,-1
 646 445 l 1,32,-1
 664 434 l 1,33,-1
 670 432 l 2,34,35
 674 428 674 428 679 426 c 2,36,-1
 695 413 l 1,37,-1
 698 412 l 1,38,39
 706 403 706 403 721 393 c 1,40,-1
 744 368 l 1,41,-1
 767 333 l 2,42,43
 768 328 768 328 772 322 c 2,44,-1
 778 308 l 1,45,-1
 785 280 l 1,46,-1
 789 254 l 1,47,-1
 788 219 l 1,48,-1
 782 178 l 1,49,-1
 774 149 l 1,50,-1
 762 120 l 1,51,-1
 762 116 l 2,52,53
 759 112 759 112 756 106 c 2,54,-1
 753 97 l 2,55,56
 747 90 747 90 743 78 c 0,57,58
 742 78 742 78 741 76 c 2,59,-1
 737 68 l 1,60,-1
 724 49 l 1,61,-1
 724 46 l 1,62,-1
 708 32 l 1,63,64
 701 32 701 32 693 29 c 2,65,-1
 626 25 l 1,66,-1
 574 25 l 2,67,68
 571 24 571 24 568 24 c 0,69,70
 564 24 564 24 560 25 c 2,71,-1
 511 28 l 1,72,-1
 467 33 l 1,73,-1
 403 45 l 1,74,-1
 361 56 l 1,75,-1
 337 64 l 2,76,77
 334 64 334 64 330 66 c 2,78,-1
 280 45 l 2,79,80
 277 44 277 44 274 44 c 2,81,-1
 226 27 l 1,82,-1
 183 16 l 1,83,-1
 146 8 l 1,84,-1
 111 3 l 2,85,86
 108 3 108 3 101 1 c 2,87,-1
 98 1 l 2,88,89
 92 1 92 1 83 -1 c 2,90,-1
 39 -4 l 1,91,-1
 -0 -5 l 1,92,-1
 -31 171 l 1,93,-1
 11 175 l 1,94,-1
 42 183 l 2,95,96
 51 183 51 183 59 187 c 1,97,-1
 62 212 l 2,98,99
 63 213 63 213 62 216 c 2,100,-1
 78 303 l 1,101,-1
 108 408 l 2,102,103
 112 413 112 413 114 422 c 0,104,105
 115 422 115 422 116 424 c 2,106,-1
 125 444 l 2,107,108
 126 445 126 445 127 450 c 2,109,-1
 161 503 l 2,110,111
 166 507 166 507 171 515 c 0,112,113
 175 516 175 516 176 520 c 0,114,115
 178 520 178 520 179 521 c 2,116,-1
 197 535 l 1,117,-1
 212 544 l 2,118,119
 231 551 231 551 255 551 c 0,120,121
 264 551 264 551 274 550 c 0,122,123
 307 541 307 541 334 516 c 1,124,-1
 336 515 l 1,125,126
 343 506 343 506 354 498 c 0,127,128
 356 495 356 495 361 489 c 2,129,-1
 375 473 l 1,130,-1
 397 439 l 1,131,132
 411 449 411 449 419 469 c 2,133,-1
 428 484 l 1,134,-1
 437 520 l 1,135,-1
 438 560 l 1,136,-1
 436 580 l 1,137,-1
 427 619 l 1,138,-1
 415 652 l 1,139,-1
 400 685 l 1,140,-1
 371 735 l 1,141,-1
 357 757 l 1,142,-1
 356 760 l 1,143,-1
 283 861 l 2,144,145
 277 865 277 865 272 873 c 1,146,-1
 270 874 l 1,147,-1
 230 923 l 1,148,149
 235 932 235 932 238 941 c 2,150,-1
 254 978 l 2,151,152
 258 983 258 983 259 992 c 0,153,154
 260 992 260 992 262 994 c 2,155,-1
 282 1039 l 1,156,-1
 286 1052 l 2,157,158
 292 1059 292 1059 293 1070 c 2,159,-1
 294 1075 l 1,0,-1
255 361 m 2,160,161
 240 366 240 366 223 367 c 0,162,163
 215 365 215 365 206 361 c 2,164,-1
 198 357 l 1,165,-1
 183 344 l 2,166,167
 179 343 179 343 178 339 c 2,168,-1
 171 331 l 1,169,-1
 148 295 l 1,170,-1
 145 288 l 2,171,172
 139 281 139 281 137 271 c 1,173,-1
 135 268 l 1,174,-1
 115 219 l 2,175,176
 108 211 108 211 107 198 c 1,177,-1
 104 193 l 1,178,-1
 104 189 l 1,179,-1
 122 191 l 2,180,181
 134 191 134 191 149 195 c 0,182,183
 157 195 157 195 165 198 c 2,184,-1
 206 206 l 1,185,-1
 307 234 l 1,186,-1
 347 247 l 2,187,188
 354 248 354 248 364 253 c 1,189,-1
 367 253 l 1,190,191
 366 257 366 257 363 262 c 2,192,-1
 329 301 l 1,193,-1
 318 312 l 2,194,195
 312 318 312 318 304 324 c 0,196,197
 302 328 302 328 298 330 c 0,198,199
 298 331 298 331 295 333 c 2,200,-1
 286 342 l 1,201,-1
 255 361 l 2,160,161
697 197 m 1,202,203
 613 298 613 298 476 327 c 1,204,-1
 477 301 l 2,205,206
 477 292 477 292 474 283 c 2,207,-1
 473 272 l 2,208,209
 472 267 472 267 469 260 c 2,210,-1
 469 255 l 1,211,-1
 459 231 l 1,212,-1
 459 227 l 1,213,214
 466 227 466 227 476 224 c 2,215,-1
 610 201 l 1,216,-1
 681 195 l 1,217,-1
 697 197 l 1,202,203
554 -185 m 1,218,219
 570 -188 570 -188 599 -216 c 128,-1,220
 628 -244 628 -244 695 -292 c 1,221,-1
 698 -295 l 1,222,223
 694 -298 694 -298 602 -411 c 1,224,225
 532 -372 532 -372 465 -294 c 1,226,227
 546 -198 546 -198 554 -185 c 1,218,219
EndSplineSet
Ligature2: "'liga' Standard Ligatures in Arabic lookup 6 subtable" uniFE91 uniFEEC
LCarets2: 1 384
EndChar

StartChar: macron
Encoding: 108 175 112
Width: 676
GlyphClass: 2
Flags: W
LayerCount: 4
Fore
SplineSet
360 1124 m 1,0,1
 -88 1124 l 1,2,3
 -103 1131 -103 1131 -103 1164.5 c 128,-1,4
 -103 1198 -103 1198 -91 1208 c 1,5,-1
 357 1208 l 1,6,7
 369 1201 369 1201 370.5 1170.5 c 128,-1,8
 372 1140 372 1140 360 1124 c 1,0,1
EndSplineSet
EndChar

StartChar: degree
Encoding: 109 176 113
Width: 548
GlyphClass: 2
Flags: W
LayerCount: 4
Fore
SplineSet
-39 1072 m 128,-1,1
 -30 1021 -30 1021 13 984.5 c 128,-1,2
 56 948 56 948 107 948 c 128,-1,3
 158 948 158 948 187 984.5 c 128,-1,4
 216 1021 216 1021 207 1072 c 128,-1,5
 198 1123 198 1123 156 1158.5 c 128,-1,6
 114 1194 114 1194 63 1194 c 128,-1,7
 12 1194 12 1194 -18 1158.5 c 128,-1,0
 -48 1123 -48 1123 -39 1072 c 128,-1,1
-113 1072 m 128,-1,9
 -127 1153 -127 1153 -79 1210.5 c 128,-1,10
 -31 1268 -31 1268 50 1268 c 128,-1,11
 131 1268 131 1268 199 1210.5 c 128,-1,12
 267 1153 267 1153 281 1072 c 128,-1,13
 295 991 295 991 248 932.5 c 128,-1,14
 201 874 201 874 120 874 c 128,-1,15
 39 874 39 874 -30 932.5 c 128,-1,8
 -99 991 -99 991 -113 1072 c 128,-1,9
EndSplineSet
EndChar

StartChar: plusminus
Encoding: 110 177 114
Width: 1096
GlyphClass: 2
Flags: W
LayerCount: 4
Fore
SplineSet
76 124 m 1,0,1
 988 124 l 0,2,3
 995 124 995 124 1001.5 117.5 c 128,-1,4
 1008 111 1008 111 1010 100 c 0,5,6
 1014 76 1014 76 1009.5 50.5 c 128,-1,7
 1005 25 1005 25 994 12 c 1,8,-1
 78 12 l 2,9,10
 66 12 66 12 62 32 c 0,11,12
 60 45 60 45 62.5 79.5 c 128,-1,13
 65 114 65 114 76 124 c 1,0,1
-29 722 m 1,14,-1
 363 722 l 1,15,-1
 292 1122 l 1,16,17
 347 1144 347 1144 374 1144 c 0,18,19
 383 1144 383 1144 390 1141 c 128,-1,20
 397 1138 397 1138 400 1135 c 2,21,-1
 402 1132 l 1,22,-1
 475 722 l 1,23,-1
 883 722 l 2,24,25
 890 722 890 722 896.5 715.5 c 128,-1,26
 903 709 903 709 905 698 c 0,27,28
 909 674 909 674 904 648.5 c 128,-1,29
 899 623 899 623 888 610 c 1,30,-1
 494 610 l 1,31,-1
 566 206 l 1,32,33
 541 184 541 184 484 184 c 0,34,35
 474 184 474 184 464.5 190 c 128,-1,36
 455 196 455 196 454 202 c 2,37,-1
 382 610 l 1,38,-1
 -28 610 l 2,39,40
 -40 610 -40 610 -43 630 c 0,41,42
 -45 643 -45 643 -42.5 677.5 c 128,-1,43
 -40 712 -40 712 -29 722 c 1,14,-1
EndSplineSet
EndChar

StartChar: uni00B2
Encoding: 111 178 115
Width: 716
GlyphClass: 2
Flags: W
LayerCount: 4
Fore
SplineSet
514 720 m 1,0,1
 510 699 510 699 498.5 622 c 128,-1,2
 487 545 487 545 477 508 c 1,3,-1
 13 508 l 2,4,5
 4 508 4 508 -6.5 517 c 128,-1,6
 -17 526 -17 526 -15 532 c 0,7,8
 6 560 6 560 55 620 c 128,-1,9
 104 680 104 680 144 733.5 c 128,-1,10
 184 787 184 787 212 836 c 0,11,12
 285 965 285 965 268 1060 c 0,13,14
 257 1124 257 1124 215 1164 c 128,-1,15
 173 1204 173 1204 111 1204 c 0,16,17
 69 1204 69 1204 36 1187 c 128,-1,18
 3 1170 3 1170 -12 1152.5 c 128,-1,19
 -27 1135 -27 1135 -46 1106 c 0,20,21
 -51 1100 -51 1100 -69 1116 c 128,-1,22
 -87 1132 -87 1132 -86 1140 c 0,23,24
 -61 1203 -61 1203 -4 1248.5 c 128,-1,25
 53 1294 53 1294 119 1294 c 0,26,27
 224 1294 224 1294 301 1234 c 128,-1,28
 378 1174 378 1174 395 1080 c 0,29,30
 411 988 411 988 338 878 c 0,31,32
 315 843 315 843 134 618 c 1,33,-1
 374 618 l 2,34,35
 397 618 397 618 415 627 c 128,-1,36
 433 636 433 636 443.5 651 c 128,-1,37
 454 666 454 666 459.5 679 c 128,-1,38
 465 692 465 692 469.5 708 c 128,-1,39
 474 724 474 724 475 726 c 0,40,41
 476 729 476 729 484 732 c 0,42,43
 503 732 503 732 514 720 c 1,0,1
EndSplineSet
EndChar

StartChar: uniE817
Encoding: 844 59415 116
Width: 1247
GlyphClass: 3
LigCaretCntFixed: 1
Flags: W
AnchorPoint: "aboveLiga" 502 1371 baselig 0
AnchorPoint: "belowLiga" 1067 -719 baselig 0
AnchorPoint: "aboveLiga" 42 1371 baselig 1
AnchorPoint: "belowLiga" 475 -695 baselig 1
LayerCount: 4
Fore
SplineSet
299 728 m 1
 337 729 l 1
 360 725 l 1
 405 714 l 1
 421 709 l 2
 425 707 425 707 434 706 c 2
 527 669 l 2
 532 664 532 664 540 663 c 2
 584 643 l 1
 643 618 l 2
 644 617 644 617 647 617 c 0
 658 610 658 610 677 604 c 2
 744 578 l 1
 793 562 l 1
 821 554 l 2
 831 550 831 550 840 549 c 0
 844 547 844 547 855 545 c 2
 881 538 l 1
 928 528 l 1
 944 526 l 2
 952 523 952 523 963 523 c 2
 1027 515 l 1
 1049 514 l 2
 1054 513 1054 513 1066 513 c 2
 1072 513 l 2
 1077 512 1077 512 1082 512 c 0
 1088 512 1088 512 1095 513 c 2
 1149 513 l 1
 1110 424 l 1
 1108 421 l 1
 1107 416 l 2
 1102 410 1102 410 1099 400 c 2
 1092 384 l 2
 1087 378 1087 378 1085 368 c 1
 1083 367 l 1
 1081 360 l 1
 1004 362 l 1
 957 361 l 2
 953 362 953 362 949 362 c 0
 944 362 944 362 939 361 c 0
 935 362 935 362 929 362 c 256
 923 362 923 362 916 361 c 2
 904 361 l 1
 830 355 l 1
 768 347 l 1
 706 336 l 1
 678 329 l 2
 669 329 669 329 661 325 c 2
 644 322 l 1
 561 297 l 2
 554 296 554 296 546 291 c 0
 541 291 541 291 537 288 c 0
 535 288 535 288 534 287 c 0
 526 285 526 285 517 281 c 2
 498 274 l 1
 514 236 514 236 520 201 c 0
 539 93 539 93 461 13 c 1
 443 1 l 1
 417 -11 l 1
 392 -11 l 1
 363 -5 l 1
 331 8 l 2
 326 12 326 12 314 15 c 1
 306 22 306 22 294 26 c 2
 255 53 l 1
 230 71 l 2
 222 80 222 80 208 90 c 0
 208 91 208 91 206 93 c 0
 206 94 206 94 203 96 c 0
 201 100 201 100 196 103 c 2
 194 106 l 1
 173 125 l 1
 163 120 163 120 158 110 c 0
 154 107 154 107 148 99 c 0
 143 95 143 95 134 84 c 1
 134 82 l 1
 120 69 l 1
 116 63 l 2
 112 60 112 60 108 54 c 0
 103 51 103 51 97 44 c 0
 96 44 96 44 95 42 c 2
 90 38 l 2
 82 33 82 33 72 23 c 2
 62 17 l 1
 48 11 l 1
 46 9 l 1
 20 1 l 1
 -3 -2 l 1
 -32 164 l 1
 -4 166 l 1
 30 173 l 2
 35 174 35 174 42 179 c 0
 49 179 49 179 57 184 c 0
 62 185 62 185 68 190 c 2
 102 204 l 1
 115 213 l 1
 196 373 196 373 395 373 c 2
 417 373 l 1
 420 377 420 377 430 382 c 2
 454 397 l 2
 464 399 464 399 472 406 c 0
 476 406 476 406 481 409 c 2
 534 431 l 1
 539 432 l 1
 560 442 l 1
 613 460 l 2
 615 460 615 460 619 462 c 2
 633 466 l 1
 627 469 627 469 620 472 c 2
 583 487 l 2
 576 492 576 492 560 497 c 2
 446 548 l 2
 439 549 439 549 429 554 c 2
 369 575 l 1
 328 585 l 1
 305 587 l 2
 300 588 300 588 289 588 c 2
 264 587 l 2
 220 582 220 582 187 548 c 0
 183 545 183 545 176 545 c 1
 173 549 173 549 171 557 c 2
 171 584 l 1
 177 609 l 1
 196 658 l 2
 203 664 203 664 205 674 c 1
 222 695 l 1
 235 706 l 1
 236 709 l 1
 242 712 242 712 249 720 c 0
 254 722 254 722 259 726 c 2
 280 735 l 2
 289 735 289 735 298 739 c 1
 299 728 l 1
389 222 m 2
 377 228 377 228 354 228 c 2
 346 228 l 1
 325 223 l 1
 317 220 l 2
 312 220 312 220 309 217 c 2
 301 215 l 1
 299 213 l 1
 342 173 342 173 405 159 c 2
 423 155 l 1
 423 160 423 160 422 165 c 0
 417 193 417 193 394 218 c 1
 389 222 l 2
877 -347 m 1
 893 -350 893 -350 922.5 -378 c 0
 952 -406 952 -406 1019 -454 c 1
 1022 -457 l 1
 1018 -460 1018 -460 926 -573 c 1
 856 -534 856 -534 788 -456 c 1
 869 -360 869 -360 877 -347 c 1
EndSplineSet
Refer: 1469 64436 S 1 0 0 1 250 -470 2
Ligature2: "'liga' Standard Ligatures in Arabic lookup 6 subtable" uniFB7C uniFEE4
LCarets2: 1 567
EndChar

StartChar: acute
Encoding: 112 180 117
Width: 520
GlyphClass: 2
Flags: W
LayerCount: 4
Fore
SplineSet
107 1368 m 0,0,1
 139 1368 139 1368 159 1354.5 c 128,-1,2
 179 1341 179 1341 183 1330.5 c 128,-1,3
 187 1320 187 1320 189 1310 c 0,4,5
 194 1281 194 1281 134 1216 c 128,-1,6
 74 1151 74 1151 9 1099.5 c 128,-1,7
 -56 1048 -56 1048 -67 1048 c 0,8,9
 -85 1048 -85 1048 -89 1074 c 0,10,11
 -91 1083 -91 1083 -36.5 1187.5 c 128,-1,12
 18 1292 18 1292 56 1352 c 0,13,14
 58 1354 58 1354 63.5 1357.5 c 128,-1,15
 69 1361 69 1361 81.5 1364.5 c 128,-1,16
 94 1368 94 1368 107 1368 c 0,0,1
EndSplineSet
EndChar

StartChar: mu
Encoding: 113 181 118
Width: 1082
GlyphClass: 2
Flags: W
LayerCount: 4
Fore
SplineSet
209 446 m 1,0,1
 232 315 232 315 274.5 221.5 c 128,-1,2
 317 128 317 128 367 128 c 0,3,4
 415 128 415 128 455.5 158 c 128,-1,5
 496 188 496 188 522.5 238 c 128,-1,6
 549 288 549 288 566.5 341.5 c 128,-1,7
 584 395 584 395 594 454 c 1,8,-1
 569 596 l 1,9,-1
 527 834 l 1,10,11
 545 874 545 874 568 874 c 0,12,13
 586 874 586 874 635 846 c 128,-1,14
 684 818 684 818 687 800 c 0,15,16
 689 790 689 790 690 772.5 c 128,-1,17
 691 755 691 755 692 726 c 2,18,-1
 692 668 l 2,19,20
 693 639 693 639 693.5 588 c 128,-1,21
 694 537 694 537 695 492 c 2,22,-1
 693 390 l 1,23,24
 713 278 713 278 763 205 c 128,-1,25
 813 132 813 132 879 132 c 0,26,27
 934 132 934 132 970 192 c 1,28,29
 977 192 977 192 991 174 c 0,30,31
 999 162 999 162 1001 152 c 0,32,33
 993 85 993 85 947.5 38.5 c 128,-1,34
 902 -8 902 -8 843 -8 c 0,35,36
 810 -7 810 -7 777 29.5 c 128,-1,37
 744 66 744 66 720.5 120 c 128,-1,38
 697 174 697 174 683 214 c 128,-1,39
 669 254 669 254 662 284 c 1,40,41
 648 227 648 227 626.5 177 c 128,-1,42
 605 127 605 127 574 81.5 c 128,-1,43
 543 36 543 36 499 9 c 128,-1,44
 455 -18 455 -18 405 -18 c 0,45,46
 316 -18 316 -18 240 202 c 1,47,48
 242 197 242 197 251 146 c 0,49,50
 255 120 255 120 262 82 c 0,51,52
 263 74 263 74 264 67 c 0,53,54
 283 -40 283 -40 313 -170 c 0,55,56
 345 -309 345 -309 383 -414 c 1,57,58
 365 -454 365 -454 342 -454 c 0,59,60
 324 -454 324 -454 275 -426 c 128,-1,61
 226 -398 226 -398 223 -380 c 0,62,63
 212 -317 212 -317 173.5 -21 c 128,-1,64
 135 275 135 275 126 408 c 0,65,66
 122 432 122 432 105.5 502.5 c 128,-1,67
 89 573 89 573 85 596 c 2,68,-1
 43 834 l 1,69,70
 61 874 61 874 84 874 c 0,71,72
 102 874 102 874 151 846 c 128,-1,73
 200 818 200 818 203 800 c 0,74,75
 219 707 219 707 211 492 c 2,76,-1
 209 446 l 1,0,1
EndSplineSet
EndChar

StartChar: paragraph
Encoding: 114 182 119
Width: 968
GlyphClass: 2
Flags: W
LayerCount: 4
Fore
SplineSet
527 666 m 1,0,1
 430 1212 l 1,2,3
 418 1222 418 1222 371 1222 c 0,4,5
 327 1222 327 1222 317 1210 c 1,6,7
 414 656 l 1,8,9
 432 656 432 656 477.5 659 c 128,-1,10
 523 662 523 662 527 666 c 1,0,1
539 584 m 1,11,12
 531 583 531 583 507.5 581.5 c 128,-1,13
 484 580 484 580 463 578 c 2,14,-1
 428 576 l 1,15,-1
 489 232 l 2,16,17
 509 116 509 116 521 84 c 0,18,19
 525 72 525 72 573 72 c 0,20,21
 623 72 623 72 623 84 c 0,22,23
 623 116 623 116 603 232 c 2,24,-1
 539 584 l 1,11,12
617 598 m 1,25,-1
 681 232 l 2,26,27
 701 116 701 116 717 84 c 0,28,29
 724 69 724 69 776 57.5 c 128,-1,30
 828 46 828 46 854 46 c 0,31,32
 857 46 857 46 861.5 20.5 c 128,-1,33
 866 -5 866 -5 863 -8 c 0,34,35
 813 -6 813 -6 738 -1 c 128,-1,36
 663 4 663 4 593 4 c 0,37,38
 555 4 555 4 317 -8 c 1,39,40
 312 0 312 0 309 20.5 c 128,-1,41
 306 41 306 41 312 46 c 1,42,43
 333 46 333 46 379.5 58 c 128,-1,44
 426 70 426 70 427 84 c 0,45,46
 431 116 431 116 411 232 c 2,47,-1
 351 574 l 1,48,49
 260 574 260 574 177.5 611 c 128,-1,50
 95 648 95 648 39.5 704 c 128,-1,51
 -16 760 -16 760 -52 821.5 c 128,-1,52
 -88 883 -88 883 -97 938 c 0,53,54
 -116 1043 -116 1043 -79.5 1128.5 c 128,-1,55
 -43 1214 -43 1214 27 1259 c 128,-1,56
 97 1304 97 1304 180 1304 c 0,57,58
 239 1304 239 1304 277.5 1300 c 128,-1,59
 316 1296 316 1296 375 1296 c 0,60,61
 435 1296 435 1296 495.5 1298.5 c 128,-1,62
 556 1301 556 1301 586 1304 c 2,63,-1
 616 1306 l 1,64,65
 624 1298 624 1298 627.5 1275.5 c 128,-1,66
 631 1253 631 1253 624 1248 c 1,67,68
 596 1248 596 1248 558.5 1236 c 128,-1,69
 521 1224 521 1224 517 1208 c 0,70,71
 515 1187 515 1187 534 1080 c 2,72,-1
 604 678 l 1,73,74
 608 677 608 677 631.5 683.5 c 128,-1,75
 655 690 655 690 677 697 c 2,76,-1
 698 704 l 1,77,78
 718 704 718 704 720 692 c 0,79,80
 721 678 721 678 703.5 650.5 c 128,-1,81
 686 623 686 623 675 618 c 0,82,83
 641 601 641 601 617 598 c 1,25,-1
EndSplineSet
EndChar

StartChar: periodcentered
Encoding: 115 183 120
Width: 448
GlyphClass: 2
Flags: W
LayerCount: 4
Fore
SplineSet
14.5 528 m 128,-1,1
 6 576 6 576 34 610 c 128,-1,2
 62 644 62 644 110 644 c 128,-1,3
 158 644 158 644 198 610 c 128,-1,4
 238 576 238 576 246.5 528 c 128,-1,5
 255 480 255 480 227.5 445 c 128,-1,6
 200 410 200 410 152 410 c 128,-1,7
 104 410 104 410 63.5 445 c 128,-1,0
 23 480 23 480 14.5 528 c 128,-1,1
EndSplineSet
EndChar

StartChar: cedilla
Encoding: 116 184 121
Width: 462
GlyphClass: 2
Flags: W
LayerCount: 4
Fore
SplineSet
234 -54 m 1,0,-1
 284 -54 l 2,1,2
 322 -54 322 -54 352 -83 c 128,-1,3
 382 -112 382 -112 389 -152 c 0,4,5
 401 -221 401 -221 354.5 -262.5 c 128,-1,6
 308 -304 308 -304 228 -304 c 0,7,8
 187 -304 187 -304 156 -286 c 0,9,10
 156 -284 156 -284 151.5 -274.5 c 128,-1,11
 147 -265 147 -265 145 -258 c 0,12,13
 143 -248 143 -248 151.5 -239 c 128,-1,14
 160 -230 160 -230 169 -230 c 0,15,16
 180 -230 180 -230 205 -243 c 128,-1,17
 230 -256 230 -256 247 -256 c 0,18,19
 287 -256 287 -256 306.5 -236.5 c 128,-1,20
 326 -217 326 -217 322 -190 c 0,21,22
 316 -157 316 -157 293.5 -139.5 c 128,-1,23
 271 -122 271 -122 248 -122 c 0,24,25
 231 -122 231 -122 198 -136 c 0,26,27
 194 -136 194 -136 182.5 -125.5 c 128,-1,28
 171 -115 171 -115 173 -110 c 0,29,30
 179 -97 179 -97 196 -60 c 128,-1,31
 213 -23 213 -23 219 -8 c 1,32,-1
 261 -8 l 1,33,-1
 234 -54 l 1,0,-1
EndSplineSet
EndChar

StartChar: uni00B9
Encoding: 117 185 122
Width: 584
GlyphClass: 2
Flags: W
LayerCount: 4
Fore
SplineSet
63 1036 m 2,0,1
 52 1099 52 1099 39 1118.5 c 128,-1,2
 26 1138 26 1138 7 1138 c 0,3,4
 -14 1138 -14 1138 -99 1106 c 1,5,6
 -119 1115 -119 1115 -123 1140 c 0,7,8
 -125 1153 -125 1153 -120 1156 c 0,9,10
 -34 1195 -34 1195 33.5 1232 c 128,-1,11
 101 1269 101 1269 127 1286.5 c 128,-1,12
 153 1304 153 1304 154 1304 c 2,13,-1
 158 1304 l 2,14,15
 167 1304 167 1304 190 1258 c 1,16,17
 187 1174 187 1174 201 1096 c 2,18,-1
 274 680 l 2,19,20
 284 623 284 623 307 586 c 0,21,22
 313 577 313 577 356 567.5 c 128,-1,23
 399 558 399 558 416 558 c 0,24,25
 420 558 420 558 424 535 c 128,-1,26
 428 512 428 512 425 506 c 1,27,28
 400 507 400 507 338.5 509.5 c 128,-1,29
 277 512 277 512 232 512 c 128,-1,30
 187 512 187 512 121.5 509.5 c 128,-1,31
 56 507 56 507 33 506 c 1,32,33
 24 510 24 510 20 533 c 128,-1,34
 16 556 16 556 24 556 c 0,35,36
 46 556 46 556 87.5 565.5 c 128,-1,37
 129 575 129 575 131 584 c 0,38,39
 138 615 138 615 127 676 c 2,40,-1
 63 1036 l 2,0,1
EndSplineSet
EndChar

StartChar: ordmasculine
Encoding: 118 186 123
Width: 776
GlyphClass: 2
Flags: W
LayerCount: 4
Fore
SplineSet
187 1060 m 0,0,1
 107 1060 107 1060 79.5 989 c 128,-1,2
 52 918 52 918 69 822 c 0,3,4
 88 712 88 712 154 627 c 128,-1,5
 220 542 220 542 312 542 c 0,6,7
 388 542 388 542 414.5 615 c 128,-1,8
 441 688 441 688 424 782 c 0,9,10
 412 851 412 851 382 912 c 128,-1,11
 352 973 352 973 300.5 1016.5 c 128,-1,12
 249 1060 249 1060 187 1060 c 0,0,1
197 1108 m 0,13,14
 327 1108 327 1108 431.5 1019.5 c 128,-1,15
 536 931 536 931 558 806 c 0,16,17
 580 680 580 680 507 587 c 128,-1,18
 434 494 434 494 305 494 c 0,19,20
 175 494 175 494 66 583.5 c 128,-1,21
 -43 673 -43 673 -65 798 c 0,22,23
 -88 926 -88 926 -12 1017 c 128,-1,24
 64 1108 64 1108 197 1108 c 0,13,14
EndSplineSet
EndChar

StartChar: guillemotright
Encoding: 119 187 124
Width: 964
GlyphClass: 2
Flags: W
LayerCount: 4
Fore
SplineSet
467 492 m 0,0,1
 470 475 470 475 463 460 c 1,2,3
 238 308 238 308 101 142 c 1,4,5
 64 153 64 153 53 166 c 1,6,7
 56 196 56 196 141.5 311.5 c 128,-1,8
 227 427 227 427 291 494 c 1,9,10
 203 561 203 561 76.5 676.5 c 128,-1,11
 -50 792 -50 792 -63 822 c 1,12,13
 -56 835 -56 835 -23 846 c 1,14,15
 172 680 172 680 451 528 c 1,16,17
 465 506 465 506 467 492 c 0,0,1
827 492 m 0,18,19
 830 475 830 475 823 460 c 1,20,21
 598 308 598 308 461 142 c 1,22,23
 424 153 424 153 413 166 c 1,24,25
 416 196 416 196 501.5 311.5 c 128,-1,26
 587 427 587 427 651 494 c 1,27,28
 563 561 563 561 436.5 676.5 c 128,-1,29
 310 792 310 792 297 822 c 1,30,31
 304 835 304 835 337 846 c 1,32,33
 532 680 532 680 811 528 c 1,34,35
 825 506 825 506 827 492 c 0,18,19
EndSplineSet
EndChar

StartChar: onequarter
Encoding: 120 188 125
Width: 1398
GlyphClass: 2
Flags: W
LayerCount: 4
Fore
SplineSet
1068 814 m 0,0,1
 1076 814 1076 814 1082.5 806.5 c 128,-1,2
 1089 799 1089 799 1091 790 c 2,3,-1
 1179 292 l 1,4,5
 1249 292 l 1,6,7
 1265 279 1265 279 1273.5 256.5 c 128,-1,8
 1282 234 1282 234 1275 212 c 1,9,-1
 1199 212 l 1,10,-1
 1236 0 l 1,11,12
 1231 -6 1231 -6 1177 -6 c 0,13,14
 1125 -6 1125 -6 1111 4 c 1,15,-1
 1075 212 l 1,16,-1
 745 212 l 2,17,18
 727 215 727 215 719 244 c 1,19,-1
 1033 790 l 2,20,21
 1047 814 1047 814 1068 814 c 0,0,1
1059 302 m 1,22,23
 1004 610 l 1,24,25
 971 557 971 557 918 458 c 128,-1,26
 865 359 865 359 831 302 c 1,27,-1
 1059 302 l 1,22,23
160 1068 m 2,28,-1
 230 672 l 2,29,30
 240 616 240 616 261 574 c 0,31,32
 266 565 266 565 307.5 555.5 c 128,-1,33
 349 546 349 546 366 546 c 1,34,35
 374 536 374 536 376 521.5 c 128,-1,36
 378 507 378 507 375 502 c 1,37,38
 345 503 345 503 295.5 505.5 c 128,-1,39
 246 508 246 508 202 508 c 128,-1,40
 158 508 158 508 102 505.5 c 128,-1,41
 46 503 46 503 19 502 c 1,42,43
 11 507 11 507 9 523.5 c 128,-1,44
 7 540 7 540 12 546 c 1,45,46
 33 546 33 546 68.5 556 c 128,-1,47
 104 566 104 566 106 576 c 0,48,49
 115 618 115 618 106 668 c 2,50,-1
 41 1040 l 2,51,52
 36 1069 36 1069 22.5 1089.5 c 128,-1,53
 9 1110 9 1110 -6 1110 c 0,54,55
 -16 1110 -16 1110 -28 1106.5 c 128,-1,56
 -40 1103 -40 1103 -64 1093 c 128,-1,57
 -88 1083 -88 1083 -96 1080 c 1,58,59
 -114 1088 -114 1088 -129 1116 c 1,60,61
 -105 1133 -105 1133 113 1276 c 1,62,63
 125 1273 125 1273 134 1263.5 c 128,-1,64
 143 1254 143 1254 145 1244 c 0,65,66
 146 1146 146 1146 160 1068 c 2,28,-1
376 -25 m 0,67,68
 367 -23 367 -23 360.5 -19 c 128,-1,69
 354 -15 354 -15 352 -12 c 2,70,-1
 350 -8 l 1,71,-1
 825 1273 l 2,72,73
 825 1276 825 1276 832.5 1280.5 c 128,-1,74
 840 1285 840 1285 853 1288 c 128,-1,75
 866 1291 866 1291 884 1288 c 0,76,77
 900 1285 900 1285 902 1268 c 1,78,-1
 435 4 l 2,79,80
 429 -8 429 -8 414 -19 c 128,-1,81
 399 -30 399 -30 376 -25 c 0,67,68
EndSplineSet
EndChar

StartChar: onehalf
Encoding: 121 189 126
Width: 1500
GlyphClass: 2
Flags: W
LayerCount: 4
Fore
SplineSet
1000 784 m 0,0,1
 1105 784 1105 784 1182 724 c 128,-1,2
 1259 664 1259 664 1275 570 c 0,3,4
 1291 478 1291 478 1219 368 c 0,5,6
 1196 333 1196 333 1015 108 c 1,7,-1
 1255 108 l 2,8,9
 1278 108 1278 108 1296 117 c 128,-1,10
 1314 126 1314 126 1324 141 c 128,-1,11
 1334 156 1334 156 1340 169 c 128,-1,12
 1346 182 1346 182 1350.5 198 c 128,-1,13
 1355 214 1355 214 1356 216 c 0,14,15
 1357 219 1357 219 1365 222 c 0,16,17
 1384 222 1384 222 1395 210 c 1,18,19
 1391 189 1391 189 1379.5 112 c 128,-1,20
 1368 35 1368 35 1358 -2 c 1,21,-1
 894 -2 l 2,22,23
 885 -2 885 -2 874.5 7 c 128,-1,24
 864 16 864 16 866 22 c 0,25,26
 876 37 876 37 959.5 140.5 c 128,-1,27
 1043 244 1043 244 1080 304 c 0,28,29
 1167 445 1167 445 1149 550 c 0,30,31
 1138 614 1138 614 1096 654 c 128,-1,32
 1054 694 1054 694 992 694 c 0,33,34
 950 694 950 694 917 677 c 128,-1,35
 884 660 884 660 869 642.5 c 128,-1,36
 854 625 854 625 835 596 c 0,37,38
 830 590 830 590 812 606 c 128,-1,39
 794 622 794 622 795 630 c 0,40,41
 820 693 820 693 877 738.5 c 128,-1,42
 934 784 934 784 1000 784 c 0,0,1
166 1068 m 2,43,-1
 236 672 l 2,44,45
 246 616 246 616 267 574 c 0,46,47
 272 565 272 565 313.5 555.5 c 128,-1,48
 355 546 355 546 372 546 c 1,49,50
 380 536 380 536 382 521.5 c 128,-1,51
 384 507 384 507 381 502 c 1,52,53
 351 503 351 503 301.5 505.5 c 128,-1,54
 252 508 252 508 208 508 c 128,-1,55
 164 508 164 508 108 505.5 c 128,-1,56
 52 503 52 503 25 502 c 1,57,58
 17 507 17 507 15 523.5 c 128,-1,59
 13 540 13 540 18 546 c 1,60,61
 39 546 39 546 74.5 556 c 128,-1,62
 110 566 110 566 112 576 c 0,63,64
 121 618 121 618 112 668 c 2,65,-1
 47 1040 l 2,66,67
 42 1069 42 1069 28.5 1089.5 c 128,-1,68
 15 1110 15 1110 0 1110 c 0,69,70
 -10 1110 -10 1110 -22 1106.5 c 128,-1,71
 -34 1103 -34 1103 -58 1093 c 128,-1,72
 -82 1083 -82 1083 -90 1080 c 1,73,74
 -108 1088 -108 1088 -123 1116 c 1,75,76
 -99 1133 -99 1133 119 1276 c 1,77,78
 131 1273 131 1273 140 1263.5 c 128,-1,79
 149 1254 149 1254 151 1244 c 0,80,81
 152 1146 152 1146 166 1068 c 2,43,-1
904 1268 m 1,82,-1
 437 4 l 2,83,84
 431 -8 431 -8 416 -19 c 128,-1,85
 401 -30 401 -30 378 -25 c 0,86,87
 369 -23 369 -23 362.5 -19 c 128,-1,88
 356 -15 356 -15 354 -12 c 2,89,-1
 352 -8 l 1,90,-1
 827 1273 l 2,91,92
 827 1276 827 1276 834.5 1280.5 c 128,-1,93
 842 1285 842 1285 855 1288 c 128,-1,94
 868 1291 868 1291 886 1288 c 0,95,96
 901 1285 901 1285 904 1268 c 1,82,-1
EndSplineSet
EndChar

StartChar: threequarters
Encoding: 122 190 127
Width: 1400
GlyphClass: 2
Flags: W
LayerCount: 4
Fore
SplineSet
1070 814 m 0,0,1
 1078 814 1078 814 1084.5 806.5 c 128,-1,2
 1091 799 1091 799 1093 790 c 2,3,-1
 1181 292 l 1,4,5
 1251 292 l 1,6,7
 1267 279 1267 279 1275.5 256.5 c 128,-1,8
 1284 234 1284 234 1277 212 c 1,9,-1
 1201 212 l 1,10,-1
 1238 0 l 1,11,12
 1233 -6 1233 -6 1179 -6 c 0,13,14
 1127 -6 1127 -6 1113 4 c 1,15,-1
 1077 212 l 1,16,-1
 747 212 l 2,17,18
 729 215 729 215 721 244 c 1,19,-1
 1035 790 l 2,20,21
 1049 814 1049 814 1070 814 c 0,0,1
1061 302 m 1,22,23
 1006 610 l 1,24,25
 973 557 973 557 920 458 c 128,-1,26
 867 359 867 359 833 302 c 1,27,-1
 1061 302 l 1,22,23
88 1292 m 0,28,29
 157 1292 157 1292 217 1251 c 128,-1,30
 277 1210 277 1210 289 1138 c 0,31,32
 299 1079 299 1079 270 1035 c 128,-1,33
 241 991 241 991 203 972 c 1,34,35
 254 972 254 972 328 916 c 128,-1,36
 402 860 402 860 418 772 c 0,37,38
 440 645 440 645 358.5 571.5 c 128,-1,39
 277 498 277 498 140 498 c 0,40,41
 104 498 104 498 60.5 506.5 c 128,-1,42
 17 515 17 515 1 528 c 0,43,44
 -27 550 -27 550 -32 576 c 0,45,46
 -37 605 -37 605 -21.5 623.5 c 128,-1,47
 -6 642 -6 642 19 642 c 0,48,49
 34 642 34 642 47 634 c 128,-1,50
 60 626 60 626 77 608 c 128,-1,51
 94 590 94 590 101 584 c 0,52,53
 136 554 136 554 184 554 c 0,54,55
 249 554 249 554 280.5 600.5 c 128,-1,56
 312 647 312 647 296 736 c 0,57,58
 283 808 283 808 231 858 c 128,-1,59
 179 908 179 908 122 908 c 0,60,61
 106 908 106 908 89.5 904.5 c 128,-1,62
 73 901 73 901 59.5 896.5 c 128,-1,63
 46 892 46 892 45 892 c 0,64,65
 38 898 38 898 30 916 c 0,66,67
 26 930 26 930 27 934 c 0,68,69
 104 950 104 950 149 996.5 c 128,-1,70
 194 1043 194 1043 182 1112 c 0,71,72
 175 1151 175 1151 138 1182.5 c 128,-1,73
 101 1214 101 1214 62 1214 c 0,74,75
 50 1214 50 1214 38.5 1212 c 128,-1,76
 27 1210 27 1210 17 1206 c 128,-1,77
 7 1202 7 1202 -1.5 1197.5 c 128,-1,78
 -10 1193 -10 1193 -18 1187 c 128,-1,79
 -26 1181 -26 1181 -31.5 1176 c 128,-1,80
 -37 1171 -37 1171 -43.5 1164.5 c 128,-1,81
 -50 1158 -50 1158 -53 1154 c 2,82,-1
 -60 1146 l 1,83,-1
 -65 1140 l 1,84,85
 -70 1142 -70 1142 -76 1149.5 c 128,-1,86
 -82 1157 -82 1157 -85.5 1164 c 128,-1,87
 -89 1171 -89 1171 -89 1172 c 0,88,89
 -30 1292 -30 1292 88 1292 c 0,28,29
914 1268 m 1,90,-1
 447 4 l 2,91,92
 441 -8 441 -8 426 -19 c 128,-1,93
 411 -30 411 -30 388 -25 c 0,94,95
 379 -23 379 -23 372.5 -19 c 128,-1,96
 366 -15 366 -15 364 -12 c 2,97,-1
 362 -8 l 1,98,-1
 837 1273 l 2,99,100
 837 1276 837 1276 844.5 1280.5 c 128,-1,101
 852 1285 852 1285 865 1288 c 128,-1,102
 878 1291 878 1291 896 1288 c 0,103,104
 911 1285 911 1285 914 1268 c 1,90,-1
EndSplineSet
EndChar

StartChar: questiondown
Encoding: 123 191 128
Width: 690
GlyphClass: 2
Flags: W
LayerCount: 4
Fore
SplineSet
444 748 m 128,-1,1
 452 703 452 703 424 671.5 c 128,-1,2
 396 640 396 640 351 640 c 128,-1,3
 306 640 306 640 269 671.5 c 128,-1,4
 232 703 232 703 224 748 c 128,-1,5
 216 793 216 793 241.5 826.5 c 128,-1,6
 267 860 267 860 312 860 c 128,-1,7
 357 860 357 860 396.5 826.5 c 128,-1,0
 436 793 436 793 444 748 c 128,-1,1
422 498 m 0,8,9
 450 431 450 431 470 316 c 0,10,11
 477 276 477 276 472.5 241.5 c 128,-1,12
 468 207 468 207 459.5 185 c 128,-1,13
 451 163 451 163 430 140 c 128,-1,14
 409 117 409 117 395.5 106 c 128,-1,15
 382 95 382 95 356 77 c 0,16,17
 347 71 347 71 344 68 c 0,18,19
 308 42 308 42 293 31 c 128,-1,20
 278 20 278 20 253.5 -2.5 c 128,-1,21
 229 -25 229 -25 220.5 -41.5 c 128,-1,22
 212 -58 212 -58 206.5 -83 c 128,-1,23
 201 -108 201 -108 206 -136 c 0,24,25
 219 -211 219 -211 271 -255.5 c 128,-1,26
 323 -300 323 -300 383 -300 c 128,-1,27
 443 -300 443 -300 485.5 -279 c 128,-1,28
 528 -258 528 -258 547 -258 c 0,29,30
 574 -258 574 -258 609.5 -286 c 128,-1,31
 645 -314 645 -314 653 -358 c 0,32,33
 662 -407 662 -407 648 -432 c 1,34,35
 622 -446 622 -446 555 -446 c 0,36,37
 514 -446 514 -446 460 -430.5 c 128,-1,38
 406 -415 406 -415 347.5 -383 c 128,-1,39
 289 -351 289 -351 237 -308 c 128,-1,40
 185 -265 185 -265 146 -204 c 128,-1,41
 107 -143 107 -143 95 -76 c 0,42,43
 77 27 77 27 110.5 96.5 c 128,-1,44
 144 166 144 166 243 230 c 0,45,46
 281 255 281 255 326 296.5 c 128,-1,47
 371 338 371 338 378 354 c 0,48,49
 382 365 382 365 381.5 384.5 c 128,-1,50
 381 404 381 404 379 417.5 c 128,-1,51
 377 431 377 431 371.5 459 c 128,-1,52
 366 487 366 487 365 494 c 0,53,54
 373 518 373 518 392 520 c 1,55,56
 413 512 413 512 422 498 c 0,8,9
EndSplineSet
Substitution2: "'smcp' Lowercase to Small Capitals lookup 12 subtable" questiondown.sc
EndChar

StartChar: Acircumflex
Encoding: 126 194 131
Width: 1254
GlyphClass: 2
Flags: W
LayerCount: 4
Fore
SplineSet
347 1719 m 0
 357 1719 357 1719 374 1703 c 0
 425 1656 425 1656 497.5 1592.5 c 0
 570 1529 570 1529 616 1488 c 1
 618 1478 618 1478 614 1466 c 0
 610 1454 610 1454 602 1454 c 1
 371 1582 l 1
 231 1486 231 1486 185 1454 c 1
 177 1454 177 1454 168 1466 c 0
 159 1478 159 1478 158 1488 c 1
 294 1661 294 1661 325 1703 c 0
 336 1719 336 1719 347 1719 c 0
EndSplineSet
Refer: 35 65 S 1 0 0 1 0 0 2
EndChar

StartChar: Atilde
Encoding: 127 195 132
Width: 1254
GlyphClass: 2
Flags: W
LayerCount: 4
Fore
SplineSet
254 1622 m 0
 309 1622 309 1622 395 1579 c 0
 489 1531 489 1531 526 1531 c 0
 561 1531 561 1531 586.5 1548 c 0
 612 1565 612 1565 625.5 1585.5 c 0
 639 1606 639 1606 642 1607 c 0
 647 1607 647 1607 651.5 1599.5 c 0
 656 1592 656 1592 657 1586 c 0
 663 1554 663 1554 642 1515 c 0
 596 1442 596 1442 517 1442 c 0
 462 1442 462 1442 376 1485 c 0
 373 1487 373 1487 359 1494 c 0
 345 1501 345 1501 341 1503 c 0
 337 1505 337 1505 325 1511 c 0
 313 1517 313 1517 307.5 1519 c 0
 302 1521 302 1521 292 1524.5 c 0
 282 1528 282 1528 275 1529.5 c 0
 268 1531 268 1531 260 1532.5 c 0
 252 1534 252 1534 245 1534 c 0
 217 1534 217 1534 194.5 1523 c 0
 172 1512 172 1512 161.5 1498.5 c 0
 151 1485 151 1485 142 1472 c 0
 133 1459 133 1459 129 1457 c 0
 124 1457 124 1457 119 1465 c 0
 114 1473 114 1473 113 1479 c 0
 107 1512 107 1512 129 1551 c 0
 173 1622 173 1622 254 1622 c 0
EndSplineSet
Refer: 35 65 S 1 0 0 1 0 0 2
EndChar

StartChar: Aring
Encoding: 129 197 134
Width: 1254
GlyphClass: 2
Flags: W
LayerCount: 4
Fore
SplineSet
267 1504 m 0
 275 1458 275 1458 314.5 1425 c 0
 354 1392 354 1392 399 1392 c 0
 444 1392 444 1392 469.5 1424.5 c 0
 495 1457 495 1457 487 1504 c 0
 479 1550 479 1550 441.5 1582 c 0
 404 1614 404 1614 359 1614 c 0
 313 1614 313 1614 286 1582 c 0
 259 1550 259 1550 267 1504 c 0
201 1504 m 0
 188 1577 188 1577 231.5 1629.5 c 0
 275 1682 275 1682 347 1682 c 0
 419 1682 419 1682 479.5 1630 c 0
 540 1578 540 1578 553 1504 c 0
 566 1430 566 1430 524.5 1377 c 0
 483 1324 483 1324 411 1324 c 0
 339 1324 339 1324 276.5 1377.5 c 0
 214 1431 214 1431 201 1504 c 0
EndSplineSet
Refer: 35 65 S 1 0 0 1 0 0 2
EndChar

StartChar: AE
Encoding: 130 198 135
Width: 1794
GlyphClass: 2
Flags: W
LayerCount: 4
Fore
SplineSet
946 0 m 0,0,1
 886 0 886 0 828.5 -1.5 c 128,-1,2
 771 -3 771 -3 743 -4 c 2,3,-1
 715 -6 l 1,4,5
 710 -1 710 -1 707 13 c 128,-1,6
 704 27 704 27 703.5 39.5 c 128,-1,7
 703 52 703 52 705 52 c 0,8,9
 729 52 729 52 777 67 c 128,-1,10
 825 82 825 82 829 98 c 0,11,12
 833 152 833 152 812 270 c 2,13,-1
 770 510 l 1,14,15
 697 514 697 514 591 514 c 0,16,17
 540 514 540 514 389 504 c 1,18,-1
 380 498 l 1,19,20
 321 356 321 356 277 258 c 0,21,22
 219 134 219 134 224 104 c 0,23,24
 227 87 227 87 246 75.5 c 128,-1,25
 265 64 265 64 290.5 59.5 c 128,-1,26
 316 55 316 55 333 53.5 c 128,-1,27
 350 52 350 52 361 52 c 1,28,29
 366 48 366 48 371 25.5 c 128,-1,30
 376 3 376 3 375 -6 c 1,31,32
 346 -5 346 -5 311.5 -2 c 128,-1,33
 277 1 277 1 247.5 2.5 c 128,-1,34
 218 4 218 4 179 4 c 0,35,36
 138 4 138 4 108.5 2.5 c 128,-1,37
 79 1 79 1 43 -2 c 128,-1,38
 7 -5 7 -5 -27 -6 c 1,39,40
 -32 -2 -32 -2 -35.5 20 c 128,-1,41
 -39 42 -39 42 -37 52 c 1,42,43
 -19 52 -19 52 16 64.5 c 128,-1,44
 51 77 51 77 70 90 c 0,45,46
 126 130 126 130 188 274 c 2,47,-1
 584 1168 l 2,48,49
 594 1191 594 1191 591 1208 c 0,50,51
 587 1232 587 1232 552.5 1245 c 128,-1,52
 518 1258 518 1258 492 1258 c 1,53,54
 483 1268 483 1268 481 1290 c 128,-1,55
 479 1312 479 1312 482 1316 c 1,56,57
 580 1314 580 1314 714 1314 c 0,58,59
 804 1314 804 1314 1022.5 1321 c 128,-1,60
 1241 1328 1241 1328 1354 1328 c 1,61,62
 1372 1270 1372 1270 1411.5 1175 c 128,-1,63
 1451 1080 1451 1080 1460 1056 c 1,64,65
 1452 1046 1452 1046 1426 1046 c 0,66,67
 1401 1046 1401 1046 1395 1060 c 0,68,69
 1344 1171 1344 1171 1282 1209.5 c 128,-1,70
 1220 1248 1220 1248 1130 1248 c 2,71,-1
 958 1248 l 2,72,73
 827 1248 827 1248 824 1226 c 0,74,75
 820 1193 820 1193 834 1112 c 0,76,77
 836 1098 836 1098 839 1084 c 2,78,-1
 905 710 l 2,79,80
 905 703 905 703 929.5 700.5 c 128,-1,81
 954 698 954 698 993 698 c 2,82,-1
 1099 698 l 2,83,84
 1149 698 1149 698 1177 699 c 128,-1,85
 1205 700 1205 700 1228.5 705 c 128,-1,86
 1252 710 1252 710 1261.5 718 c 128,-1,87
 1271 726 1271 726 1278.5 740.5 c 128,-1,88
 1286 755 1286 755 1288 775 c 128,-1,89
 1290 795 1290 795 1293 825 c 0,90,91
 1293 836 1293 836 1294 842 c 0,92,93
 1295 856 1295 856 1321 856 c 0,94,95
 1345 856 1345 856 1357 846 c 1,96,-1
 1423 468 l 1,97,98
 1416 460 1416 460 1393 460 c 0,99,100
 1367 460 1367 460 1358 476 c 0,101,102
 1323 555 1323 555 1309.5 576.5 c 128,-1,103
 1296 598 1296 598 1279 608 c 0,104,105
 1251 624 1251 624 1064 624 c 2,106,107
 1033 624 l 0,108,109
 1022 624 1022 624 1002 623.5 c 128,-1,110
 982 623 982 623 970.5 622 c 128,-1,111
 959 621 959 621 946 619 c 128,-1,112
 933 617 933 617 927.5 613.5 c 128,-1,113
 922 610 922 610 923 606 c 2,114,-1
 990 226 l 2,115,116
 992 216 992 216 994 205 c 0,117,118
 999 177 999 177 1007 143 c 0,119,120
 1017 95 1017 95 1026 88 c 0,121,122
 1046 74 1046 74 1073.5 71 c 128,-1,123
 1101 68 1101 68 1172 68 c 2,124,-1
 1268 68 l 2,125,126
 1340 68 1340 68 1407 82.5 c 128,-1,127
 1474 97 1474 97 1510 122 c 0,128,129
 1548 148 1548 148 1566.5 194.5 c 128,-1,130
 1585 241 1585 241 1601 324 c 0,131,132
 1602 336 1602 336 1627 336 c 0,133,134
 1665 336 1665 336 1679 324 c 1,135,136
 1675 298 1675 298 1664 241 c 128,-1,137
 1653 184 1653 184 1646.5 148.5 c 128,-1,138
 1640 113 1640 113 1634.5 68 c 128,-1,139
 1629 23 1629 23 1629 -8 c 1,140,141
 1526 -8 1526 -8 1305.5 -4 c 128,-1,142
 1085 0 1085 0 946 0 c 0,0,1
755 594 m 1,143,-1
 660 1132 l 1,144,-1
 426 600 l 2,145,146
 425 592 425 592 430 592 c 0,147,148
 482 590 482 590 588 590 c 0,149,150
 680 590 680 590 755 594 c 1,143,-1
EndSplineSet
EndChar

StartChar: Ecircumflex
Encoding: 134 202 139
Width: 1174
GlyphClass: 2
Flags: W
LayerCount: 4
Fore
SplineSet
305 1719 m 0
 315 1719 315 1719 332 1703 c 0
 383 1656 383 1656 455.5 1592.5 c 0
 528 1529 528 1529 574 1488 c 1
 576 1478 576 1478 572 1466 c 0
 568 1454 568 1454 560 1454 c 1
 329 1582 l 1
 189 1486 189 1486 143 1454 c 1
 135 1454 135 1454 126 1466 c 0
 117 1478 117 1478 116 1488 c 1
 252 1661 252 1661 283 1703 c 0
 294 1719 294 1719 305 1719 c 0
EndSplineSet
Refer: 39 69 S 1 0 0 1 0 0 2
EndChar

StartChar: Icircumflex
Encoding: 138 206 143
Width: 648
GlyphClass: 2
Flags: W
LayerCount: 4
Fore
SplineSet
48 1673 m 0
 58 1673 58 1673 75 1657 c 0
 126 1610 126 1610 199 1546.5 c 0
 272 1483 272 1483 317 1442 c 1
 319 1432 319 1432 315 1420 c 0
 311 1408 311 1408 303 1408 c 1
 72 1536 l 1
 -68 1440 -68 1440 -114 1408 c 1
 -122 1408 -122 1408 -131 1420 c 0
 -140 1432 -140 1432 -141 1442 c 1
 -5 1615 -5 1615 26 1657 c 0
 37 1673 37 1673 48 1673 c 0
EndSplineSet
Refer: 43 73 S 1 0 0 1 0 0 2
EndChar

StartChar: Eth
Encoding: 140 208 145
Width: 1420
GlyphClass: 2
Flags: W
LayerCount: 4
Fore
SplineSet
620 622 m 1
 -12 622 l 2
 -16 622 -16 622 -20.5 636.5 c 0
 -25 651 -25 651 -26 669.5 c 0
 -27 688 -27 688 -23 696 c 1
 607 696 l 2
 613 696 613 696 618.5 666 c 0
 624 636 624 636 620 622 c 1
EndSplineSet
Refer: 38 68 S 1 0 0 1 0 0 2
EndChar

